<svg xmlns="http://www.w3.org/2000/svg" width="512" height="512" fill="none" viewBox="0 0 512 512">
  <path fill="#202939" d="M0 0h512v512H0z"/>
  <path fill="#fff" d="m258.369 170 31.624 21.615v4.369l-82.039 122.102-3.666 2.529h-61.873L127.978 342h-4.354L92 320.385v-4.369L190.08 170h4.354l31.624 21.615v4.369L156.394 299.69v15.636L254.015 170h4.354Zm128.007 0L418 191.615v4.369l-82.039 122.102-3.666 2.529h-61.873L255.985 342h-4.354l-31.624-21.615v-4.369L318.087 170h4.354l31.624 21.615v4.369L284.4 299.69v15.636L382.022 170h4.354Z"/>
</svg>
