<svg xmlns="http://www.w3.org/2000/svg" width="45" height="45" fill="none"><g clip-path="url(#a)"><path fill="#E74D89" d="M22.496 1.494c11.602 0 20.988 9.387 20.988 20.97 0 11.585-9.386 20.99-20.988 20.99S1.508 34.065 1.508 22.481 10.895 1.494 22.496 1.494"/><path fill="#B2215A" d="M22.5 44.947C10.09 44.947 0 34.875 0 22.482 0 10.072 10.09 0 22.5 0S45 10.072 45 22.465c0 12.392-10.09 22.482-22.5 22.482m18.967-19.406c-.65-.21-5.942-1.775-11.97-.826 2.513 6.89 3.532 12.516 3.726 13.676 4.324-2.9 7.4-7.506 8.244-12.85M30.006 40.166c-.281-1.687-1.406-7.559-4.096-14.555a.3.3 0 0 1-.123.035c-10.846 3.78-14.73 11.286-15.082 11.989A19.14 19.14 0 0 0 22.5 41.678a18.8 18.8 0 0 0 7.506-1.512m-21.78-4.834c.44-.738 5.714-9.457 15.628-12.674.246-.088.51-.158.755-.228a50 50 0 0 0-1.564-3.252C13.447 22.043 4.13 21.92 3.287 21.902c0 .194-.017.387-.017.58a19.2 19.2 0 0 0 4.957 12.85m-4.535-16.77c.862.018 8.772.053 17.772-2.337-3.182-5.66-6.627-10.407-7.12-11.092C8.948 7.664 4.94 12.62 3.692 18.563M18 3.832c.527.703 4.025 5.45 7.172 11.233 6.838-2.567 9.72-6.434 10.072-6.926A19.16 19.16 0 0 0 22.5 3.305a20 20 0 0 0-4.5.527m19.371 6.522c-.404.544-3.621 4.675-10.723 7.576.44.914.88 1.845 1.284 2.777.14.334.28.668.422.984 6.398-.808 12.744.493 13.377.616a19.12 19.12 0 0 0-4.36-11.953"/></g><defs><clipPath id="a"><path fill="#fff" d="M0 0h45v45H0z"/></clipPath></defs></svg>