<svg xmlns="http://www.w3.org/2000/svg" width="45" height="45" fill="none"><g clip-path="url(#a)"><path fill="#0A66C2" d="M34.453 0H10.547C4.722 0 0 4.722 0 10.547v23.906C0 40.278 4.722 45 10.547 45h23.906C40.278 45 45 40.278 45 34.453V10.547C45 4.722 40.278 0 34.453 0"/><path fill="#fff" d="M32.47 38.265h5.145a.703.703 0 0 0 .703-.703l.002-10.87c0-5.683-1.224-10.05-7.864-10.05a6.9 6.9 0 0 0-6.189 3.38.057.057 0 0 1-.093.006.06.06 0 0 1-.011-.034V17.87a.703.703 0 0 0-.703-.703h-4.883a.703.703 0 0 0-.703.703v19.69a.703.703 0 0 0 .703.704h5.145a.703.703 0 0 0 .703-.703v-9.734c0-2.752.522-5.417 3.934-5.417 3.364 0 3.407 3.15 3.407 5.596v9.556a.703.703 0 0 0 .703.703M6.68 10.482c0 2.085 1.717 3.8 3.802 3.8s3.801-1.716 3.801-3.801a3.82 3.82 0 0 0-3.801-3.801 3.82 3.82 0 0 0-3.802 3.802m1.223 27.783h5.152a.703.703 0 0 0 .703-.703V17.87a.703.703 0 0 0-.703-.703H7.903a.703.703 0 0 0-.703.703v19.692a.703.703 0 0 0 .703.703"/></g><defs><clipPath id="a"><path fill="#fff" d="M0 0h45v45H0z"/></clipPath></defs></svg>