<svg xmlns="http://www.w3.org/2000/svg" width="32" height="32" fill="none" viewBox="0 0 32 32">
  <g clip-path="url(#a)">
    <path fill="#0F0E0D" d="M15.983 7.69a2.76 2.76 0 0 0-2.667 1.96 7.332 7.332 0 0 0-.32 1.813c.034.854.123 1.703.267 2.546.2 1.334.493 2.667.733 4 .373 2.187.52 2.667 1.467 3.387a1.466 1.466 0 0 0 1.853-.36 5.96 5.96 0 0 0 1.013-2.04c.254-.733.48-1.48.694-2.227a82.2 82.2 0 0 0 .826-3.36c.166-.639.282-1.29.347-1.946a3.867 3.867 0 0 0-.213-1.52 4.308 4.308 0 0 0-4-2.254Zm2.52 5.44a73.4 73.4 0 0 1-.64 3.333 37.52 37.52 0 0 1-.56 2.186c-.12.61-.36 1.19-.707 1.707a.547.547 0 0 1-.68.187c-.533-.387-.507-.267-.92-2.667-.213-1.333-.333-2.667-.453-4a17.322 17.322 0 0 1-.094-2.373 5.068 5.068 0 0 1 .2-1.44c.227-.787 1.067-.92 1.867-.814a2.547 2.547 0 0 1 2.04 1.254c.1.291.145.598.133.906a11.997 11.997 0 0 1-.253 1.72h.067Zm-2.787 10.04a3.466 3.466 0 0 0-1.627.613 2.267 2.267 0 0 0-.786 2.733c.141.33.36.617.64.84a2.893 2.893 0 0 0 2.666.333 2.453 2.453 0 0 0 1.68-2.106 1.866 1.866 0 0 0-.12-.8 2.24 2.24 0 0 0-2.453-1.614Zm1.6 2.293a1.333 1.333 0 0 1-1.027.906 1.468 1.468 0 0 1-1.333-.213.76.76 0 0 1-.28-.613.96.96 0 0 1 .267-.747c.271-.282.611-.489.986-.6.774-.187 1.027-.12 1.334.813.058.144.077.3.053.454Z"/>
    <path fill="#C9541A" d="M31.89 26.183a36.012 36.012 0 0 0-1.187-4 24.403 24.403 0 0 0-1.733-4.2c-.987-1.987-2.2-3.84-3.24-5.76-.84-1.56-1.48-3.014-2.32-4.454a17.348 17.348 0 0 0-1.227-1.853 22.003 22.003 0 0 0-3.293-4.067 3.534 3.534 0 0 0-2.507-.88c-.404.05-.792.191-1.133.414a9.326 9.326 0 0 0-1.16.866 13.862 13.862 0 0 0-1.893 1.854c-.827.973-1.547 2.04-2.294 3.106l-2.666 3.587a55.997 55.997 0 0 0-2.974 5.333 75.995 75.995 0 0 0-2.44 5.587c-.36.947-.76 1.867-1.106 2.827-.974 2.8-1.08 3.8.466 4.666 1.267.54 2.624.838 4 .88l1.467.147c2.413.16 4.826.453 7.253.64 1.04.08 2.093.133 3.147.16h2.4c1.84 0 3.68-.173 5.52-.227 1.73.1 3.463-.108 5.12-.613a3.054 3.054 0 0 0 1.8-1.933 5.068 5.068 0 0 0 0-2.08Zm-1.454 1.653a1.987 1.987 0 0 1-1.56 1.253 17.87 17.87 0 0 1-4 .36c-1.84.08-3.68.24-5.52.32h-2.333c-1.022 0-2.049-.04-3.08-.12-2.453-.08-4.88-.32-7.293-.453l-1.4-.12a10.267 10.267 0 0 1-3.587-.707c-.653-.36-1.16-.786-.133-3.56.347-.933.773-1.853 1.147-2.773a65.17 65.17 0 0 1 2.506-5.453 53.329 53.329 0 0 1 3.027-5.16l2.706-3.427c.747-1.027 1.467-2.027 2.28-2.96a13.6 13.6 0 0 1 1.747-1.653c.326-.294.673-.56 1.04-.8a1.2 1.2 0 0 1 .547-.2 2.666 2.666 0 0 1 1.947 1.04 29.747 29.747 0 0 1 2.52 3.413c.55.729 1.039 1.498 1.466 2.307.667 1.24 1.227 2.506 1.933 3.813 1.04 1.907 2.227 3.8 3.227 5.76a22.88 22.88 0 0 1 1.694 3.947c.266.906.786 2.106 1.08 3.28a4.16 4.16 0 0 1 .04 1.893Z"/>
  </g>
  <defs>
    <clipPath id="a">
      <path fill="#fff" d="M0 0h32v32H0z"/>
    </clipPath>
  </defs>
</svg>
