<svg xmlns="http://www.w3.org/2000/svg" width="20" height="15" fill="none" viewBox="0 0 20 15">
  <path fill="#767676" d="M8.832 15.008a.942.942 0 0 1-.768-.352 1.187 1.187 0 0 1-.288-.768c0-.17.021-.32.064-.448.064-.128.181-.299.352-.512A7.813 7.813 0 0 1 10.4 11.04a25.07 25.07 0 0 1 2.624-1.312c.917-.405 1.76-.81 2.528-1.216.79-.427 1.408-.939 1.856-1.536l.096 1.376c-1.323-1.493-2.677-2.73-4.064-3.712a20.828 20.828 0 0 0-4.448-2.4c-.363-.15-.63-.33-.8-.544A1.11 1.11 0 0 1 8.224.32c.192-.213.448-.32.768-.32.17 0 .341.021.512.064.192.043.512.16.96.352 1.472.597 2.965 1.461 4.48 2.592a25.01 25.01 0 0 1 4.192 3.904.898.898 0 0 1 .224.352 1.207 1.207 0 0 1 0 .768.898.898 0 0 1-.224.352 6.875 6.875 0 0 1-1.984 1.664 33.91 33.91 0 0 1-2.496 1.216c-.875.363-1.728.79-2.56 1.28a8.447 8.447 0 0 0-2.208 1.888c-.17.213-.341.363-.512.448a1.2 1.2 0 0 1-.544.128Zm3.488-6.592c-.512 0-1.024-.032-1.536-.096a26.588 26.588 0 0 0-1.952-.16c-.79-.064-1.91-.096-3.36-.096-.832 0-1.472.021-1.92.064-.448.021-.832.053-1.152.096-.299.021-.693.032-1.184.032A1.47 1.47 0 0 1 .384 8 .912.912 0 0 1 0 7.232c0-.299.096-.565.288-.8a.976.976 0 0 1 .736-.416 39.397 39.397 0 0 1 2.24-.128 38.7 38.7 0 0 1 2.208-.064c1.152 0 2.304.043 3.456.128 1.152.064 2.25.16 3.296.288.49.064.832.224 1.024.48.213.235.32.501.32.8 0 .341-.139.576-.416.704a1.834 1.834 0 0 1-.832.192Z"/>
</svg>
