<svg xmlns="http://www.w3.org/2000/svg" width="56" height="56" fill="none" viewBox="0 0 56 56">
  <g clip-path="url(#a)">
    <path fill="#0F0E0D" d="M42.668 27.263a17.967 17.967 0 0 0-3.045-8.746 15.633 15.633 0 0 0-17-6.346 16.03 16.03 0 0 0-12.279 13.183 13.07 13.07 0 0 0 0 3.698 8.397 8.397 0 0 0 1.372 3.559c1.28 1.813 3.255 2.326 4.256 3.742.388.549.56 1.218.488 1.886a.63.63 0 0 0 .581.674h.653c1.666.46 3.356.809 5.068 1.045.733.094 1.47.14 2.21.14h2.207c1.7 0 3.374-.326 5.094-.56a.722.722 0 1 0-.07-1.44l-5.024-.28h-9.44c0-.77-.234-1.525-.675-2.16-.954-1.374-2.884-2.002-4.092-3.815a7 7 0 0 1-.955-2.93 11.2 11.2 0 0 1 .047-3.28 14.117 14.117 0 0 1 11.093-11.232 13.394 13.394 0 0 1 14.466 5.488 15.634 15.634 0 0 1 2.651 7.514 9.148 9.148 0 0 1-2.326 7.16c-.354.354-.726.688-1.116 1.002-1.047.812-2.093 1.465-3.117 2.324a3.25 3.25 0 0 0-.814 1.348c-.22.764-.39 1.541-.511 2.327-.024.536-.2 1.05-.514 1.488a7.466 7.466 0 0 1-5.208 1.79c-2.91-.09-5.78-.712-8.465-1.836.21-.374 0-1.512 0-2.21a.747.747 0 0 0-.768-.698.723.723 0 0 0-.674.768c0 .93-.163 2.116 0 2.627a1.004 1.004 0 0 0 .583.724 25.597 25.597 0 0 0 9.488 2.324 9.17 9.17 0 0 0 6.51-2.14 3.23 3.23 0 0 0 .816-1.302c.243-.76.43-1.538.558-2.326a2.54 2.54 0 0 1 .257-1.186c1.022-.884 2.044-1.465 3.068-2.326.482-.356.932-.751 1.349-1.185a11.294 11.294 0 0 0 3.278-8.813Z"/>
    <path fill="#C9541A" d="M22.623 32.61c.14-1.348.233-2.72.35-4.069.364.377.775.694 1.232.952.742.472 1.61.705 2.49.677a4.962 4.962 0 0 0 2.324-.653v1.93a25.849 25.849 0 0 0 .373 4.512c0 .49 1.162.79 1.396 0a24.014 24.014 0 0 1 0-4.51 46.42 46.42 0 0 1 1.372-6.048 1.027 1.027 0 0 0-.467-1.21 1.05 1.05 0 0 0-1.419.14 1.631 1.631 0 0 0-.233.374l-.255.509-.56.91c-.313.437-.717.8-1.185 1.066a2.661 2.661 0 0 1-1.393.42 2.334 2.334 0 0 1-1.465-.536 4.082 4.082 0 0 1-1.211-1.393l-.418-1.048c0-.21-.163-.721-.21-.861a1.166 1.166 0 0 0-.928-.464 1.072 1.072 0 0 0-1.048.303c-.744.79-.163 5.255-.49 10.442a6.47 6.47 0 0 1 0 1.512c0 .975 1.096 1.255 1.35.233a14.82 14.82 0 0 0 .395-3.187ZM7.228 14.426a6.997 6.997 0 0 0-.952-.955l-1.071-.79c-.861-.558-1.766-1-2.674-1.51a.747.747 0 0 0-1.024.163.723.723 0 0 0 .163.999c.7.72 1.372 1.442 2.093 2.14.303.303.607.604.908.86.303.257.63.535.954.789.806.549 1.58 1.139 2.324 1.769a.63.63 0 0 0 .884 0 .63.63 0 0 0 .117-.908 13.536 13.536 0 0 0-1.722-2.557Zm9.256-10.372c.117.43.265.848.443 1.255.164.397.325.791.532 1.186.49.907 1.072 1.722 1.582 2.65a.654.654 0 0 0 1.21-.44 27.995 27.995 0 0 0-.629-3.095c-.116-.417-.28-.835-.44-1.255a9.327 9.327 0 0 0-.49-1.185c-.6-.931-1.16-1.77-1.695-2.674a.723.723 0 0 0-.954-.444.723.723 0 0 0-.394.934c.28 1.092.51 2.09.835 3.068Zm17.372 6.116a.63.63 0 0 0 .697-.56 28.81 28.81 0 0 0 .861-2.581c.117-.511.164-1.045.234-1.556.02-.782.105-1.56.254-2.327a.766.766 0 0 0-1.325-.767c-.495.72-.893 1.502-1.185 2.326-.117.35-.21.706-.28 1.069a8.32 8.32 0 0 0 0 1.094c0 .882.186 1.673.256 2.464a.674.674 0 0 0 .488.838Zm20.001 7.324c-1.094 0-2.116-.163-3.187-.163h-1.372c-.444 0-.908.163-1.349.28-1.04.351-2.04.793-3 1.325a.651.651 0 1 0 .42 1.21c1.045-.162 2.023-.162 3.021-.232l1.255-.14 1.281-.234c1-.21 1.977-.464 3.022-.674a.77.77 0 0 0 .677-.789.724.724 0 0 0-.77-.583"/>
    <path fill="#0F0E0D" d="M30.135 49.005c-.773.048-1.548.048-2.324 0-.747 0-1.488-.117-2.326-.164l-2.326-.116c-1.534 0-3.046 0-4.65-.164a.653.653 0 0 0-.768.49.653.653 0 0 0 .49.77c1.303.518 2.649.922 4.022 1.207.599.108 1.203.17 1.813.186.607.047 1.211.047 1.813 0a25.141 25.141 0 0 0 4.443-.767.746.746 0 0 0 .607-.838.724.724 0 0 0-.794-.604Zm-2.508 4.699a18.652 18.652 0 0 1-2.326-.21 11.672 11.672 0 0 0-1.536 0c-.93 0-1.792.233-2.697.327a.63.63 0 0 0-.7.557.7.7 0 0 0 .583.721 23.06 23.06 0 0 0 2.394.766c.347.062.696.1 1.048.116.356.024.712.024 1.069 0A9.8 9.8 0 0 0 28 55.123a.725.725 0 1 0-.303-1.42h-.07Z"/>
  </g>
  <defs>
    <clipPath id="a">
      <path fill="#fff" d="M0 0h56v56H0z"/>
    </clipPath>
  </defs>
</svg>
