<svg xmlns="http://www.w3.org/2000/svg" width="24" height="24" fill="none" viewBox="0 0 24 24">
  <g clip-path="url(#a)">
    <path fill="#0F0E0D" fill-rule="evenodd" d="M23.875 2.578a.85.85 0 0 0-.76-.58 1.4 1.4 0 0 0-.899.42 32.992 32.992 0 0 0-3.366 3.996c-2.498 3.317-5.515 7.733-6.863 9.77l-.49.75a18.804 18.804 0 0 0-4.216-1 5 5 0 0 0-1.998.07.702.702 0 0 0-.39.39 1.34 1.34 0 0 0 .32 1.11 13.7 13.7 0 0 0 2.328 2.246c1.898 1.528 4.296 2.997 5.155 3.107a.339.339 0 0 0 .302-.553.35.35 0 0 0-.232-.127A13.2 13.2 0 0 1 8.77 19.74a16.697 16.697 0 0 1-2.787-2.618 2.984 2.984 0 0 1-.21-.32c.078-.026.158-.043.24-.05 1.013.039 2.018.193 2.997.46.83.19 1.64.46 2.417.81a.48.48 0 0 0 .55-.04.45.45 0 0 0 .19-.22v-.05c.11-.17.33-.51.66-1 1.367-1.997 4.414-6.353 6.912-9.64 1.12-1.478 2.118-2.747 2.817-3.476.09-.094.19-.177.3-.25-.05.28-.17.65-.26 1a50.494 50.494 0 0 1-3.217 7.801 73.606 73.606 0 0 1-5.225 9.241.302.302 0 0 0 .06.42.31.31 0 0 0 .43-.06 85.394 85.394 0 0 0 8.322-15.035c.434-.962.77-1.966 1-2.997.07-.38.038-.774-.09-1.139" clip-rule="evenodd"/>
    <path fill="#C9541A" fill-rule="evenodd" d="M9.09 14.057c1.258-1.73 2.996-3.996 4.625-6.094l1.998-2.598c.999-1.228 1.758-2.267 2.317-2.867.1-.1.19-.22.27-.31.01.05.01.1 0 .15a5.803 5.803 0 0 1-.22 1.28c-.11.619-.36 1.378-.66 2.177a.3.3 0 1 0 .55.2c.56-1.142.975-2.35 1.229-3.597.08-.82-.27-1.208-.73-1.258a1.14 1.14 0 0 0-.76.31 23.002 23.002 0 0 0-2.915 3.196 97.8 97.8 0 0 0-1.998 2.647c-1.57 2.178-3.127 4.576-4.296 6.374a.35.35 0 0 0 .57.39h.02Zm-2.448 7.922c-.56-.11-1.598-1.3-2.657-2.658-.43-.54-.85-1.13-1.25-1.678-.4-.55-.84-1.21-1.148-1.728a6.3 6.3 0 0 1-.55-1v-.05a9.004 9.004 0 0 1 2.678.36.302.302 0 0 0 .31-.507.302.302 0 0 0-.1-.062 9.904 9.904 0 0 0-2.767-.67 1.601 1.601 0 0 0-.86.11.55.55 0 0 0-.24.26 2.1 2.1 0 0 0 .26 1.599c.43.88.949 1.713 1.549 2.487 1.578 2.088 3.776 4.146 4.655 4.276a.338.338 0 0 0 .4-.27.34.34 0 0 0-.28-.47Z" clip-rule="evenodd"/>
  </g>
  <defs>
    <clipPath id="a">
      <path fill="#fff" d="M0 0h24v24H0z"/>
    </clipPath>
  </defs>
</svg>
