<svg xmlns="http://www.w3.org/2000/svg" width="40" height="40" fill="none" viewBox="0 0 40 40">
  <g clip-path="url(#a)">
    <path fill="#0E0E0E" fill-rule="evenodd" d="M35.316 22.365c0-3.245-.166-6.873-.466-9.65a12.332 12.332 0 0 0-.982-4.262 2.717 2.717 0 0 0-1.198-.998 11.64 11.64 0 0 0-2.929-.848.6.6 0 0 0-.666.466.583.583 0 0 0 .483.665c.771.135 1.52.346 2.247.634.4.123.755.366 1.017.698a11.64 11.64 0 0 1 .731 3.76c.25 2.745.267 6.34.267 9.55 0 3.213.083 6.342 0 9.12a37.3 37.3 0 0 1-.25 4.727c0 .2-.184.383-.2.5a42.651 42.651 0 0 1-10.383 1.23c-4.943.206-9.894.122-14.827-.25-.517 0-1.017-.3-1.198-.25a4.998 4.998 0 0 1-.167-.765c0-.584-.117-1.182-.15-1.564-.133-1.565-.483-8.853-.732-15.226-.2-5.092-.366-9.6-.316-10.117v-.667a3.667 3.667 0 0 1 1.865-.665 18.262 18.262 0 0 1 2.063-.083 8.725 8.725 0 0 0-.283 1.083 3.3 3.3 0 0 0 0 .782c0 .548.15 1.263.15 1.263a.917.917 0 0 0 .865.784s4.675.1 8.984.1c2.414 0 4.727 0 6.026-.134a.5.5 0 0 0 .433-.55.482.482 0 0 0-.517-.466c-1.017 0-2.646 0-4.46-.117a376.03 376.03 0 0 1-9.616-.598V9.85c.066-.302.149-.601.248-.897.083-.245.194-.479.333-.7a3 3 0 0 1 1.147-.948 13.336 13.336 0 0 1 2.63-.798l.533-.117a1 1 0 0 0 .682-.417c.09-.235.09-.496 0-.731l-.233-1.264a1.767 1.767 0 0 1 .616-1.316 4.39 4.39 0 0 1 1.664-.83c.309-.092.638-.092.948 0 .337.112.645.3.898.55.33.35.565.778.683 1.246.084.551.117 1.106.1 1.664a.717.717 0 0 0 .649.733 9.337 9.337 0 0 1 1.83.367 5.75 5.75 0 0 1 1.663.746c.4.275.688.684.817 1.15.197.562.313 1.15.35 1.747a.568.568 0 0 0 1.1.23.566.566 0 0 0 .03-.23 6.832 6.832 0 0 0-.334-2.447 3.167 3.167 0 0 0-1.113-1.465 8.333 8.333 0 0 0-1.965-.998 10 10 0 0 0-1.413-.367c.031-.61-.03-1.22-.183-1.811A4.166 4.166 0 0 0 20.357.3a3.508 3.508 0 0 0-2.014-.25 5.667 5.667 0 0 0-2.861 1.665 3.333 3.333 0 0 0-.884 2.312 5.373 5.373 0 0 0 0 .733c-.936.182-1.847.478-2.712.882-.74.344-1.38.87-1.863 1.53a.333.333 0 0 1 0 .133 21.668 21.668 0 0 0-3.161.15 4.657 4.657 0 0 0-1.83.75c-.183.135-.322.32-.4.532-.095.303-.15.614-.167.933v10.267c.1 6.421.267 13.743.367 15.325.01.819.1 1.628.266 2.428.102.482.325.928.65 1.298a4.315 4.315 0 0 0 1.895.567c4.193.373 8.405.512 12.613.415 5.659-.117 11.45-.617 14.045-1.663.294-.12.532-.346.667-.634.342-.983.51-2.02.498-3.061.184-3.095-.05-7.937-.15-12.247Z" clip-rule="evenodd"/>
    <path fill="#C9541A" fill-rule="evenodd" d="M23.419 26.058a.784.784 0 0 0-1.215.5 33.059 33.059 0 0 1-1.048 3.445 12 12 0 0 1-1.564 3.045v.134h-3.578a25 25 0 0 1-3.81-.234 6.675 6.675 0 0 0-.833-.383c-.282-1.547-.499-3.76-.715-6.14-.134-1.415-.3-3.078-.417-4.51a66.675 66.675 0 0 1-.215-7.553.534.534 0 0 0-.467-.55.516.516 0 0 0-.548.466 73.334 73.334 0 0 0-.267 11.532 51.17 51.17 0 0 0 .917 7.703 1.3 1.3 0 0 0 .782.85c.466.15.943.261 1.43.334 1.06.086 2.119.086 3.178 0 7.022-.267 6.073-.234 7.138-.434a16.891 16.891 0 0 0 1.665-.366c1.44-.394 2.8-1.03 4.027-1.88a5.647 5.647 0 0 0 1.997-2.414 16 16 0 0 0 1.181-6.988V20.65c0-.648-.133-1.33-.216-1.963-.234-1.88-.55-3.477-.734-4.509a.568.568 0 0 0-.615-.516.548.548 0 0 0-.516.616v4.559c0 .616 0 1.266.083 1.93.083.666.083 1.283.15 1.931.5 4.675.2 4.409-.465 6.405a3.471 3.471 0 0 1-1.663 1.665 11.499 11.499 0 0 1-3.645 1.332l-1.165.2c.15-.333.283-.672.4-1.017a23.72 23.72 0 0 0 .948-3.526c.61.206 1.253.296 1.897.266a6.333 6.333 0 0 0 2.83-.75.566.566 0 0 0 .266-.75.568.568 0 0 0-.766-.281 4.98 4.98 0 0 1-2.314.45 3.734 3.734 0 0 1-2.113-.634Z" clip-rule="evenodd"/>
    <path fill="#C9541A" fill-rule="evenodd" d="M25.002 17.073a32.324 32.324 0 0 0-4.809-.9 21.652 21.652 0 0 0-3.328 0l-2.447.35-1.065.167c-.65 0-.616.383-.45.683a.266.266 0 0 0 .284.334l1.116.116 2.612.184h5.457c.916 0 1.665 0 2.363.115a.567.567 0 0 0 .65-.484.566.566 0 0 0-.383-.565Zm-3.329 6.805c2.014-.133 3.644-.366 3.777-.316a.583.583 0 1 0 .417-1.08 33.35 33.35 0 0 0-4.194-.417H20.01c-.533 0-1.15 0-1.665.083-1.663.15-3.128.417-3.993.567a.517.517 0 0 0-.484.532.5.5 0 0 0 .35.446c.067.02.134.027.2.02.882 0 2.347.2 3.977.284h1.663l1.615-.119Z" clip-rule="evenodd"/>
  </g>
  <defs>
    <clipPath id="a">
      <path fill="#fff" d="M0 0h40v40H0z"/>
    </clipPath>
  </defs>
</svg>
