<svg xmlns="http://www.w3.org/2000/svg" width="40" height="40" fill="none" viewBox="0 0 40 40">
  <g clip-path="url(#a)">
    <path fill="#0E0E0E" fill-rule="evenodd" d="M33.097 29.09c.342-2.408-2.05-4.283-4.308-3.375l-.115.05a14.333 14.333 0 0 0-4.175 3.025c-.732.617-3.21 2.462-3.325 2.512a10.331 10.331 0 0 1-3.942-.832c0-.167.117-.317.317-.583 2.045-2.842 4.705-3.84 2.827-6.65a2.383 2.383 0 0 0-2.662-.884c-3.027.467-6.037 3.51-8.915 4.642-.133 0-.267 0-.3.083-.482-3.326-3.575-2.428-4.755-2.445-1.18-.016-3.825-.2-3.327.947a.533.533 0 0 0 .684.3 7.501 7.501 0 0 1 2.576.083c1.664.184 2.827-.283 3.01 1.199v9.745c0 1.163-.1 1.463-1.945 1.663-1.11.08-2.227.03-3.326-.15a.6.6 0 0 0-.217 1.182c1.169.26 2.362.393 3.56.398 1.662 0 2.827-.267 3.408-1.663l3.909-.865c6.186 1.663 14.653 1.93 20.075-1.514 2.078-1.346 4.373-3.01 3.226-5.221a2.649 2.649 0 0 0-2.28-1.647Zm-7.566 1.132c1.663-1.084 3.908-3.327 5.19-2.845a1.566 1.566 0 0 1 1.013 1.846c-3.227.715-4.79 1.397-7.667 1.78a27.384 27.384 0 0 0 1.464-.781Zm5.555 4.055c-7.084 4.873-18.677 1.83-19.127 1.946-3.842.965-3.508.965-3.492.815.242-2.888.28-5.788.117-8.683 2.212-.115 9.43-6.135 10.527-4.322 1.098 1.812-.899 2.179-2.944 4.822-1.048 1.363-.798 2.278-.166 2.927a7.166 7.166 0 0 0 3.126 1.265c3.909.981 10.562-1.232 12.009-1.514 1.146-.25 1.961-.783 2.461.167.5.947-1.746 2.062-2.511 2.577ZM18.164 18.08a.6.6 0 0 0 0-1.197c-1.1-.05-6.487-4.458-7.318-5.156-.832-.699-.834-.217-.25-.799.583-.583 1.296-1.046 1.546-1.263a45 45 0 0 1 6.437-5.157.537.537 0 0 0-.533-.93 42.331 42.331 0 0 0-9.695 6.735 1.75 1.75 0 0 0-.284 1.664c.45.898 8.434 6.17 10.097 6.103Z" clip-rule="evenodd"/>
    <path fill="#C9541A" fill-rule="evenodd" d="M21.224 20.225c1.844-5.92 5.835-11.058 6.95-19.508a.533.533 0 1 0-1.03-.2c-1.33 5.323-5.471 11.643-7.083 19.41a.6.6 0 1 0 1.162.3" clip-rule="evenodd"/>
    <path fill="#0E0E0E" fill-rule="evenodd" d="M31.302 3.943a.534.534 0 1 0-.664.832c.715.633 6.319 5.605 6.817 6.403-1.812 2.212-8.613 6.32-8.58 6.47a.616.616 0 0 0 .267 1.197c.631-.1 9.661-4.99 10.46-7.383.483-1.532-2.977-3.694-8.3-7.517" clip-rule="evenodd"/>
  </g>
  <defs>
    <clipPath id="a">
      <path fill="#fff" d="M0 0h40v40H0z"/>
    </clipPath>
  </defs>
</svg>
