<svg xmlns="http://www.w3.org/2000/svg" width="32" height="32" fill="none" viewBox="0 0 32 32">
  <g clip-path="url(#a)">
    <path fill="#C9541A" fill-rule="evenodd" d="M7.275 13.85a20 20 0 0 0 8.535 1.173 27.647 27.647 0 0 0 6.4-.547 11.067 11.067 0 0 0 2.987-.987.458.458 0 0 0 .08-.759.459.459 0 0 0-.507-.054c-2.32 1.16-8 .84-8.96.813a29.848 29.848 0 0 1-6.48-.266 7.466 7.466 0 0 1-3.107-1.054c-.706 0-.706.654 0 1.147.44.253.147.12 1.054.533" clip-rule="evenodd"/>
    <path fill="#0F0E0D" fill-rule="evenodd" d="M27.758 7.996a.453.453 0 0 0-.907 0c.107 9.867.187 10.387-.133 11.68a3.999 3.999 0 0 1-2.427 2.987 25.6 25.6 0 0 1-8.415 1.826 19.73 19.73 0 0 1-5.733-.56 14.932 14.932 0 0 1-3.76-1.266c-1.507-.974-1.2-13.96-1.147-16a10.733 10.733 0 0 0 6.667 2.826 39.6 39.6 0 0 0 11.667-.933c2.853-.84 5.48-2.667 3.706-5.067a5.68 5.68 0 0 0-4-2.121.467.467 0 0 0 0 .92 4.534 4.534 0 0 1 3.134 1.707c2.668 4-13.414 5.12-17.92 2.973-1.627-.76-3.24-1.64-2-2.973 3.826-2.667 8.786-2.267 13.506-2.12 1.574.106 1.907.226 2-.214.094-.44-.493-.533-.986-.586-.16 0-5.334-.427-7.72-.347a17.2 17.2 0 0 0-5.44.933c-1.52.627-3.507 1.64-3.32 3.44-.334.907-.094 5.96-.16 6.934-.067.973-.107 2.814-.08 4.454 0 3.454 0 5.667 1.6 7.187a8 8 0 0 0 3.88 1.653c1.608.408 3.26.623 4.92.642a6.533 6.533 0 0 0 .226 3.213c.08.267.134.173-.173.2l-4.813.52a.413.413 0 0 0 0 .813c3.968.304 7.954.287 11.92-.053a.466.466 0 0 0 0-.92c-2.174-.12-3.627-.32-5.747-.32-.067-.427-.093 0 .08-1.333a4.398 4.398 0 0 0-.28-1.614c-.16-.533-.2-.44 0-.44a25.597 25.597 0 0 0 8.96-2.133 5.333 5.333 0 0 0 3.136-3.907c.28-1.6.132-2.666-.241-12.001Z" clip-rule="evenodd"/>
    <path fill="#C9541A" fill-rule="evenodd" d="M19.464 20.797c2.23-.217 4.38-.948 6.28-2.133a.46.46 0 0 0-.466-.787 13.334 13.334 0 0 1-5.907 1.587c-6.76.293-9.333-.2-13.093-1.653-.627-.147-.64.506 0 .96 4.92 2.466 7.733 2.466 13.186 2.026Z" clip-rule="evenodd"/>
    <path fill="#0F0E0D" fill-rule="evenodd" d="M6.995 29.797c-.8 0-2.533.32-1.92.854 2.08 1.746 5.4-.667 1.92-.854Zm-4.946 0c-.8 0-2.534.32-1.92.854 2.08 1.746 5.4-.667 1.92-.854Zm28.43-.373c-.8 0-2.534.32-1.92.84 2.106 1.733 5.4-.653 1.92-.84Zm-4.947 0c-.8 0-2.534.32-1.92.84 2.08 1.733 5.4-.653 1.92-.84Z" clip-rule="evenodd"/>
  </g>
  <defs>
    <clipPath id="a">
      <path fill="#fff" d="M0 0h32v32H0z"/>
    </clipPath>
  </defs>
</svg>
