<svg xmlns="http://www.w3.org/2000/svg" width="45" height="45" fill="none"><path fill="#367AF2" d="M3.219 13.666v17.271a6.027 6.027 0 0 0 6.027 6.027h26.511a6.026 6.026 0 0 0 6.027-6.027V13.661l-18.736 9.598a1.2 1.2 0 0 1-1.1 0z"/><path fill="url(#a)" d="M3.219 13.666v17.271a6.027 6.027 0 0 0 6.027 6.027h26.511a6.026 6.026 0 0 0 6.027-6.027V13.661l-18.736 9.598a1.2 1.2 0 0 1-1.1 0z"/><path fill="url(#b)" d="M3.219 13.666v17.271a6.027 6.027 0 0 0 6.027 6.027h26.511a6.026 6.026 0 0 0 6.027-6.027V13.661l-18.736 9.598a1.2 1.2 0 0 1-1.1 0z"/><path fill="url(#c)" fill-opacity=".75" d="M3.219 13.666v17.271a6.027 6.027 0 0 0 6.027 6.027h26.511a6.026 6.026 0 0 0 6.027-6.027V13.661l-18.736 9.598a1.2 1.2 0 0 1-1.1 0z"/><path fill="url(#d)" fill-opacity=".7" d="M3.219 13.666v17.271a6.027 6.027 0 0 0 6.027 6.027h26.511a6.026 6.026 0 0 0 6.027-6.027V13.661l-18.736 9.598a1.2 1.2 0 0 1-1.1 0z"/><path fill="url(#e)" d="M3.219 12.456a6.027 6.027 0 0 1 6.027-6.027h26.511a6.026 6.026 0 0 1 6.027 6.027v1.928l-18.736 9.598a1.2 1.2 0 0 1-1.1 0l-18.73-9.593z"/><defs><linearGradient id="a" x1="28.123" x2="37.232" y1="16.875" y2="38.091" gradientUnits="userSpaceOnUse"><stop offset=".199" stop-color="#0094F0" stop-opacity="0"/><stop offset=".431" stop-color="#0094F0"/></linearGradient><linearGradient id="b" x1="16.992" x2="7.311" y1="16.113" y2="38.819" gradientUnits="userSpaceOnUse"><stop offset=".191" stop-color="#0094F0" stop-opacity="0"/><stop offset=".431" stop-color="#0094F0"/></linearGradient><linearGradient id="c" x1="32.67" x2="34.238" y1="27.564" y2="39.126" gradientUnits="userSpaceOnUse"><stop stop-color="#2764E7" stop-opacity="0"/><stop offset="1" stop-color="#2764E7"/></linearGradient><linearGradient id="d" x1="28.47" x2="31.331" y1="16.523" y2="40.051" gradientUnits="userSpaceOnUse"><stop offset=".533" stop-color="#FF6CE8" stop-opacity="0"/><stop offset="1" stop-color="#FF6CE8"/></linearGradient><linearGradient id="e" x1="14.676" x2="26.479" y1=".892" y2="31.804" gradientUnits="userSpaceOnUse"><stop stop-color="#6CE0FF"/><stop offset=".462" stop-color="#29C3FF"/><stop offset="1" stop-color="#4894FE"/></linearGradient></defs></svg>