<svg xmlns="http://www.w3.org/2000/svg" width="32" height="32" fill="none" viewBox="0 0 32 32">
  <g clip-path="url(#a)">
    <path fill="#C9541A" d="M14.364 29.464a8.533 8.533 0 0 1 4.114-3.448c1.173-.564 2.4-1.01 3.661-1.332a15.984 15.984 0 0 1 4.54-.798c.587-.094.534-.866-.16-.92a13.198 13.198 0 0 0-4.606.214c-.875.17-1.727.418-2.556.747-.839.33-1.642.745-2.396 1.237a8.84 8.84 0 0 0-3.702 4.14c-.187.694.825.64 1.105.16Z"/>
    <path fill="#0F0E0D" d="M24.617 19a27.468 27.468 0 0 0-8.52-1.917v-.067a61.324 61.324 0 0 0 3.154-7.99 9.24 9.24 0 0 0-.08-6.522c-.612-1.253-.267-1.253-.866-1.799A3.147 3.147 0 0 0 16.03.013c-.953.077-1.892.274-2.796.587a24 24 0 0 0-4.98 2.516 33.333 33.333 0 0 0-4.446 3.235.467.467 0 0 0 0 .64.453.453 0 0 0 .64 0A33.333 33.333 0 0 1 8.84 4.1a22.268 22.268 0 0 1 4.767-2.157 10.134 10.134 0 0 1 2.502-.44 1.72 1.72 0 0 1 1.172.333c.08 0 0 .174 0 .267-.054.17-.13.33-.226.48-.207.303-.44.588-.694.852a20.4 20.4 0 0 1-4.446 2.556C8.6 7.59 4.792 9.187 4.619 9.227c-.268.058-.54.103-.812.133H3.34c-.107 0 0-.307.107-.64a.4.4 0 0 0-.353-.568.4.4 0 0 0-.38.236 2.387 2.387 0 0 0 0 2.21 10.266 10.266 0 0 0 4.115 4.474 25.199 25.199 0 0 0 7.603 3.036 32.131 32.131 0 0 0-3.316 8.534c-.413 2.064-.227 3.848.68 4.713a3.173 3.173 0 0 0 2.37.613 24.534 24.534 0 0 0 7.482-2.33 30.67 30.67 0 0 0 6.656-3.995c.96-.866 1.332-1.704 1.24-2.236-.293-1.624-2.157-3.25-4.927-4.407Zm-17.23-4.78a9.52 9.52 0 0 1-3.875-3.995c.409.048.818.048 1.227 0a82.676 82.676 0 0 0 9.026-3.554 14.667 14.667 0 0 0 3.702-2.21 6.169 6.169 0 0 0 1-1.332 7.098 7.098 0 0 1 .225 4.14 43.598 43.598 0 0 1-3.568 9.134c-.093.213-.173.4-.227.56a24.275 24.275 0 0 1-7.51-2.743ZM27.04 24.684a34.132 34.132 0 0 1-7.75 4.288 21.597 21.597 0 0 1-4.885 1.45 2.32 2.32 0 0 1-1.585-.146c-.427-.24-.467-.892-.493-1.557.01-1.062.158-2.118.44-3.142a33.34 33.34 0 0 1 2.662-6.937l.2-.36c2.887.207 5.72.88 8.388 1.997a7.506 7.506 0 0 1 3.848 2.877c.147.12.254.653-.826 1.53"/>
  </g>
  <defs>
    <clipPath id="a">
      <path fill="#fff" d="M0 0h32v32H0z"/>
    </clipPath>
  </defs>
</svg>
