<svg xmlns="http://www.w3.org/2000/svg" width="81" height="90" fill="none"><path fill="#fefefe" d="M65.0097 2.3868c.4473-.0945 1.109.2092 1.5108.406 1.4901-.2848 2.6209-.12 4.0974-.0917 1.7873.0395 3.7617-.1764 5.5202.1615.926.178 1.696 1.4589 1.6306 2.4942-.0791 1.2507-.1471 2.4906-.2432 3.7384-.0958 1.243.068 2.5292-.1649 3.7472-.1013.5416-.4558.9481-.7904 1.3278.0237.883-.072 2.1894-.0972 3.1175.1671.1536.3549.3172.5091.4846.5947.645.536 1.8528.5563 2.6769a133 133 0 0 1 .0244 3.6781c.2259.3151.5397.8087.5608 1.217.0673 1.3019-.0825 2.7124-.1168 4.025-.0241.9044-.034 1.828-.1143 2.7162-.0162.1774-.2787.7501-.3833.8865-.5227.6833-1.0683.85-1.8091.9691.0521 1.5419.2609 3.1215.4827 4.6438.1542 1.0571.7135 2.6237.4314 3.635 2.5585 1.0759 1.8406 2.8028 1.4336 5.1106a98 98 0 0 0-.6691 4.2581 270 270 0 0 0-.8635 6.4313 174 174 0 0 0-.2762 2.3986c-.1401 1.2934-.0828 2.2665-1.0447 3.1743a6.6 6.6 0 0 1 .3557.256c1.7622 1.3492 1.5855 3.6434 1.2147 5.7431-.21 1.1894-.3948 2.3709-1.0247 3.3824.8861 1.0193 1.4025 1.8966 1.791 3.2768.5878 2.0889.6029 5.0206-.3083 6.9902-.7478 1.5845-2.0328 2.7686-3.568 3.2871-.8273.2877-1.6044.3224-2.4587.3241-2.6956.0049-5.2795-.9545-7.6594-2.3293-.071.7807-.2655 1.4578-.759 2.0415-1.0036 1.1878-2.5946.9079-3.9166.841l-3.0826-.1557-3.9943-.2241c-.9045-.0508-1.9551-.0599-2.8334-.2762-.4972-.1226-.8717-.5136-1.2229-.9004-3.2246 1.1464-7.0251 1.6361-10.4024 1.4391-1.6285-.0953-3.2652-.1696-4.0322-2.0146-1.0811.8153-2.718 1.4738-4.0111 1.6241-2.8079.3266-5.0355-.3319-7.2408-2.2756-1.32 4.5689-5.5165 4.2791-8.6982 2.3416l-.3094-.2171c-.5127.6349-1.0222.9958-1.7784 1.1576-1.773.379-5.1097-.6511-6.5748-1.7822-1.598-1.2336-2.4776-3.1401-2.8249-5.2394-.564-3.4097-.0526-9.4125 1.7168-12.2822-1.3327-.8492-1.4185-2.2446-1.7033-3.7985-.6952-3.7945-.7367-7.7124-.6815-11.5708.015-1.0478.038-1.9544.3373-2.9527-.1665-.3592-.3083-.696-.311-1.1122-.0048-.7918.0713-1.6175.1281-2.4073q.1447-1.9377.2599-3.8778l.4786-7.7001c.0837-1.3137.1546-3.1155.3096-4.3906.0814-.6307.388-1.1977.85-1.5716.6772-.5519 1.524-.5441 2.3188-.4116-4.243-5.9842-4.293-16.5298 1.0636-21.6994 1.9157-1.8489 4.1274-2.6288 6.6355-2.4424 3.0945.2298 5.4464 2.1115 7.3866 4.6689 1.6692-3.4011 4.1802-5.9104 7.7722-6.2375 4.5821-.4171 8.3655 2.9735 10.3477 7.3538.593-2.1255 1.7618-4.6775 3.68-5.6705 1.0174-.5268 1.953-.2836 2.9537.165 1.072-.4891 3.2593-.7612 4.3875-.5828.8447-.6521 1.8742-.7418 2.8605-.9762 1.0299-.2447 1.9297-.3963 2.937.0357 1.1504-.4687 2.0228-.2079 3.2113-.203.6543.0026 1.421-.0442 2.0768-.0932 1.4114-.1054 2.7562-.493 4.1384-.739"/><path fill="#08393c" d="M65.2107 3.1866c.3959.055.8033.2737 1.1726.4495.6746-.105 1.1644-.1694 1.8435-.2079.682-.0387 1.1822.1107 1.7984.1083l3.5588-.024c.7408.0027 1.5297-.0235 2.2572.128.5404.1066 1.1481.8502 1.1104 1.486-.146 2.4742-.2805 4.9341-.3478 7.4146-.0141.5197-.8355 1.1321-.8425 1.4783-.0229 1.1194-.1031 2.5759-.1113 3.663 1.0876.886 1.0466 1.1037 1.0691 2.6102.0037.25.0096.5276.0126.7793q.0099 1.6747.0358 3.3491c.1693.2211.4636.5821.5057.8747.003.0183.0045.0367.0067.0551.1427 1.1632-.0429 2.6509-.088 3.8509-.0314.8484.0089 1.7552-.1064 2.5918-.2363 1.7145-1.743 1.023-2.1648 1.4988-.2824.3187.434 5.3252.5892 6.1898.1043.5812.3094 1.1757.3708 1.7599.0551.5234-.2728 1.0159-.2162 1.5018.1293.2362.8946.3402 1.2387.5536 1.3049.8092.5375 2.5985.3179 3.9571a279 279 0 0 0-1.4402 9.9958 158 158 0 0 0-.3501 3.0142c-.0613.5805-.1227 1.3335-.2325 1.8954-.1401.7175-1.1866 1.1142-1.428 1.5675.0321.1862 1.1371.63 1.4587.9248 1.7733 1.6287.6591 5.1449.1763 7.207-.2203.9397-1.1304.7398-.1545 1.8075.2595.2848.4931.5978.6979.9338 1.4791 2.4692 1.6805 6.9717-.0366 9.27-2.7118 3.6297-7.984 2.0308-11.2644.3406-.4821-.2485-1.1271-.798-1.6132-.8273-.3424-.0207-.2777 1.3174-.3775 1.5605-.475 2.0733-2.1651 1.7385-3.7177 1.651l-2.7492-.147a203 203 0 0 1-4.6985-.2555c-.6417-.0376-1.5925-.0087-2.1943-.1776-.4791-.1346-.7467-.5548-1.1149-.8748-.1475-.128-.258-.1519-.441-.1296-.5649.0677-1.1637.3608-1.7197.5189-.9508.2709-1.9308.4637-2.9015.6226-1.7282.2828-7.0264.7774-8.4493-.2952-.6453-.4863-.5252-1.3194-.9835-1.7005-.2551-.0512-.8949.469-1.157.6399-.977.6379-1.9787 1.0548-3.1009 1.2538-2.1931.4021-4.4405-.1527-6.2776-1.5494-.4081-.3129-.8151-.8087-1.2258-1.1328-.1522-.1197-.1771-.1057-.3281-.0698-.2053.1689-.3113.9054-.3934 1.2146-.9627 3.6215-4.5178 3.4439-7.0156 1.9911-.364-.2117-.9162-.6378-1.3064-.8211-.4416.27-.6387.8955-1.1311 1.177-1.0828.6193-3.1042.0797-4.2182-.2246-1.608-.4396-3.2235-1.5374-4.0389-3.2358-1.7581-3.8828-1.0654-8.8469.0379-12.8403.2346-.8497.964-1.6126 1.1072-2.1856-.1452-.341-1.0936-.5541-1.3879-1.2889-.2714-.6783-.3913-1.3921-.5222-2.103-.5905-3.2083-.7576-6.3801-.7454-9.6441.0046-1.2303-.0064-2.4977.097-3.7271.0374-.4447.1774-.9232.2914-1.3546-.1037-.3872-.3453-.7534-.345-1.1696.0005-.6931.0661-1.4135.1168-2.1042q.1293-1.719.2412-3.4398l.5628-9.169c.0561-.866.116-3.1238.3298-3.8107.5615-1.8043 2.7278-.5433 3.554-.9659.039-.0512.13-.183.0877-.2503-.5736-.9126-1.2546-1.7561-1.7418-2.7414-1.2242-2.528-1.866-5.3564-1.8674-8.2305-.0377-5.7617 2.648-12.0591 8.3106-12.8615 3.7084-.5254 6.7694 1.8669 8.8776 5.0422.0709.107.2163.126.3243.1233.2206-.1012.7617-1.3844.9289-1.6956 1.2507-2.3278 3.1292-4.2048 5.5288-4.8643C31.44 2.9754 35.3054 5.8002 37.4351 9.626c.241.4328 1.1722 2.6488 1.3748 2.76.0436.0239.105.0124.1475-.0082.3279-.1575.4872-1.2845.5833-1.6608.4543-1.7813 1.5304-4.155 3.0364-5.0703 1.1009-.6688 1.7467-.1844 2.8106.1577.3238-.0869.6355-.2343.9597-.3268.6798-.1943 1.4199-.2954 2.12-.3476.4872-.0364 1.0125.0967 1.4857.0151.2636-.0455.4709-.2345.7005-.3718.5209-.3113 3.2708-.872 3.9177-.8037.3542.0374.6739.2253 1.0122.3383.6254-.2143.9641-.4014 1.6609-.346 1.245.099 2.4782.0528 3.7221-.0282 1.4499-.0945 2.8236-.5048 4.2442-.7472"/><path fill="#bdfd9e" d="M54.0573 5.6406c.1172-.025.1298-.0205.2506-.0142.2196.234-.014.9516-.0713 1.2787a66 66 0 0 0-.3408 2.182c-.6991 5.3287-1.0222 10.5094-.6266 15.8897.0521.7094.1519 1.4055.1848 2.1191-.6173.1156-1.8332.0026-2.4734-.0766-.2203-.6308-.3793-2.311-.5316-3.0784-.2044-1.0729-.4639-2.1379-.7038-3.2021-.0803-.3569-.2791-1.5646-.5989-1.6536-.1516.157-.0983.5752-.122.839-.1434 1.6121-.0185 3.2988.0802 4.9111.0588.9581.2758 2.0396.2152 2.9891-.8506.1013-2.4587-.0257-3.3411-.0998l.393-1.4666c1.1145-4.9545 1.0443-9.9607.7408-15.0205a35.5 35.5 0 0 0-.2185-2.2593c-.0606-.4611-.2247-1.4194-.2011-1.8515.034-.0423.0337-.0465.0836-.082.1896-.1357 2.2516-.3852 2.466-.2736.1379.0718.1641.3528.1908.5064.129.7495.1878 1.5201.2865 2.2758a82 82 0 0 0 .7618 4.8211c.0836.4517.4595 2.7329.7519 2.9039l.0706-.0365c.061-.1343.0854-.2571.0902-.4089.1113-3.5256-.0794-7.0883.0292-10.6095.4148-.1543 2.1626-.5143 2.6339-.5828"/><path fill="#bdfd9e" fill-rule="evenodd" d="M43.605 6.995c1.1678-.0124 1.6646 1.2007 1.957 2.2725.2162.7918.3991 1.6078.5 2.4287a42.9 42.9 0 0 1 .2959 4.707c.01 2.7955-.3896 11.636-3.585 12.127-3.5199-.4023-2.8602-9.9554-2.5068-12.6592.2854-2.1807 1.1523-8.2335 3.3389-8.876m-.1397 5.9063c-1.4238 1.0099-1.8707 9.4146-.455 9.8623 1.4132-.6782 1.706-9.1912.455-9.8623" clip-rule="evenodd"/><path fill="#000" d="M43.6045 6.9954c1.1678-.0124 1.6647 1.2006 1.9571 2.2724.2161.7917.3991 1.608.5 2.4287a42.9 42.9 0 0 1 .2959 4.7071c.0099 2.796-.3898 11.636-3.585 12.1269l-.1611-.0264c-3.1258-.6304-2.759-8.8254-2.4141-12.0498l.0684-.583c.2853-2.1805 1.1526-8.2326 3.3388-8.876m.0782.5029c-.3378.1269-.6955.4765-1.0469 1.0947-.3646.6414-.6737 1.4827-.9317 2.3985-.515 1.8283-.7999 3.8555-.9423 4.9443-.1741 1.3317-.4232 4.3574-.1963 7.0859.1138 1.3685.3443 2.6221.7402 3.543.3842.8936.8706 1.3608 1.457 1.457.5346-.1114 1.0324-.5722 1.4756-1.4297.4543-.8788.7927-2.0631 1.0381-3.3545.4895-2.5756.5869-5.4479.582-6.831l-.0088-.583a42.4 42.4 0 0 0-.2841-4.0664l-.087-.5918c-.1005-.592-.2391-1.1833-.3984-1.7666-.1431-.5245-.3228-1.0255-.5771-1.3867-.2261-.321-.4833-.4952-.8203-.5137m10.625-1.872c.2194.2338-.0139.951-.0713 1.2782a67 67 0 0 0-.3409 2.1827c-.699 5.3286-1.0215 10.5094-.6259 15.8896.0521.7094.1516 1.4056.1845 2.1191l-.2578.0332c-.655.0547-1.6557-.041-2.2158-.1103-.1927-.5522-.3382-1.9068-.4736-2.751l-.0576-.3271c-.2045-1.0729-.4642-2.138-.7041-3.2022-.0803-.3571-.2791-1.5638-.5987-1.6533-.1515.157-.0984.5751-.1221.8389-.1434 1.612-.0186 3.2988.0801 4.9111.0588.9581.2755 2.0398.2149 2.9893l-.3516.0273c-.8897.0425-2.2172-.0621-2.9893-.1269l.3936-1.4668c1.1145-4.9545 1.0437-9.9608.7402-15.0206a35.6 35.6 0 0 0-.2187-2.2597c-.0607-.4613-.2248-1.4196-.2012-1.8516.034-.0423.0341-.0465.084-.082.1905-.1356 2.25-.3846 2.4658-.2735.1379.0718.1648.3533.1914.5069.129.7493.1875 1.5199.2862 2.2754a82 82 0 0 0 .7617 4.8213c.0809.4375.4366 2.5927.7246 2.8818l.0273.0225.0703-.0371c.0609-.1342.086-.2567.0909-.4082.0973-3.0851-.0369-6.1989.0009-9.2881l.0284-1.3223c.4156-.1545 2.1626-.5135 2.6338-.582.1168-.025.1295-.021.25-.0147m-.4317.5536c-.2689.0487-.659.1245-1.0517.209-.3483.075-.6733.15-.9092.211-.0411 1.6295-.0237 3.2695-.0049 4.9209.0202 1.7697.0394 3.5528-.0166 5.3281-.0066.2057-.0411.3954-.1338.5996l-.0723.1582-.1543.0791-.0703.0371-.2441.126-.2373-.1387c-.1047-.0612-.1725-.1441-.21-.1963a1.2 1.2 0 0 1-.1015-.1738c-.0533-.1104-.1007-.2408-.1426-.3731-.0847-.2672-.1648-.6008-.2364-.9296-.1427-.6565-.2607-1.3539-.3007-1.5704l-.2188-1.207a82.5 82.5 0 0 1-.5478-3.6416l-.1328-1.1494a29 29 0 0 0-.0674-.5537l-.083-.5528-.0196-.1171c-.0319.0006-.0671.0003-.1054.002-.2106.009-.4821.0325-.7578.0644-.2755.0318-.5471.071-.7569.1093-.0363.0067-.0697.0143-.1006.0206.0112.151.0315.3343.0576.5351.0223.1714.0469.3447.0704.5059l.0615.4306v.001q.1103.8558.1797 1.7168l.042.5742v.002c.304 5.0696.3786 10.134-.752 15.1601l-.0019.0098-.003.0098-.2373.8857c.7085.0534 1.5688.1034 2.209.083-.0059-.3068-.0305-.6311-.0664-.9697-.0389-.3665-.0895-.761-.125-1.1436l-.0293-.3769c-.0978-1.5983-.2266-3.3285-.0791-4.9864.0038-.0427.0051-.0986.0059-.1796.0006-.0738.0007-.17.0058-.2627.0051-.0919.0156-.2044.044-.3155.0274-.1073.0817-.257.2041-.3838l.207-.2138.2871.0801c.1723.048.29.1562.3604.2382.073.0854.1283.1814.1709.2676.0854.1729.1532.3781.206.5674.1038.3721.1835.8081.2158.9521.2371 1.0515.4997 2.1316.7061 3.2139l.0596.3408c.0603.3756.1227.8428.1855 1.2754.0624.4299.1251.8173.1885 1.0996.2644.0279.5731.0566.8789.0723.2434.0125.4721.0161.6699.0107a29 29 0 0 0-.0508-.5566c-.0351-.3471-.0738-.7087-.1006-1.0723-.3987-5.4242-.072-10.6408.6299-15.9912v-.0039c.1024-.735.2171-1.4688.3438-2.1992.0171-.0979.0473-.2234.0713-.3291a5 5 0 0 0 .0605-.3096m-10.1738 6.2803c.3305.1774.5158.5434.6308.8584.1259.3447.2177.7736.2832 1.2422.1318.9413.1677 2.1209.1202 3.2891-.0476 1.1679-.18 2.349-.3955 3.2919-.1075.47-.2393.9-.4014 1.2442-.1519.3225-.3739.6654-.7129.8281l-.1787.0859-.1885-.0595c-.3916-.1239-.6171-.4798-.7519-.7871-.1452-.3309-.2469-.748-.3174-1.2012-.1419-.9115-.1736-2.0718-.1162-3.2334.0574-1.1635.2049-2.3545.4336-3.3281.1141-.486.252-.9318.415-1.2979.1562-.3508.3637-.6939.6533-.8994l.2529-.1797zm-.2373.4414c-1.4012.9958-1.8558 9.1533-.5196 9.835l.0645.0273c1.4132-.6781 1.706-9.1912.4551-9.8623m5.6338-5.6543.0048.001s-.0011-.0008-.0029-.001c-.001-.0001-.0025-.0008-.0039-.001z"/><path fill="#3dd7c2" d="m75.8028 44.6879.0233.0045c.0972.1412.0396.3741.0141.5413-.0644.424-.1586.8418-.2311 1.2641-.2099 1.2224-.3966 2.454-.5881 3.6805a211 211 0 0 0-1.4565 11.1109c-.6861.398-2.4331 1.2575-3.1252 1.4953-.2236-.7014-.9112-4.1767-1.235-4.5281l-.075.0037c-.4218.5186-1.2665 4.6115-1.5508 5.5078l-.0196.0611c-1.3123.3864-1.9126.5796-3.256.7448-.2511-4.4805.2105-9.1811-.7294-13.6037-.0702-.3298-.3818-1.9205-.3689-2.1067.1046-.1544.6717-.2411.8532-.2679 1.1297-.1672 2.1677-.6812 3.2449-.9917.0037.7667-.1046 1.549-.136 2.3177-.0388.9401-.1298 5.7658.2817 6.4045.0503.0784.0229.0536.1157.0693.1671-.2431.329-.8182.4251-1.1237a58 58 0 0 0 .6665-2.2632c.108-.3922.5678-2.5151.7268-2.7083.2162.1833 1.0299 4.9814 1.4834 5.0767.2592-.189.4407-2.4902.5157-2.9514.3179-1.9395.2126-3.9274.2422-5.8826.0044-.289 1.3489-.5516 1.5954-.6279.9035-.287 1.7715-.6994 2.5836-1.227M41.0358 48.3407c.6827.0409 1.3803.1928 2.0616.2824.9659.1272 1.9518.197 2.9082.3922.7448 1.8669 1.4417 3.6595 2.4438 5.3806.1416.2432.4307.862.6891.9231.3157-.2415.1223-4.1606.0961-4.7155-.0203-.4281-.1926-1.1894-.024-1.5758.3489-.161 4.5794-.2531 5.2322-.1981-.1708.8248-.3922 1.6389-.566 2.4638-.6191 2.9349-1.1389 6.0011-1.1895 9.0198-.0074.6651.0968 1.807-.0444 2.4069-.2887.128-1.3803-.3761-1.7101-.5202-.4495-.1965-2.6556-1.1642-2.8963-1.4515-.2732-.3266-.4011-1.1981-.5715-1.6246-.5286-1.3219-1.0735-2.6079-1.8868-3.7432-.1039-.1454-.244-.3972-.4085-.4533-.0584-.0199-.0432-.01-.1009.0326-.2672.7299.437 3.5987.4092 4.5995-.0018.0714.0074.0384-.0495.0974-.5441-.0822-1.0746-.348-1.6051-.5094a22.7 22.7 0 0 0-2.6841-.6234c-.1472-.0248-.2592-.0578-.3519-.1945.038-.4537.2291-.9388.3168-1.3905a20.3 20.3 0 0 0 .3903-3.6957 20.85 20.85 0 0 0-.1759-2.9292c-.0485-.3818-.3638-1.698-.2828-1.9734M61.9633 48.5278c.0336.0181.0636.0516.0931.078.0063.7047-.0536 1.414-.0842 2.1183-.0459 1.0548-.0729 2.1018-.1845 3.1512-.4351-.1486-.8532-.348-1.3034-.4396-.5131-.1049-1.2835-.1615-1.722.2002-.2909.2398-.4288.6506-.4827 1.037-.0595.4278.0388.7167.2643 1.0516.5763.3084 1.0561.1841 1.6232-.0719.1297-.0586.2458-.1308.3892-.1251.0766.0549.1028.0702.1376.1689.1057.2985.0702 2.2265-.0596 2.515-.0528.1177-.1135.1664-.2325.18-.1323.0157-.3094-.0545-.4391-.0863-.4492-.1135-.9187-.0788-1.3504.1q-.0244.0101-.0481.0202c-.1375.201-.2525.3744-.3101.625-.0913.3959-.091.8806.1075 1.2381.5209.9397 2.153.2321 2.8258-.1098.1829-.0929.3596-.2514.543-.3265.0817-.0335.1505-.0335.2336-.0116.1475.3092.1631 4.2812.183 4.9863l-.0292.0711c-.1249.1263-.3804.1094-.5438.1156-2.1085.0809-4.1088-.2089-6.1409-.8319-.3364-.1032-.8476-.2015-1.1038-.4694-.034-.1214-.0262-.2184-.0107-.3419.0736-.5974.2362-1.2104.3445-1.8037.1682-.9206.2991-1.8615.4177-2.7912a90.2 90.2 0 0 0 .5767-7.4717c.0229-.6477-.0684-1.2781-.0266-1.9346.8181-.0858 1.6476-.0458 2.4683-.1015 1.3134-.0896 2.591-.3786 3.8641-.7398"/><path fill="#000" d="M62.0569 48.6059c.0063.7046-.0543 1.4139-.085 2.1181-.0458 1.0548-.0729 2.1019-.1845 3.1514-.3807-.13-.7483-.2988-1.1358-.4004l-.167-.0391c-.5131-.1048-1.2842-.1614-1.7226.2002l-.1016.0977c-.2219.2446-.3336.6014-.3809.9394-.0594.4275.0393.7162.2647 1.0508.5043.2699.9344.2087 1.4141.0176l.2089-.0889c.1296-.0585.2455-.1306.3887-.125.0765.0549.103.0703.1377.169.1056.2991.0702 2.2261-.0596 2.5146-.0528.1177-.1134.1661-.2324.1797-.0663.0078-.1436-.0058-.2207-.0254l-.2178-.0605c-.449-.1135-.9189-.079-1.3506.0996l-.0478.0205c-.1375.201-.2529.3745-.3105.625l-.0303.1523c-.0584.3629-.036.7732.1377 1.086.5208.9396 2.1534.2324 2.8261-.1094.183-.0929.3597-.252.543-.3271.0816-.0334.1503-.0336.2334-.0118.1475.3092.1627 4.2804.1826 4.9864l-.0293.0713-.0517.041c-.1347.0816-.3482.0688-.4912.0742l-.3946.0107c-1.7027.0283-3.3398-.1859-4.9863-.624l-.7607-.2178c-.2943-.0902-.7221-.1773-.9961-.3769l-.1075-.0928c-.0339-.1213-.0262-.2184-.0107-.3418.0368-.2986.0958-.6013.1592-.9033l.1855-.9004c.1682-.9205.2993-1.8614.418-2.791a90.3 90.3 0 0 0 .5762-7.4717c.02-.5669-.047-1.121-.0362-1.6904l.0098-.2442c.6136-.0644 1.2336-.0579 1.8516-.0742l.6162-.0273c1.3134-.0896 2.5912-.379 3.8642-.7403.0337.0182.0642.0517.0938.0782m13.7695-3.9131c.0969.1412.0392.3739.0137.541-.0643.4239-.159.8415-.2315 1.2637-.2099 1.2224-.3964 2.4541-.5878 3.6806a211 211 0 0 0-1.4561 11.1114l-.3027.1689c-.8034.4343-2.2166 1.118-2.8223 1.3262-.2237-.7014-.9115-4.177-1.2354-4.5283l-.0751.0039c-.4219.5188-1.2666 4.6115-1.5508 5.5078l-.0196.0605c-1.3122.3864-1.9125.58-3.2558.7451-.2511-4.4804.2103-9.181-.7295-13.6035-.0615-.2887-.3075-1.5431-.3594-1.9765l-.0098-.1299c.0785-.1158.4173-.1934.6582-.2364l.1954-.0322c1.1296-.1672 2.1679-.6807 3.2451-.9912.0037.7666-.1053 1.5488-.1367 2.3174-.0389.9399-.1291 5.7647.2822 6.4043.0502.0783.0229.0538.1152.0693.0835-.1215.1659-.3258.2393-.5381l.1865-.5849c.2373-.7489.459-1.5036.666-2.2637.108-.3922.5674-2.5132.7266-2.708.2161.1832 1.0297 4.9771 1.4834 5.0762.1944-.1419.3456-1.4717.4404-2.3223l.0762-.6289c.3178-1.9394.2116-3.9277.2412-5.8828.0057-.2888 1.349-.5516 1.5957-.6279.9035-.287 1.7718-.699 2.584-1.2266zm-14.2783 4.4658c-.9501.252-1.9159.4592-2.9063.5635l-.5087.0439c-.4259.0289-.8545.0335-1.2598.041-.2573.0048-.5073.0116-.7529.0254.0019.1573.0089.3176.0166.4844.0144.3135.0328.6562.0205 1.0049a90.7 90.7 0 0 1-.5801 7.5127l-.001.0039c-.119.9326-.2512 1.8845-.4219 2.8183-.1194.6543-.2676 1.1886-.3398 1.7745v.0019l-.002.0166c.0518.0271.1185.0568.2041.0869.1978.0695.343.0997.5625.167 1.9833.608 3.928.8891 5.9756.8106l.0762-.002c.0033 0 .0066-.0009.0098-.001-.0082-.5248-.018-1.4504-.0371-2.3144-.0124-.5586-.0287-1.1005-.0508-1.5195-.0024-.0448-.0073-.0877-.0098-.129-.0418.0257-.0851.0525-.1299.0752-.3473.1765-.9752.4665-1.6054.5821-.594.1089-1.4537.1012-1.8838-.6748-.2824-.509-.2626-1.1359-.1573-1.5928l.0342-.127c.0879-.2845.2301-.4918.3506-.6679l.084-.1221.1367-.0576c.0052-.0022.0104-.0039.0195-.0078.0077-.0033.0181-.0081.0293-.0127l.2012-.0742a2.637 2.637 0 0 1 1.458-.0489h.001a3 3 0 0 1 .1152.0303c.0056-.0458.0135-.0975.0186-.1553.0187-.2118.0313-.4777.0371-.748.0058-.27.005-.537-.0039-.751-.0005-.0116-.0024-.023-.0029-.0342-.2618.1114-.5414.2085-.8399.2364-.3629.0338-.7252-.0331-1.0976-.2325l-.1094-.0586-.0693-.1035c-.1306-.1939-.2421-.4009-.3067-.6396-.0655-.2424-.0756-.4904-.0381-.7598l.0274-.166c.077-.3988.2499-.8719.6328-1.1875.3364-.2774.7617-.3679 1.1221-.3887.3686-.0212.7351.0263 1.0175.084l.1934.0449c.1906.05.3706.1127.5381.1748l.0312.0118c.0627-.814.0893-1.6307.126-2.4747.0234-.537.0593-1.0417.0752-1.5439m13.7217-3.5762c-.6104.329-1.2453.6009-1.8994.8086l-.003.002v-.001c-.0798.0247-.2369.062-.3808.0977-.1588.0393-.3398.0859-.5108.1376-.1442.0437-.2648.0887-.3535.128-.0192 1.8509.0672 3.8338-.2471 5.751-.0161.0994-.0397.3115-.0722.6035-.0316.2831-.0699.6249-.1143.959-.044.3316-.0961.668-.1553.9384-.0293.134-.0634.2665-.1044.3789a1.2 1.2 0 0 1-.0811.1787c-.0303.0532-.0884.1436-.1875.2159l-.1797.1308-.2178-.0449c-.2115-.0445-.3349-.1942-.3828-.2568-.0619-.081-.1114-.1739-.1513-.2588-.0812-.1728-.1596-.395-.2334-.6348-.1491-.4844-.3037-1.1139-.4473-1.7314-.0632-.2719-.124-.5388-.1816-.793-.0999.42-.1882.8027-.2286.9492a58 58 0 0 1-.6718 2.2813c-.0439.1394-.1143.3771-.1905.5976-.0722.2091-.1732.474-.2998.6582l-.1806.2637-.3145-.0537-.0703-.0088a.54.54 0 0 1-.1455-.0488c-.1298-.0656-.1949-.1673-.207-.1856-.0086-.0128-.017-.027-.0196-.0312-.0039-.0064-.0069-.0117-.0107-.0176-.1091-.1698-.1653-.4026-.2022-.5977-.0411-.2178-.0736-.4804-.0986-.7666-.0502-.574-.0759-1.28-.0879-1.9863-.024-1.4138.0085-2.8654.0283-3.3447.0163-.3965.0522-.7983.0821-1.1777.0113-.1436.0196-.2854.0283-.4249-.2949.1031-.5941.2154-.9121.3272-.5427.1908-1.121.3741-1.7344.4648-.0862.0128-.2424.036-.3887.0713.0274.172.0664.3882.1075.6114l.2128 1.0927v.001c.4802 2.2596.6002 4.5791.6338 6.876.0311 2.1267-.0096 4.2079.0801 6.2597.8701-.1331 1.4266-.2955 2.377-.5761.1473-.5331.3947-1.5953.664-2.6748.1502-.6018.3064-1.2005.4532-1.6836.0731-.241.146-.461.2167-.6416.0641-.1634.1472-.3502.254-.4815l.1406-.1728.2226-.0108.0752-.0039.2334-.0117.1582.1719c.0665.0721.1136.154.1436.2129.0333.0654.0641.1387.0928.2129.0573.1485.1154.3308.1738.5293.1172.3988.2437.8987.3642 1.4004.1658.6899.3186 1.3665.4327 1.8369.6987-.3017 1.7167-.8035 2.3164-1.1319a211.4 211.4 0 0 1 1.4316-10.8769c.191-1.2234.3791-2.4603.5899-3.6875.0531-.31.1038-.5682.1533-.8311m-34.2344 2.7588c.6826.0409 1.3804.1926 2.0615.2822.9658.1272 1.952.1964 2.9082.3916.7449 1.8669 1.4422 3.6598 2.4444 5.3809.1327.2281.3953.7863.6406.9053l.0488.0176c.2363-.1835.1864-2.4315.1358-3.7784l-.0401-.9365c-.019-.4015-.1719-1.0964-.0517-1.5l.0273-.0762c.3489-.161 4.579-.2531 5.2324-.1982-.1708.8248-.3917 1.639-.5654 2.4639l-.2275 1.1064c-.515 2.5942-.9176 5.2719-.962 7.9131-.0073.6651.0963 1.8074-.0449 2.4072l-.0635.0166c-.2635.0361-.86-.1968-1.2812-.3769l-.3652-.1602c-.4216-.1843-2.3867-1.0458-2.8291-1.3896l-.0674-.0616c-.2732-.3265-.4009-1.1985-.5713-1.625-.4625-1.1566-.9374-2.2858-1.5938-3.3105l-.2929-.4326c-.1038-.1453-.2439-.3968-.4082-.4531-.0584-.0199-.0439-.0094-.1016.0332-.2667.7306.4367 3.5977.4092 4.5986-.0019.0713.0078.039-.0488.0976l-.2041-.039c-.4733-.1082-.9373-.3295-1.4014-.4707a22.7 22.7 0 0 0-2.6846-.6231c-.1469-.0247-.2588-.0578-.3515-.1943.038-.4537.2287-.939.3164-1.3906a20.3 20.3 0 0 0 .3906-3.6953 20.9 20.9 0 0 0-.0928-2.2002l-.083-.7295c-.0485-.382-.3636-1.6962-.2832-1.9727m.5332.5547c.0148.0946.0326.1963.0518.3018.0683.3761.1677.8437.1943 1.0517l.084.7461c.0714.7482.1033 1.5004.0957 2.2529v.002a20.8 20.8 0 0 1-.4004 3.7832l.001.001c-.0484.2493-.1268.5125-.1856.7295a6.5 6.5 0 0 0-.0713.2871 23.1 23.1 0 0 1 1.9483.4258l.6797.1914.0029.0009c.2817.0858.5779.2033.8223.292.051.0186.1024.0331.1513.0498-.0138-.1271-.0287-.2684-.0498-.4218-.0575-.4184-.133-.8807-.2041-1.3575-.0697-.4676-.1336-.942-.1631-1.3496-.0147-.2039-.0221-.4008-.0146-.5771.0072-.1691.0282-.3547.0879-.5176l.0517-.1406.1211-.0899.001-.0009a1 1 0 0 1 .0303-.0245.54.54 0 0 1 .0937-.0595.53.53 0 0 1 .3174-.0479c.0574.0089.1081.0266.1162.0293l.001.001c.2329.0795.3864.2648.46.3594.0686.0882.174.2493.1923.2754h.001c.8523 1.1898 1.4161 2.5276 1.9444 3.8486.0983.2461.1889.6303.2646.9004.0422.1506.0834.2843.127.3945.0404.1023.0746.1582.0937.1846.01.0076.031.0238.0684.0478.0691.0446.1647.0999.2832.1641.2359.1278.5388.2771.8545.4268.6303.2988 1.2883.5874 1.5127.6855l.3623.1582c.1471.063.3137.1318.4795.1924a5 5 0 0 0 .2324.0791c.0095-.1818.0117-.3926.0078-.6221-.0069-.4103-.0311-.9042-.0274-1.2412v-.0029c.0515-3.0667.5789-6.1703 1.2002-9.1153.0886-.4204.1891-.8371.2871-1.2451.0509-.2116.1003-.4213.1485-.6299-.5269-.0019-1.3105.0082-2.0957.0323-.5885.018-1.164.0434-1.6113.0732a13 13 0 0 0-.4776.0401 3 3 0 0 0 .0108.2978c.0113.1354.0281.2729.0449.4141.016.1343.033.2796.039.4072.0131.2766.0688 1.4045.0811 2.4941.0061.5431.0016 1.0879-.0254 1.5166-.0134.2123-.033.411-.0635.5723-.0151.0798-.036.1668-.0664.2471-.0235.0621-.0817.2032-.2168.3066l-.1884.1436-.2305-.0537c-.2119-.0501-.3625-.1914-.4473-.2823-.0959-.1028-.1797-.2224-.248-.33-.1227-.1934-.2705-.4754-.3116-.5459-.9775-1.679-1.6688-3.4225-2.374-5.1924-.8471-.1529-1.6971-.2167-2.6103-.3369-.5315-.0699-.9984-.1613-1.4639-.2227"/><path fill="#bdfd9e" d="M68.1327 5.0675c.2854-.0274.5057-.0253.7929-.0222.0569.97-.1316 2.3348-.2055 3.3493a565 565 0 0 0-.3346 5.4284c-.0872 1.4812-.15 2.9625-.2251 4.4447-.1394 2.7482-.1002 5.5065-.166 8.2584-.6132.1947-2.1145.4618-2.7318.477.0928-.4356.17-.8775.2458-1.3173.0976-.5663.5915-4.3506.3638-4.6506-.0777-.1025-.2067-.1233-.3198-.1398-.3634-.0528-1.2517-.0377-1.5249.2652-.4136.4588-.119 5.0472-.0805 5.9692-.2814.0695-.6196.1092-.9102.1514-.5644.0704-1.0003.1344-1.5692.1363.1763-3.5286.431-6.9452.498-10.4944a65 65 0 0 0-.0466-3.2116c-.0196-.6108-.0621-1.3875-.0303-1.9846.6886-.01 2.0697.1031 2.7451.2001-.1715.8124-.7634 3.9345-.5593 4.6343.0828.1086.173.1657.3087.1824.3005.0372 1.5119.0336 1.6993-.2179.1313-.1763.1763-1.1966.1885-1.4464.0658-1.3355.1305-2.6778.1235-4.0154-.0336-1.8891-.1586-3.778-.1941-5.6706.39-.1438 1.4676-.2632 1.9323-.3259M71.1972 5.163c.1752-.0121.3848-.0062.5619-.0046 1.1955.0108 2.4095-.0277 3.6035.037.0011.2677-.0203.5349-.0499.8003-.2255 2.051-.1944 4.1135-.3135 6.171-1.516-.7471-2.8242-1.0168-2.9872 1.4645-.0281.4271.0317.9618.2994 1.2917.5563.2339 1.2454-.2149 1.7895-.4541.0163.9946-.0292 2.4235-.1663 3.3982-.8277-.2137-1.7212-.1438-2.0043.9349-.1172.4576-.1313 1.2416.0879 1.6563.6455 1.2207 2.3245-.4752 2.9733-.8986l.0417-.0266c.0366.2367.0411.4517.0514.6909.0255 1.2847.0858 2.8144.0226 4.0859-.1786.1276-.4111.2625-.61.3462-1.2081.5062-2.435.963-3.67 1.3788-.2392.0804-1.5482.6255-1.6975.4913-.0714-.3769.133-2.313.177-2.8663.329-4.1374.4714-8.2775.6351-12.427l.1183-3.5909c.0263-.798.0422-1.6567.1276-2.4453.3275-.0243.6794-.0256 1.0095-.0336"/><path fill="#bdfd9e" d="M64.8937 4.9345c.1075-.0163.0987-.0117.2092-.0044l.0669.0867c.0381.1537.0647.3438.0507.5019-.1261 1.418-.2211 2.8244-.2048 4.25.0022.1967-.006.5009-.0695.681-.1035.065-.1764.0686-.2936.0438-.2495-.0528-.499-.1811-.7367-.2797-.5652-.2343-1.1463-.4684-1.7496-.5391-.4096-.048-.8551-.0124-1.1807.3006-1.2262 1.1788-.9098 11.21-.8347 13.2666.0454 1.243.2443 2.5306.1585 3.7693-.4498.0528-.9304.0604-1.3892.1079-.6254.0648-1.255.1686-1.8808.1846.0077-.5722.1837-1.4712.2839-2.0647a87.46 87.46 0 0 0 1.1622-12.6135c.0056-.4073.0721-1.6581-.1205-1.8764-.3667-.4152-1.7855 1.2354-1.9529 1.4592-.0703-1.5975.0277-3.2415.072-4.8378.0167-.6008.0488-1.1724.1342-1.7673 1.5999.0057 3.364.0196 4.9521-.0907 1.0066-.07 2.3181-.373 3.3233-.578"/><path fill="#000" d="M68.9257 5.0456c.0569.9699-.1312 2.3351-.2051 3.3496a568 568 0 0 0-.335 5.4277c-.0872 1.4813-.1495 2.9632-.2246 4.4453l-.0449 1.0303c-.0868 2.4068-.0635 4.8196-.1211 7.2276l-.2685.0761c-.7067.1818-1.9237.3881-2.4639.4014.0464-.2178.0895-.4374.1299-.6572l.1162-.6602c.0976-.5663.591-4.3514.3633-4.6514-.0582-.0764-.145-.1074-.2324-.125l-.087-.0146c-.3633-.0528-1.2522-.0373-1.5254.2656-.4132.4603-.1185 5.0463-.08 5.9688l-.2198.0468c-.2275.0425-.4723.0729-.6904.1045l-.7832.0938c-.2506.025-.5017.042-.7861.043.1763-3.5285.4311-6.9451.498-10.4942a64.5 64.5 0 0 0-.0469-3.2119c-.0195-.6107-.062-1.3873-.0302-1.9844.6886-.01 2.0696.1033 2.7451.2002-.1716.8131-.7626 3.9341-.5586 4.6338.0828.1086.173.1659.3086.1826.2824.0348 1.364.0337 1.6523-.1738l.0469-.0439c.0984-.1322.1479-.7391.1719-1.1397l.0166-.3066c.0658-1.3355.1301-2.6781.123-4.0157-.0252-1.4168-.1016-2.8336-.1533-4.252l-.04-1.4188c.3904-.1438 1.4671-.2626 1.9316-.3252.2854-.0275.5058-.0256.793-.0225m-3.8223-.1152.0664.0869c.0381.1536.0648.344.0508.502l-.0879 1.0614c-.0791 1.0606-.1294 2.1193-.1172 3.1885.0022.1967-.0058.5007-.0693.6807l-.0732.0381a.3.3 0 0 1-.1397.0185l-.0801-.0127c-.2495-.0528-.4996-.1817-.7373-.2802-.4945-.205-1.0013-.4095-1.5244-.505l-.2246-.0341c-.4096-.048-.856-.0122-1.1816.3008-1.226 1.1796-.9091 11.2098-.834 13.2666.0454 1.243.2439 2.5308.1582 3.7695l-.3418.0322c-.3465.0267-.7028.0396-1.0469.0752l-.9404.1114c-.3138.036-.6276.0652-.9405.0732.0079-.5723.1831-1.4711.2832-2.0645a87.5 87.5 0 0 0 1.1622-12.6132c.0055-.4073.0724-1.6586-.1202-1.877-.367-.4142-1.7857 1.2362-1.9531 1.46-.0351-.7989-.0281-1.6096-.0068-2.42l.0791-2.418c.0166-.6006.0484-1.1726.1338-1.7675 1.5998.0058 3.3641.0195 4.9521-.0908 1.0065-.07 2.3182-.3731 3.3233-.5781.1075-.0164.0994-.0113.2099-.004m3.085.6337c-.2459.033-.6085.0765-.9766.1309-.1883.0279-.3593.0553-.501.083.0202.8081.0526 1.617.087 2.4307.0199.472.0395.9462.0566 1.4209l.04 1.4258v.0058c.0071 1.3534-.0583 2.7093-.124 4.043-.006.1228-.0203.452-.0508.7734-.0151.16-.0358.3284-.0625.4737a2 2 0 0 1-.0508.2177c-.0179.0588-.0536.1626-.123.2559-.0946.1267-.2191.1978-.3037.2373-.0921.043-.1905.0727-.2813.0947-.182.0442-.3905.0702-.5849.085-.3841.0292-.7973.022-.9912-.002-.283-.0349-.49-.171-.6455-.375l-.0557-.0742-.0264-.0898c-.0442-.152-.0582-.3302-.0615-.4961-.0034-.1749.0051-.3744.0205-.585.0308-.4214.0923-.9162.1651-1.4062.1004-.6772.226-1.3601.3212-1.8545-.5144-.0544-1.1564-.1046-1.663-.1241.0006.4701.027.9929.0419 1.4571l.0264.8086c.0218.8089.0289 1.6184.0205 2.4277v.0039c-.0636 3.3735-.2961 6.6387-.4697 9.9609.0694-.0053.1386-.0086.208-.0156l.7715-.0928c.1551-.0224.3065-.0434.4502-.0654-.0324-.6368-.0866-1.7084-.1074-2.7373-.0135-.6639-.0136-1.3255.0175-1.8545.0155-.2631.0394-.5068.0762-.707.0184-.1.0423-.2004.0742-.292.0291-.0833.0786-.2014.17-.3027.1506-.1671.3503-.2601.5136-.3155.1713-.058.3562-.0923.5283-.1123.3413-.0396.6988-.0302.9268.003.0785.0113.427.0422.6465.332h-.001c.0868.1144.1156.2428.127.2998.015.0753.0226.1565.0273.2344.0096.1576.0082.3522 0 .5615-.0164.4212-.0613.9519-.1152 1.4824-.1078 1.0599-.2571 2.1607-.3086 2.46a63 63 0 0 1-.1192.6709c.2038-.0274.4305-.0618.6621-.1026.3493-.0614.6884-.1328.9571-.1982.0537-2.6045.0269-5.2708.1601-7.8984.0748-1.4765.1382-2.9656.2256-4.4493q.1545-2.7168.335-5.4316v-.004c.0655-.8992.201-1.9465.2119-2.8075-.0789.0031-.1587.0055-.2451.0136m-3.4668-.085c-.9481.1979-2.1607.4659-3.1162.5323-1.4624.1016-3.0687.0984-4.5449.0928-.0436.4198-.064.8384-.0762 1.2803-.0333 1.1986-.0951 2.393-.0967 3.5712.0292-.0278.0574-.0567.0869-.0839.2187-.2018.4739-.4113.7188-.542.1202-.0642.2772-.1309.4502-.1446.1687-.0132.3667.0251.5293.1661l.0673.0673.0635.084c.0543.0853.084.1714.1016.2305.0267.0898.0444.1863.0566.2773.0246.1828.0346.3951.0381.5977.0069.3994-.0122.8447-.0146 1.0244v.0029a88 88 0 0 1-1.169 12.6856v.001c-.074.4383-.175.9806-.2324 1.4453.4103-.0385.8257-.098 1.2851-.1455.2419-.0251.4886-.0395.7188-.0537.0819-.0051.1618-.0112.2402-.0167.0085-.4502-.0133-.9124-.0468-1.3876-.0435-.6143-.1068-1.271-.1299-1.9034-.0376-1.0305-.1355-4.0647-.0703-6.9922.0325-1.4619.1053-2.91.25-4.0732.0722-.5806.1643-1.1047.2822-1.5293.1108-.3991.268-.8024.5264-1.0508l.0927-.083c.4748-.3895 1.0621-.404 1.4922-.3535.6825.08 1.3254.3422 1.8828.5732.1663.069.2924.1274.4043.1729.0014-.0527.0044-.1042.0039-.1504-.0165-1.4488.0797-2.8729.2061-4.295m7.0381-.3202c1.1953.0108 2.4096-.0276 3.6035.037.0011.2676-.0212.5346-.0508.7999-.2255 2.051-.1944 4.1134-.3135 6.1709-1.5158-.747-2.8243-1.0162-2.9873 1.4648l-.0058.1641c-.0038.3931.0714.8392.3056 1.1279.5564.2338 1.2459-.2159 1.7901-.4551.0162.9945-.0299 2.4238-.167 3.3985-.8276-.2137-1.7208-.143-2.0039.9355-.1171.4577-.1313 1.2417.0879 1.6563.6455 1.2201 2.3249-.4761 2.9736-.8994l.041-.0264c.0366.2367.0414.4523.0518.6914.0255 1.2847.0856 2.8145.0224 4.0859l-.1426.0957c-.15.0958-.3185.1873-.4677.25-1.208.5063-2.435.9632-3.6699 1.3789-.2399.0808-1.548.6254-1.6973.4913-.0357-.1886-.0028-.7669.0449-1.3672l.1318-1.4991c.329-4.1373.472-8.2773.6358-12.4267l.1182-3.5908c.0196-.5984.0334-1.2313.0751-1.8428l.0518-.6025c.3275-.0244.6797-.0263 1.0098-.0342a4 4 0 0 1 .2802-.0069zm-.5284.5029-.0107.001h-.0107c-.1925.0046-.3804.0075-.5625.0127-.0498.6431-.0652 1.3212-.0869 1.9834l-.1192 3.5908v.0029c-.1636 4.1452-.3057 8.2975-.6357 12.4473-.0113.1422-.0327.3717-.0567.6338a74 74 0 0 0-.0752.8652c-.021.2654-.0385.5223-.0488.7402.0501-.0162.1032-.0321.1572-.0507.1802-.0622.3649-.1316.5225-.1914.1478-.0562.2912-.1115.3633-.1358l.917-.3174a52.4 52.4 0 0 0 2.7187-1.0488l.126-.0586c.0615-.031.125-.0671.1875-.1045.0404-1.112-.0017-2.3918-.0274-3.543-.2499.1911-.5415.4053-.8427.5733-.3135.1748-.7003.3393-1.0948.3301-.2076-.0049-.4201-.0584-.6162-.1836-.1947-.1245-.3467-.3025-.4599-.5166-.1623-.3071-.2174-.6968-.2276-1.0303-.0104-.3441.0258-.7023.0977-.9834l.001-.0029c.1791-.6822.5804-1.1117 1.1172-1.2979.3041-.1055.6259-.1242.9335-.0957.0607-.628.0946-1.3633.1036-2.0283-.0716.0309-.145.0626-.2198.0898-.3443.1255-.8074.2318-1.2636.0401l-.1162-.0479-.0791-.0976c-.3906-.4817-.4395-1.1797-.4092-1.6397.0843-1.2823.483-2.1501 1.3506-2.3916.3905-.1086.8018-.061 1.1826.042.1612.0436.3246.1008.4892.1651.0769-1.7875.0808-3.6583.2803-5.4727v-.001c.01-.09.0162-.179.0234-.2666-.4248-.0137-.8501-.0168-1.2783-.0166l-1.8066.002c-.1939-.0018-.3737-.0074-.5235.0029"/><path fill="#3dd7c2" d="M4.8425 31.1594c.8598.0488 1.8607.1954 2.7322.2795.8133.0785 1.8534.1524 2.643.3013-.267 1.1285-.6501 2.2227-.9257 3.3511-.2352.9626-1.2953 5.8887-.8138 6.6245.0934.1429.2388.2056.3911.2316.3197.0545.6974-.0656 1.006-.1535 1.6962-.4839 2.8755-1.4372 4.2717-2.5339-.0156.7917-.1543 1.5709-.1737 2.3547-.0224.9016-.0003 1.8553.0371 2.759.0135.3245.158.6713.0285.9458-.549.1297-1.2074.1833-1.7707.2804-2.1921.3769-4.218 1.0577-6.2422 2.0613-.3736.1849-1.9138 1.1221-2.2135 1.177l-.0734-.0813c-.008-.6552.0715-1.4772.1205-2.1435l.2018-2.9985.5268-9.0987c.0347-.5718.1466-3.0092.2543-3.3568M48.1879 29.9039l.0732.0096c.037.1969-.1589.7892-.2236 1.0058-.6628 2.2231-1.7862 4.2402-3.2786 5.8872-.2514.2797-1.7304 1.5962-1.7478 1.731.2836.3178.6569.5476.9774.8173.3516.2953.6906.6893.9789 1.0584 1.1596 1.4847 1.5533 2.9412 2.1585 4.7086.1227.3575.4525 1.0494.4018 1.4317-.0148.1103-.0599.1908-.1482.2469-.2477.1573-3.2989.0818-3.7673.0289-.1419-.0157-.2669-.0454-.3985-.1082-.1593-.246-.1748-1.0766-.217-1.4371-.1845-1.5758-.5537-2.9968-1.6905-4.0439-.153-.1409-.5888-.4173-.7837-.3865-.5197.5179.2215 4.9205.0629 5.2219-.2115.1201-1.0935-.1218-1.394-.1796l-3.618-.5338c.0915-.3105.3069-.8286.428-1.1543a24.3 24.3 0 0 0 .5836-1.7815c.5562-1.9669.7599-4.0235.6982-6.0724-.0241-.7862-.0008-1.5039-.1091-2.2958-.1294-.9458-.3667-1.8339-.5251-2.7755 1.1554-.3241 3.7453-.8157 4.9008-.6824-.3131 1.1206-.5922 2.2841-.7474 3.4459-.0529.3958-.281 2.1926-.1416 2.442.1024.026.1645.0067.258-.052 1.6753-1.0516 2.7474-3.0459 3.0361-5.1387.0421-.3058.058-.6378.1571-.9288.1575-.1587 3.5617-.3771 4.0759-.4647"/><path fill="#3dd7c2" fill-rule="evenodd" d="M52.7275 29.4882c2.7347.1105 3.5668 3.9771 3.7383 6.4375.0214.2773.0097.5643.0244.8408.1821 3.4392-.9959 10.1625-4.9355 10.3662-.8246-.0157-1.3398-.2558-1.9932-.8154-3.8027-3.2573-1.903-16.2606 3.0518-16.8125.0388-.0088.074-.0179.1142-.0166m-.2812 5.0664c-.6994-.067-1.4105 1.3798-1.5879 3.2314s.246 3.4067.9453 3.4737c.6993.0665 1.4095-1.3801 1.5869-3.2315.1774-1.8512-.2452-3.406-.9443-3.4736" clip-rule="evenodd"/><path fill="#3dd7c2" d="M67.4342 29.0188c.1017-.0096.0965-.0044.193.0387.1216.2265.2177 3.1912.1915 3.6397-.2333 4.0244-.6104 11.62-4.7621 13.0699-5.0862 1.776-5.7102-6.3334-5.508-10.0725.0547-2.0352.1364-3.8076.5353-5.7991 1.0121-.0753 2.3917-.1242 3.4087-.13-.0267.3847-.1664 1.0504-.2363 1.4481a27.7 27.7 0 0 0-.2953 2.1907c-.149 1.7183-.2067 4.3178.7271 5.7784.4203.6622 1.2953.6182 1.753.0055 1.255-1.6805 1.3711-4.4137 1.4842-6.5197.0491-.9149-.2529-2.0739-.2336-2.9741l.0018-.0598a48.3 48.3 0 0 1 2.7407-.6158"/><path fill="#3dd7c2" fill-rule="evenodd" d="M20.4666 31.2659c.7488-.0738 1.6994.2476 2.3135.7246 3.9655 3.0801 2.5107 12.5256-2.7813 12.5752-3.228.0453-4.6627-2.5187-4.6757-5.8555-.0136-3.4842 1.7156-7.2752 5.1435-7.4443m-.3008 3.8584c-1.9698.8664-1.666 5.1659.1319 4.8457 2.014-.7439 1.6568-5.1563-.1319-4.8457" clip-rule="evenodd"/><path fill="#3dd7c2" d="M75.5658 25.944c.1948.0175.1811.2609.1726.4184-.0739 1.3733-.2 2.7434-.1848 4.1208.0014.153.058.9844-.2207.9158-.7634-.3142-1.1223-.4223-1.9397-.1981-.2029.5762-.1316 1.3004-.136 1.9191-.0203 2.8442.4233 5.4948.9582 8.261-.4588.2803-1.5885.8261-2.0857 1.0627-.4972.2361-2.4047 1.3211-2.7462 1.3834l-.0389-.0388c.0204-.2588.4296-2.0122.5117-2.3767.5667-2.6398 1.1999-6.2875 1.1533-9.1079-.0018-.0979-.0939-.1258-.1634-.1533-.5393.0806-1.3441 1.0341-1.7566 1.4482-.125.1255-.1856.3383-.3486.4296l-.0414-.0426c-.0754-.4449-.0207-4.7638.102-5.2128.1586-.1449.5756-.2376.7841-.2918 1.6494-.4286 3.2722-1.047 4.8112-1.8362.3911-.2006.7833-.4746 1.1689-.7008"/><path fill="#3dd7c2" fill-rule="evenodd" d="M31.3413 31.2529c5.5828.0645 5.825 10.9212 1.4356 13.1065-.7277.362-1.1272.4074-1.8614.414-.9817.0669-2.1223-.4202-2.8613-1.1396-2.5907-2.5231-2.2387-7.7232-.1611-10.4834.9012-1.1972 2.0082-1.7613 3.373-1.8887zm.0498 3.9307c-.8019-.0765-1.5575.9679-1.6884 2.333-.1309 1.3654.4128 2.5353 1.2148 2.6123.8022.0769 1.5586-.9685 1.6895-2.334.1307-1.3653-.4138-2.5345-1.2159-2.6113" clip-rule="evenodd"/><path fill="#000" d="M4.8421 31.1599c.8598.0488 1.861.1951 2.7324.2792.8134.0785 1.854.1519 2.6436.3008-.2671 1.1285-.6502 2.2232-.9258 3.3516l-.122.5303c-.3538 1.5972-1.1132 5.4485-.6924 6.0937.0933.1429.2392.2055.3916.2315.3196.0545.6973-.0654 1.0058-.1534 1.6961-.4838 2.8755-1.4366 4.2715-2.5332-.0156.7915-.1544 1.5709-.1738 2.3545l-.0088.6846c-.0015.6908.0178 1.3966.0459 2.0742.0135.3245.1587.6718.0293.9463-.549.1296-1.2082.1833-1.7715.2803l-.4092.0742c-2.036.3891-3.9353 1.0455-5.833 1.9863-.3737.1851-1.9128 1.1225-2.2129 1.1778l-.0732-.0821c-.008-.6551.0711-1.4773.12-2.1435l.2022-2.9981.5264-9.0986c.0346-.5715.1462-3.0069.254-3.3564m.418.6357c-.0256.2792-.0505.6288-.0733.9893-.0463.7336-.081 1.4562-.0996 1.7617l-.5263 9.0976-.001.0039-.2012 2.9991v.0029c-.0335.456-.0774.9559-.1015 1.4238.122-.0661.2549-.1356.3886-.2109.4482-.2525.9555-.549 1.1582-.6494l.7744-.3692c1.8103-.8244 3.642-1.3998 5.6045-1.7373.2928-.0504.6146-.0905.9082-.1308.1694-.0233.3319-.0494.4864-.0762-.0088-.0595-.0187-.1172-.0323-.2002-.0142-.0873-.0295-.1938-.0341-.3057-.0377-.909-.0599-1.8748-.0371-2.792.0102-.4138.0511-.824.0898-1.2119.0016-.0159.0023-.0319.0039-.0478-1.0648.8125-2.1403 1.5288-3.5557 1.9326-.1423.0405-.3397.1004-.538.1396-.199.0394-.4423.0674-.6885.0254-.228-.0389-.5277-.1483-.7256-.4511-.134-.2052-.176-.4734-.1934-.6895-.0193-.24-.0144-.5227.004-.8242.0368-.6048.1348-1.3384.2529-2.0664.2365-1.4582.5623-2.944.6826-3.4365.141-.5777.3099-1.1454.4726-1.6983.1118-.3795.22-.753.3194-1.126-.6619-.0905-1.417-.1488-2.0713-.2119-.7526-.0726-1.5292-.179-2.2559-.2422-.0032.0325-.0075.0663-.0107.1016m47.4678-2.3076c2.7344.1106 3.5667 3.9771 3.7382 6.4375.0214.2772.0097.5644.0245.8408.182 3.4391-.9962 10.1622-4.9356 10.3662l-.2959-.0166c-.5656-.055-.9887-.2426-1.458-.6035l-.2393-.1953c-3.8026-3.2573-1.903-16.2606 3.0518-16.8125.0387-.0088.0741-.0179.1143-.0166m-4.4668.4258c.0368.197-.159.7894-.2237 1.0058l-.1299.4141c-.675 2.0593-1.7494 3.9286-3.1484 5.4726-.2514.2797-1.7307 1.5967-1.748 1.7315.2835.3177.657.5477.9775.8174.3514.2951.6903.6886.9785 1.0576 1.1597 1.4847 1.5541 2.9416 2.1592 4.709.1227.3575.4519 1.0493.4014 1.4316-.0148.1102-.0601.1909-.1485.2471l-.0781.0263c-.5417.121-3.2483.0525-3.6885.003-.1064-.0118-.2035-.0319-.3008-.0674l-.0976-.041c-.1593-.2461-.1756-1.0771-.2178-1.4375-.1845-1.5758-.5537-2.9969-1.6904-4.044-.1532-.1409-.5884-.4172-.7832-.3867-.5198.518.2211 4.9213.0625 5.2227l-.0469.0175c-.2719.0724-1.0646-.1429-1.3467-.1972l-3.6181-.5342c.0915-.3105.3066-.8286.4277-1.1543a24.4 24.4 0 0 0 .584-1.7812c.4866-1.721.7027-3.5108.708-5.3038l-.0098-.7685c-.021-.6878-.0058-1.3235-.0742-2.002l-.0352-.2939c-.097-.7095-.2549-1.3867-.3945-2.0781l-.1308-.6973c1.1553-.3241 3.7457-.8159 4.9013-.6826-.3131 1.1205-.5928 2.2844-.748 3.4463l-.0635.5127c-.0799.6836-.1824 1.7409-.0781 1.9287.0769.0195.1315.0135.1933-.0156l.0655-.0362c1.5705-.9859 2.6109-2.8006 2.9726-4.748l.0635-.3907c.0316-.2293.0484-.4735.0967-.7041l.0595-.2246c.1575-.1586 3.5613-.3772 4.0762-.4648zm4.4619.0791-.0264.0058-.0283.0029c-1.0146.1132-1.9496.8753-2.7295 2.1641-.7733 1.2781-1.3402 2.9918-1.6426 4.8125-.302 1.8187-.3343 3.711-.0654 5.334.2715 1.639.8368 2.923 1.6562 3.625.3055.2616.5529.4269.8008.5312.2405.1013.5069.1551.8623.1631 1.6315-.0963 2.798-1.5435 3.5469-3.6367.7385-2.0642.9816-4.5372.8936-6.2012l-.0098-.4414c-.0016-.1409-.0044-.2673-.0137-.3877v-.0039c-.0839-1.2042-.3287-2.7207-.8662-3.9326-.5365-1.2094-1.2972-1.9829-2.3672-2.0381-.0032.0008-.0072.0022-.0107.003m-5.0733.4716c-.4439.0417-1.0368.0923-1.5879.1426-.4668.0427-.9158.0869-1.2558.1299-.1086.0137-.2025.0296-.2803.042-.0273.1625-.042.3463-.0752.5869-.3035 2.1999-1.435 4.3451-3.2656 5.4941-.063.0395-.1598.0946-.2832.1221-.1341.0298-.257.0175-.3643-.0097l-.208-.0528-.1055-.1875c-.0735-.1317-.0896-.2829-.0966-.3574a3.1 3.1 0 0 1-.0108-.3242c.0029-.2279.0215-.5023.0449-.7715.0472-.5409.1187-1.0981.1456-1.2988.1309-.9797.3479-1.9552.5957-2.8985-.4822.0153-1.0899.083-1.7256.1826-.7067.1108-1.411.2536-1.9512.3848.0588.304.1218.6071.1865.918.0955.4588.1897.9317.2569 1.4228.113.8267.0904 1.6004.1132 2.3487.0631 2.0911-.1436 4.2-.7158 6.2236l-.001.001a24.8 24.8 0 0 1-.5957 1.8183v.001c-.0657.1768-.1465.3789-.2216.5732l3.0156.4454.0215.0039c.0855.0164.2107.0451.331.0722.1272.0287.2643.0595.3965.084.0271.005.0537.0084.0791.0127-.0062-.0958-.0103-.2051-.0205-.3262-.0193-.2285-.0446-.4905-.0713-.7734a86 86 0 0 1-.0801-.8867c-.0504-.6038-.0913-1.2323-.0849-1.7481.0032-.2565.0183-.5024.0547-.7109.031-.1778.0947-.4447.2793-.6289l.1152-.1143.1602-.0254c.1704-.0269.3283.0158.4209.0469.1069.0361.2121.087.3037.1367.1782.097.3615.2233.4755.3282v.0009c1.2739 1.1736 1.6609 2.749 1.8487 4.3536.012.1028.0217.2343.0312.3623.01.1333.0205.2725.0342.4062.0128.125.0274.2361.0449.3262.0199.0033.0407.0092.0635.0117h.001c.2038.023 1.058.0547 1.914.0605.4227.0029.8325.0001 1.1485-.0136.1129-.0049.2093-.0146.2881-.0215-.0021-.0117-.0021-.0247-.0049-.0381-.0197-.0949-.0525-.2064-.0947-.3291-.042-.1219-.0904-.2452-.1377-.3662l-.1289-.3408c-.6169-1.8015-.9838-3.16-2.0791-4.5625-.2814-.3602-.595-.7219-.9063-.9834l-.001-.001c-.1507-.1268-.2978-.2318-.4863-.3779-.1757-.1363-.3694-.2949-.542-.4883l-.1523-.1709.0293-.2266a.54.54 0 0 1 .0576-.1806.7.7 0 0 1 .0469-.0782 1.3 1.3 0 0 1 .083-.1054c.0537-.0624.1234-.1352.1982-.211.1517-.1534.3519-.3445.5537-.5351.4223-.3988.825-.771.9326-.8906l.001-.002c1.44-1.5892 2.5275-3.5396 3.1699-5.6943h.001c.0246-.0823.0558-.192.0908-.3116m19.7842-1.4453c.1017-.0095.0969-.0049.1934.0381.1216.2265.2176 3.1905.1914 3.6397-.2333 4.0243-.6102 11.6202-4.7617 13.0703l-.2354.0761c-4.8702 1.4476-5.4714-6.4676-5.2725-10.1484.0479-1.7809.1158-3.3611.3995-5.0625l.1357-.7373c1.0121-.0753 2.3914-.1241 3.4082-.1299-.0266.3847-.1665 1.0505-.2363 1.4483a27.7 27.7 0 0 0-.2949 2.1904c-.149 1.7181-.207 4.3177.7265 5.7783.4203.6622 1.2953.6184 1.7529.0059 1.0982-1.4706 1.3243-3.7471 1.4395-5.7041l.0449-.8155c.0492-.9149-.2526-2.0744-.2334-2.9746l.002-.0595a48.3 48.3 0 0 1 2.7402-.6153m-.2324.5557a48 48 0 0 0-2.0039.4492c.0177.327.0667.6911.1181 1.0879.0659.5083.1359 1.0723.1084 1.583-.0561 1.045-.1142 2.2871-.3203 3.4785-.2054 1.1876-.5656 2.3812-1.2617 3.3135-.3173.4248-.7935.6696-1.2842.6768-.4994.0073-.9872-.2329-1.292-.7129v-.001c-.5323-.8339-.7599-1.9464-.8457-3.0195-.0868-1.0865-.0326-2.1974.043-3.0694v-.0039a28.2 28.2 0 0 1 .3008-2.2305c.0445-.2531.1052-.5663.1543-.8525-.7756.0144-1.662.0485-2.4131.0957-.3284 1.7972-.406 3.4383-.457 5.3379v.0137c-.0997 1.8435.0081 4.7327.7451 6.9179.3693 1.0952.8745 1.9462 1.5254 2.4268.6181.4564 1.4333.6266 2.5732.2285 1.8133-.6334 2.8922-2.6518 3.5303-5.2178.629-2.5296.7802-5.3866.8975-7.4091.0112-.1942-.0048-1.0193-.0411-1.8516-.0178-.41-.0394-.8093-.0644-1.1172-.0036-.0438-.0091-.085-.0127-.124m-35.8604 1.6777c5.5829.0645 5.825 10.9212 1.4356 13.1065-.7276.362-1.1272.4074-1.8613.414-.9818.0668-2.1224-.4202-2.8614-1.1396-2.5904-2.5232-2.2386-7.7233-.1611-10.4834.9011-1.1971 2.0084-1.7613 3.373-1.8887zm-10.874.0137c.7487-.0736 1.6995.2478 2.3135.7246 3.9648 3.0805 2.5101 12.5252-2.7813 12.5752-3.127.044-4.5716-2.3612-4.6709-5.5449l-.0048-.3106c-.0132-3.3754 1.609-7.0387 4.8271-7.4179zm10.8594.4922-.0137.001c-1.2308.1148-2.2076.6115-3.0205 1.6914-.9638 1.2805-1.5465 3.1623-1.5693 5.0361-.0229 1.8759.5146 3.6537 1.6787 4.7881h.001c.6556.6382 1.6624 1.0544 2.4785.999l.0156-.001h.0146c.3614-.0032.6049-.0161.8379-.0634.2281-.0464.4677-.1302.8047-.2979.9469-.4714 1.6884-1.4353 2.169-2.6914.4785-1.251.6775-2.7417.5771-4.1748-.1006-1.4365-.4987-2.773-1.1719-3.7393-.6578-.9442-1.5701-1.5298-2.7636-1.5527-.0108.0012-.0188.0025-.0381.0049m-8.8535.6269c-.5301-.4115-1.3557-.6812-1.9571-.622l-.0127.0009-.0117.001c-1.5081.0745-2.6644.9382-3.4609 2.2403-.8019 1.3108-1.2135 3.0352-1.207 4.7031.0063 1.6078.3557 2.9668 1.0361 3.9043.663.9135 1.6715 1.4735 3.1318 1.4531h.003c2.2844-.0215 3.863-2.0797 4.3759-4.7461.5114-2.6587-.1245-5.5575-1.8974-6.9346m53.0928-6.4414c.1946.0174.1813.2604.1728.418-.0739 1.3732-.1997 2.7437-.1846 4.1211.0014.1435.0509.884-.1728.9189l-.0479-.0029c-.7633-.3142-1.1231-.4224-1.9404-.1982-.2029.5761-.1313 1.3003-.1357 1.9189-.0204 2.844.4231 5.4947.958 8.2608-.4587.2802-1.5877.8268-2.085 1.0634l-.5908.3067c-.7623.4077-1.9001 1.0294-2.1563 1.0761l-.0381-.038c.0102-.1295.1173-.6331.2325-1.1495l.2793-1.2275c.5667-2.6398 1.1999-6.288 1.1533-9.1084-.002-.0977-.0946-.1258-.1641-.1533-.5393.0809-1.3443 1.0342-1.7568 1.4482-.1248.1255-.185.3383-.3477.4297l-.042-.042c-.0707-.4172-.0268-4.2407.0801-5.0859l.0225-.127c.0793-.0725.2229-.1326.373-.1806l.4102-.1114c1.4432-.375 2.8663-.8959 4.2305-1.5488l.581-.2871c.3911-.2005.7834-.475 1.169-.7012m-.3516.8047c-.1967.1218-.3998.2439-.5889.3408-1.5713.8059-3.2289 1.4371-4.914 1.875-.1197.0312-.2513.0621-.3838.1045-.0237.0076-.0451.0171-.0655.0244-.0015.0172-.0033.0357-.0048.0547a17 17 0 0 0-.0342.5879c-.021.4687-.0371 1.0603-.0469 1.6533a77 77 0 0 0-.0098 1.4063c.1319-.137.2746-.2822.4121-.4111.1692-.1586.3549-.3175.543-.4454.1797-.1221.4059-.2464.6514-.2832l.1328-.0195.125.0488a2 2 0 0 1 .0693.0284.8.8 0 0 1 .1426.0791.64.64 0 0 1 .1807.1943.62.62 0 0 1 .0801.2275l.0068.0801v.001c.0475 2.8812-.5973 6.5761-1.1651 9.2207l-.0009.0049c-.043.1907-.1626.7085-.2783 1.2275-.0182.0814-.0355.1623-.0528.2412.1424-.0732.2965-.1493.4512-.2314.5643-.2994 1.1894-.6423 1.4512-.7666.4143-.1972 1.2232-.5917 1.7412-.8721-.5053-2.6461-.9193-5.2312-.8994-8.0039.001-.1465-.002-.2993-.0049-.4668-.0029-.1643-.0053-.3401-.001-.5166.0085-.3488.0426-.7359.1699-1.0976l.0879-.2471.252-.0694c.4484-.123.8134-.1661 1.1884-.1162.2063.0275.4045.0834.6075.1543-.0002-.1046-.0023-.1997-.003-.2675v-.5254c.0135-1.0823.0969-2.1641.1602-3.2149m-22.7197 7.3086.1328.0215c.3003.0705.5284.2717.6894.4912.1842.2511.3184.5728.4131.9209.1904.7004.2511 1.6151.1582 2.585s-.3265 1.8562-.6465 2.5078c-.159.3239-.3515.6146-.5801.8262-.1998.1849-.4622.3394-.7705.3515l-.1347-.0039c-.3669-.0351-.6391-.262-.8233-.5127-.1843-.2511-.3183-.5736-.4131-.9219-.1905-.7004-.252-1.6151-.1591-2.5849.0929-.97.3272-1.8563.6474-2.5078.1593-.3241.3523-.6147.5811-.8262.1997-.1847.4615-.3384.7695-.3506zm-.0479.4971c-.6993-.067-1.4104 1.3799-1.5879 3.2314l-.0264.3438c-.0969 1.6966.3162 3.067.9717 3.1299.6554.062 1.3201-1.205 1.5469-2.8887l.04-.3428c.1773-1.8509-.2454-3.4057-.9443-3.4736m-21.0078.1318.1201.0166c.586.1076 1.0013.5725 1.2432 1.0918.2637.5665.375 1.2923.3027 2.0479-.0724.7554-.3192 1.4468-.6855 1.9531-.3585.4953-.8999.8933-1.5498.831-.6498-.0625-1.1046-.556-1.3623-1.1103-.2634-.5667-.3742-1.2925-.3018-2.0479.0725-.7551.3184-1.4461.6846-1.9521.3358-.4641.8319-.8423 1.4277-.8369zm-11.3584-.0547c.6977-.1211 1.2321.243 1.5605.7373.3182.4789.483 1.1207.5166 1.7569.0339.6412-.0628 1.3316-.3203 1.9277-.258.5972-.6972 1.1387-1.3662 1.3857l-.042.0157-.0439.0078c-.6919.1231-1.2267-.2223-1.5576-.7129-.3178-.4713-.4778-1.1045-.5078-1.7334-.0303-.6353.0683-1.3212.3222-1.9199.2538-.5984.68-1.1471 1.3223-1.4297l.0566-.0244zm11.3105.5518c-.8017-.0762-1.5575.9682-1.6884 2.333-.1308 1.3652.4129 2.535 1.2148 2.6123.8022.0769 1.5586-.9685 1.6895-2.334.1306-1.3652-.4138-2.5345-1.2159-2.6113m-11.2246-.0586c-1.9698.8664-1.666 5.166.1319 4.8457 2.0136-.7441 1.6565-5.1556-.1319-4.8457"/><path fill="#3dd7c2" d="M14.0428 47.2046c.0664-.0087.1101-.0008.1753.0111.1.2151-.0794.8096-.1252 1.0532a28.3 28.3 0 0 0-.4949 4.0034c-1.2463-.1623-2.4794-.2721-3.6922.1816-.5805.2172-1.0457.4938-1.3183 1.1444-.1344.3208-.1963.7588-.0798 1.0978.057.1655.161.2956.3087.3645.7998.3736 2.5266-.7006 3.3069-1.0238.0303.9887.1248 1.9866.192 2.9733-.8778-.0062-2.0277-.0628-2.8074.457-.3565.2374-.6017.4981-.554.9318.1733 1.5732 1.126 2.6401 2.0056 3.8456a75 75 0 0 0-2.3296 1.2802c-.5786.2936-3.5897 2.2504-3.8154 2.2859-.0437-.0363-.0459-.0338-.0844-.0895-.1374-.1986-.158-.6622-.212-.9083-.202-.9202-.3054-1.8462-.4171-2.7842a67.6 67.6 0 0 1-.3438-10.6906c2.5142-1.5614 5.2-2.7504 7.9892-3.5368.7602-.223 1.5211-.4484 2.2964-.5966"/><path fill="#3dd7c2" fill-rule="evenodd" d="M27.46 46.4264c.6648-.1278 2.7529.1203 3.4931.2519 1.4608.2605 3.3657.779 4.2676 2.1963.3064.4817.4623 1.0484.3594 1.6377-.2212 1.2654-1.4714 1.9832-2.4727 2.335-.3202.1122-.774.1768-1.0517.3906l.0039.0733c.3219.5395.8916.9501 1.4345 1.1582.9654.3699 1.6994.0949 2.5694-.3877.2678.8045.2844 1.7978.0713 2.6201-.1645.6341-.5123 1.1916-1.0469 1.5-.6515.3759-1.3234.2583-1.9922.0322l-.0303-.0293c-.038-.0053-.0696-.0077-.1064-.0176-1.2266-.3225-2.3389-1.7479-2.8408-2.9785-.142-.3483-.1962-.8325-.3789-1.1348l-.0684-.0097c-.0313.0239-.0358.024-.0625.0635-.0967.1423-.1269.4263-.1504.6035-.1591 1.1963.0167 2.3092.2022 3.4853-.8233.024-1.6473.052-2.4678.1358-.7867.0805-1.5731.218-2.3623.2568.1247-.7483.4281-1.4675.581-2.2158.7732-3.7833.8304-6.0067.1319-9.7891.6278-.1416 1.279-.1463 1.917-.1777m2.2324 2.5361c-.3582-.0238-.3584.1895-.3584.1895-.0009.0104-.133 1.5349.1113 1.8584.3147.416 1.3483-.0102 1.8301-.2647.1955-.0776.4105-.2112.499-.4336.068-.1705.0794-.3868.0088-.5586-.1163-.2821-.4107-.4488-.6621-.54-.3938-.1428-1.0146-.2233-1.4287-.251M19.9987 46.6359c.8972-.116 1.9571.3018 2.6582.9141 1.1194.9776 1.6011 2.4923 1.7617 4.0234.2213 2.1113-.2613 4.4386-1.4502 6.1172-.9955 1.4057-2.255 2.2101-3.8564 2.419-1.1227.0585-2.0712-.0488-2.9483-.9053-1.1621-1.1353-1.41-2.7615-1.5029-4.3984-.022-.3873.0303-.7912.0635-1.1768.1574-1.8292.6722-3.5948 1.7783-4.9951.8823-1.1172 2.0496-1.8817 3.3974-1.9824a2 2 0 0 1 .0987-.0157m-.0733 3.8897c-.7632-.0999-1.5273.9322-1.707 2.3047-.1795 1.3723.2935 2.5661 1.0566 2.666.7632.0996 1.5274-.9324 1.7071-2.3047.1796-1.3725-.2935-2.5661-1.0567-2.666" clip-rule="evenodd"/><path fill="#000" d="M14.2184 47.2161c.0996.2154-.0802.8092-.1259 1.0527a28.25 28.25 0 0 0-.4942 4.0039c-1.2463-.1622-2.4795-.2721-3.6924.1816l-.2119.084c-.4817.2073-.8678.4903-1.1064 1.0596l-.0469.126c-.1003.3033-.1351.6761-.0332.9726.057.1653.161.2954.3086.3643.7996.3736 2.5262-.701 3.3066-1.0244.0304.9887.1252 1.9869.1924 2.9736-.8777-.0062-2.028-.0627-2.8076.457-.3564.2373-.6014.4982-.5537.9317.1732 1.5732 1.1263 2.6402 2.0058 3.8457-.7829.4124-1.56.8389-2.33 1.2803-.579.2938-3.5898 2.2506-3.8155 2.2861l-.044-.0381-.04-.0518c-.0687-.0993-.1086-.2649-.1376-.4365l-.0743-.4717c-.101-.4602-.177-.9218-.2422-1.3857l-.1747-1.3984a67.6 67.6 0 0 1-.3936-9.3526l.0498-1.3379c2.357-1.4636 4.8644-2.6004 7.4668-3.3847l.5225-.1524c.76-.2229 1.5207-.4485 2.2959-.5967.0663-.0086.1105-.0002.1757.0118m-.5332.5761c-.5941.136-1.187.3092-1.7978.4883l-.0049.002c-2.6604.7501-5.2264 1.8735-7.6367 3.3427a67.1 67.1 0 0 0 .3515 10.3438c.1127.9456.2135 1.8451.4092 2.7363.018.0819.0316.1746.043.2539.0074.0514.0144.1001.0215.1475.0307-.0182.0635-.0359.0967-.0557.3187-.1904.7312-.4455 1.1582-.7109.835-.519 1.7633-1.102 2.078-1.2617a75 75 0 0 1 1.8077-1c-.7635-1.0156-1.5888-2.1164-1.7549-3.625-.0367-.3338.0417-.6252.207-.8721.1544-.2303.3692-.3989.5664-.5303.4877-.3251 1.0645-.4532 1.5948-.5068.3219-.0326.6492-.0386.9512-.0381-.0418-.5569-.0866-1.1265-.1192-1.6953-.0151.0075-.0304.0158-.0459.0234-.2842.1404-.6107.2997-.9414.4375-.3283.1368-.6809.2607-1.0176.3233-.3263.0606-.7078.0771-1.0468-.0811-.2573-.12-.4305-.327-.5313-.5557l-.039-.0996c-.169-.4916-.0725-1.0611.0917-1.4531.3492-.8333.9642-1.1807 1.6036-1.4199 1.1517-.4309 2.3076-.3958 3.4003-.2744a28.8 28.8 0 0 1 .4717-3.5391c.0141-.0739.0372-.1702.0567-.2539.0096-.0416.0171-.0841.0263-.126m6.3135-1.1562c.8972-.116 1.9572.3018 2.6582.914 1.1193.9777 1.6012 2.4924 1.7617 4.0235.2213 2.1112-.2613 4.4386-1.4502 6.1172l-.1894.2568c-.9645 1.2474-2.1657 1.9663-3.667 2.1621l-.4131.0127c-.8781.0065-1.6499-.144-2.3701-.7656l-.1651-.1524c-1.0168-.9934-1.3333-2.3627-1.4589-3.7861l-.044-.6123c-.011-.1936-.0037-.3913.0108-.5889l.0527-.5879c.1476-1.715.6094-3.3739 1.5781-4.7285l.2002-.2666c.8271-1.0472 1.9046-1.7849 3.1465-1.956l.251-.0264zm2.3291 1.291c-.6217-.5429-1.5433-.888-2.2646-.7949h-.003a1.5 1.5 0 0 0-.0732.0117l-.0254.0049-.0244.0019c-1.1718.0876-2.221.7536-3.042 1.793-1.0257 1.2984-1.5206 2.959-1.6729 4.7285-.0358.4167-.0818.7651-.0625 1.1055.0928 1.6338.3405 3.0796 1.3536 4.0693.7228.7058 1.4908.8165 2.5478.7637 1.4423-.1919 2.5785-.9091 3.499-2.209 1.1065-1.5623 1.5724-3.7631 1.3614-5.7764-.1553-1.4801-.6141-2.8425-1.5938-3.6982m5.1318-1.501c.6648-.1277 2.7527.1203 3.4932.252 1.4607.2605 3.3656.7792 4.2676 2.1963.3063.4815.4622 1.0484.3594 1.6377-.2212 1.2653-1.4714 1.9832-2.4727 2.3349-.3202.1122-.774.1769-1.0517.3906l.0039.0733c.3218.5394.8917.95 1.4345 1.1582.9654.3699 1.6994.0949 2.5694-.3877.2677.8045.2843 1.7979.0713 2.6201-.1645.6341-.5123 1.1916-1.0469 1.5-.6515.3759-1.3235.2584-1.9922.0322l-.0303-.0293c-.0379-.0053-.0697-.0077-.1064-.0175-1.2265-.3227-2.339-1.7481-2.8408-2.9786-.1419-.3483-.1963-.8326-.379-1.1347l-.0683-.0098c-.0313.0239-.0359.0242-.0625.0635-.0967.1422-.1269.4263-.1504.6035-.1591 1.1962.0167 2.3094.2021 3.4854-.8231.0239-1.6473.0519-2.4677.1357-.7867.0805-1.5732.218-2.3623.2568.1247-.7482.4281-1.4675.581-2.2158.7731-3.783.8304-6.0068.1319-9.789.6277-.1416 1.2791-.1464 1.9169-.1778m.71.4668c-.2968-.0072-.5056.0034-.6152.0244l-.0352.0069-.0351.0019c-.4879.024-.934.0327-1.3623.086.6151 3.5552.5299 5.8081-.2207 9.4814-.0821.4015-.2044.7936-.3125 1.1523a19 19 0 0 0-.1182.4092c.5387-.057 1.0737-.1391 1.6709-.2002.6495-.0663 1.2993-.095 1.9404-.1172-.1486-.9874-.2623-1.9957-.1191-3.0722.0102-.0772.0258-.2161.0527-.3487.0244-.1199.0711-.3109.1787-.4697a.7.7 0 0 1 .0996-.1191.7.7 0 0 1 .0547-.0469l.0127-.0098q.0042-.003.0069-.0048l.166-.127.208.0303.0683.0097.2344.0332.1221.2022c.1327.2195.2077.4816.2607.6797.0607.2268.0979.3892.1533.5254.2299.5636.6032 1.1782 1.0577 1.6845.4594.5119.9649.8721 1.4472.9991l-.0029-.001c.0036.0005.0085.0018.0176.0029.008.001.0209.0021.0342.0039l.1611.0225.0625.0605c.5868.1868 1.0478.2255 1.4795-.0234.3863-.2229.672-.6472.8135-1.1924.142-.548.1671-1.1844.0742-1.7656-.7235.3263-1.4815.4808-2.4102.125-.6231-.2389-1.2931-.7123-1.6846-1.3682l-.0634-.1064-.0069-.1231-.0039-.0732-.0136-.2627.208-.1602c.2146-.1652.4712-.2563.6699-.3164.2456-.0742.3651-.0956.5215-.1504.467-.1641.9717-.407 1.3769-.7392.4025-.3301.6844-.7283.7686-1.21.0775-.4443-.0366-.8862-.2891-1.2832-.3792-.5958-.9845-1.0267-1.7031-1.3428-.7182-.3158-1.5152-.5023-2.2305-.6298-.3529-.0628-1.0449-.1553-1.7314-.2168-.3426-.0307-.6777-.0536-.9639-.0606m-9.7187 3.9356c.3568-.4819.8959-.8829 1.539-.7989.6432.0842 1.0613.6105 1.2822 1.168.228.5753.3047 1.3046.2061 2.0586-.0987.7543-.3611 1.4401-.7295 1.9375-.3568.4817-.8952.8825-1.5381.7988h-.001c-.6429-.0843-1.0603-.6106-1.2812-1.1679-.228-.5755-.3047-1.3054-.2061-2.0596.0988-.754.3603-1.4392.7286-1.9365m1.4746-.3028c-.7633-.0999-1.5274.9322-1.7071 2.3047l-.0263.2549c-.0932 1.2623.3675 2.3175 1.083 2.4111.7631.0995 1.5274-.9324 1.707-2.3047.1684-1.2866-.2369-2.4161-.917-2.6347zm9.7998-2.0625v.001c.4242.0283 1.1036.1115 1.5664.2793.2661.0966.6955.3057.9131.7314l.041.0879v.001c.128.3118.1004.6644-.0069.9336-.1548.3886-.4944.5877-.7314.6895l.001.0009c-.2604.1376-.6801.328-1.0938.4278-.2051.0495-.44.0847-.667.0625-.2007-.0197-.4394-.0905-.625-.2783l-.0761-.0879c-.0867-.1148-.1328-.2455-.1592-.3428-.0285-.105-.0469-.2176-.0596-.3262-.0253-.2175-.0316-.4615-.0303-.6816.0027-.4423.0372-.8415.0381-.8526a1 1 0 0 1 .003-.0263.64.64 0 0 1 .0205-.1006.68.68 0 0 1 .1464-.2656c.1792-.2013.4418-.2714.7198-.253m-.0332.499c-.3494-.0231-.3582.1798-.3584.1895-.0009.0104-.1326 1.5342.1113 1.8584.3147.416 1.3482-.0102 1.8301-.2646.1955-.0776.4104-.2113.499-.4336.0679-.1705.0793-.387.0088-.5586-.1165-.2819-.4109-.4489-.6621-.5401-.3938-.1427-1.0147-.2233-1.4287-.251"/><path fill="#fc98d0" fill-rule="evenodd" d="M16.1528 63.8239c.5252-.0082 1.0357.0165 1.5254.25.6893.3294 1.142.9673 1.416 1.7305 1.3293 3.7032-.8885 7.2406-3.5069 9.3271a14.6 14.6 0 0 1-.9873.7236c-.1865.123-.4751.2503-.6337.4083-.0324.0317-.0383.055-.0538.0947-.0177.2934.0719.4897.2481.706.5382.6604 1.3905 1.1209 2.1914 1.1573 1.1583.0527 1.7622-.583 2.5635-1.3995.5512 1.74.7732 3.6367.499 5.4678-.121.8075-.3271 2.0425-.9834 2.5342-.5956.4456-1.4983.2883-2.1533.124-1.884-.4727-3.4778-2.0614-4.4864-3.8486-.2959-.5561-.5762-1.116-.79-1.7188-.0966-.2725-.2118-.8492-.3965-1.039-.0446-.046-.039-.0279-.1074-.0176-.5196.5653-.3229 3.904-.2197 4.793.0546.4706.2335 1.0909.2138 1.5429-.0657.0507-.121.0688-.1992.0791-.387.0508-.8153-.0556-1.1982-.125-1.1167-.2035-2.189-.4214-3.0967-1.2363-1.0953-.9833-1.5822-2.7382-1.7158-4.2471-.0812-.9168-.104-1.9187-.0547-2.8388.099-1.8523.5464-5.2461 1.6172-6.6719 1.866-2.4837 7.3503-5.5077 10.3086-5.7959m-2.9317 5.4512c-.9618.1288-2.0571.5427-2.8457 1.1845-.0986.5285-.3552 2.9904-.1523 3.3711.1398.0735.2348.0536.374-.0029a3.1 3.1 0 0 0 .2783-.1318c1.1402-.6403 2.5861-1.6355 2.9981-3.0821.0849-.298.1285-.7174-.0059-1.0068-.0684-.1474-.1998-.2583-.3418-.3037-.0946-.0306-.2065-.0312-.3047-.0283" clip-rule="evenodd"/><path fill="#fc98d0" d="M37.3778 60.3012c1.018-.0602 2.9544.4979 3.9735.8307 1.6698.5449 3.3374 1.1716 4.8375 2.1732.2336.1565.5859.3468.7208.6221.0059.4835-.3763 1.1614-.5438 1.611-.6598 1.7731-3.3513 9.1209-2.7033 10.7116.0802.1969.2148.3563.3985.4306 1.6443.6639 5.2215-1.4623 6.7272-2.2653-.2932 1.7224-.6784 3.4328-1.0163 5.1461-.1319.7304-.2306 1.5288-.4643 2.2277-.6069.3311-1.2864.5582-1.927.7935-3.5377 1.2984-7.8026 2.0205-11.5082 1.3769.3888-1.1325.7672-2.2637 1.067-3.4299.9149-3.56 1.2372-7.3243 1.2221-11.0176-.0048-1.1997.0048-2.409-.1061-3.6037-.1098-1.1808-.2314-2.3718-.3852-3.5459-.068-.5186-.339-1.6089-.2924-2.061M72.8565 65.5823c.2702-.0136.5999-.0165.855.09.1933.081.3453.2259.4196.4438.3098.9054-.3312 3.8692-.7002 4.8382-.1815-.1553-.343-.3398-.5397-.4723-.4646-.3142-1.2132-.3361-1.7234-.1759-.3449.1086-.7348.3253-.9019.701-.1006.2258-.101.4851-.0403.7245.2595 1.0239 1.4945 1.4669 2.2608 1.9012.3797.2151.7531.4483 1.0843.7497.5356.4876.9008 1.1089 1.1278 1.8347.5541 1.7686.5201 3.9625-.221 5.6622-.3364.7716-.8606 1.2331-1.5837 1.5006-2.7462 1.0169-5.8078-.3191-8.2557-1.691-.6621-.4029-1.3419-.7914-1.8646-1.4107.2536-.594.5693-1.153.8517-1.7302.3216-.6564.6155-1.3392.9844-1.9647.1131.109.2273.2155.3434.3204.9175.8302 2.1086 1.4061 3.3144 1.2517.4067-.052.9005-.2324 1.1552-.6106.132-.1965.1682-.4327.1353-.6717-.2169-1.5671-2.1632-1.9449-3.2475-2.361-.5304-.204-1.0639-.4459-1.5171-.8224-.4151-.3443-.7234-.7923-.7874-1.3798-.0843-.774.1298-1.5279.5586-2.136.3623-.5136.8595-.9483 1.353-1.2935.9142-.639 1.9411-1.106 2.9222-1.6043.94-.4772 1.8886-.9974 2.8638-1.3785.3741-.1461.7585-.2662 1.153-.3154M53.9266 67.1231c.292.0763.6166.315.8905.4611a9.3 9.3 0 0 0 1.2484.564c2.35.8554 3.9014.8273 6.3279.9384-.2244 1.3107-.5711 2.605-.8957 3.8889-1.021-.502-2.1056-1.0242-3.2475-.9173-.3818.0355-.7397.1829-.9885.5223-.1933.2662-.2835.6077-.2502.9487.0292.2956.1608.5651.3781.7398.5749.462 1.8528.1073 2.5075-.0132.0273.983-.1812 2.0225-.3519 2.9844-.7116-.1878-1.5135-.4814-2.2476-.317-.2946.0656-.5711.2241-.7331.5168-.1844.3332-.2306.8476-.1389 1.2225.0661.2691.2144.4818.4325.6192.7053.4455 2.0697.0793 2.8198-.1647.4536-.1887.9193-.3509 1.3781-.5243q.0083.1438.0044.2882c-.0247.9272-.1571 1.8677-.2414 2.7912-.0669.7287-.0831 1.4953-.2033 2.2137-.0214.1296-.031.2485-.1186.3402-.7032.1676-1.6661.0144-2.3903-.0228l-3.7957-.2006c-1.2894-.0681-3.1407-.0215-4.3614-.2873 2.4679-3.8337 3.2727-8.4633 3.71-13.0711.0817-.8579.0584-2.8214.2669-3.5211"/><path fill="#fc98d0" fill-rule="evenodd" d="M28.1377 60.7925c1.7245-.135 3.2414.4136 4.5469 1.6748 2.0565 1.9862 2.9375 5.1094 3.1172 8.0596.2187 3.5921-.475 7.7083-2.6563 10.4863-1.2454 1.5855-2.9046 2.6266-4.8095 2.7637-1.4458.1408-2.9885-.2539-4.168-1.2207-2.0062-1.644-3.0072-4.2711-3.3594-6.9541-.5102-3.8886.2861-8.3952 2.4248-11.5703 1.2694-1.8841 2.8213-2.9086 4.9043-3.2393m.3487 6.6689c-1.2417-.0802-2.3685 1.7061-2.5166 3.9903-.148 2.2841.7387 4.2006 1.9804 4.2812 1.2419.0805 2.3685-1.7059 2.5166-3.9902s-.7387-4.2007-1.9804-4.2813" clip-rule="evenodd"/><path fill="#000" d="M16.1523 63.8241c.5252-.0082 1.0359.0166 1.5254.25.6894.3294 1.142.9673 1.416 1.7305 1.3294 3.7032-.8885 7.2406-3.5068 9.3271l-.4863.3731a15 15 0 0 1-.501.3505l-.3271.1905c-.1153.0669-.2274.1387-.3067.2177l-.0332.044c-.0075.0148-.0128.0309-.0205.0508-.0177.2933.072.4898.248.706.5381.6603 1.3907 1.1208 2.1915 1.1572 1.1581.0527 1.7623-.583 2.5634-1.3994.5513 1.7399.7732 3.6367.4991 5.4678l-.0498.3203c-.1295.7841-.3594 1.7836-.9336 2.2139l-.1143.0762c-.5133.303-1.2066.2319-1.7822.1074l-.2569-.0596c-1.7662-.4433-3.2771-1.8677-4.29-3.5166l-.1963-.332c-.2219-.4171-.4343-.8366-.6172-1.2744l-.1728-.4444c-.0846-.2385-.183-.7099-.3301-.9511l-.0664-.0879c-.0445-.0459-.0391-.0279-.1074-.0176-.5193.5662-.323 3.9042-.2198 4.793.0547.4706.2336 1.0909.2139 1.5429l-.0478.0322c-.0469.0269-.093.0392-.1514.0469l-.1465.0117c-.1486.0055-.3015-.0075-.4541-.0293l-.5977-.1074c-1.0467-.1907-2.054-.3948-2.9238-1.0908l-.1728-.1455c-1.0268-.9219-1.519-2.5223-1.6866-3.9619l-.0293-.2852a21 21 0 0 1-.078-2.1357l.0233-.7031c.096-1.7946.5195-5.0364 1.5196-6.5332l.0976-.1387c1.866-2.4836 7.3502-5.5075 10.3086-5.7959m.0245.5c-1.3761.141-3.402.9263-5.3438 2.0107-1.9529 1.0907-3.7184 2.4266-4.5889 3.585-.4633.617-.8263 1.7253-1.083 2.9766-.252 1.229-.386 2.5152-.4346 3.4218-.0478.8948-.0265 1.8734.0528 2.7686.1306 1.4737.602 3.0661 1.5518 3.9189.7901.7094 1.7277.9112 2.8525 1.1162l.5781.1045c.0692.0102.1355.0152.1992.0196-.0115-.0807-.023-.1686-.04-.2618-.0448-.2464-.1099-.5532-.1397-.8095-.054-.4647-.1298-1.5416-.127-2.5772.0016-.5172.0223-1.0391.0792-1.4756.0284-.2178.0673-.4278.122-.6103.0513-.1708.1317-.372.2735-.5264l.1201-.1299.1738-.0254-.0068.001c.0008-.0002.0183-.0052.0361-.0088a.56.56 0 0 1 .1055-.0107.532.532 0 0 1 .3018.0918c.054.0365.0935.0786.1045.0898h-.001c.107.11.1782.2447.2246.3477.0497.1105.0906.2302.125.3389.0345.109.0664.2201.0928.3125.0281.0984.0493.1708.0673.2216.1997.5628.4632 1.0929.754 1.6397.9715 1.7216 2.4718 3.1825 4.1728 3.6094.3166.0794.6603.1487.9824.1523q.4855.0054.7491-.1914c.199-.1491.3754-.4544.5156-.8984.1355-.4295.2128-.9053.2734-1.3096l.044-.3281c.1582-1.3679.0329-2.7731-.3008-4.1143-.6022.5545-1.286.995-2.334.9473-.959-.0436-1.9382-.5832-2.5557-1.3409h-.0009c-.2329-.286-.3866-.602-.3594-1.0517l.0049-.0781.0283-.0733.0039-.0097c.0015-.0041.004-.0114.0068-.0186a.8.8 0 0 1 .0303-.0664.66.66 0 0 1 .1279-.1748c.1288-.1276.2897-.2253.4063-.293.1412-.082.2225-.1242.2998-.1748.3259-.2183.6448-.451.9541-.6982v-.001c2.5506-2.0326 4.5701-5.3633 3.3486-8.7666-.2163-.6023-.5374-1.0656-.9697-1.3418l-.1914-.1064c-.3749-.1788-.781-.2084-1.2861-.2012m37.75 2.7988c.292.0764.6167.3148.8906.461a9.3 9.3 0 0 0 1.248.5644c2.35.8554 3.9017.8274 6.3281.9385-.2243 1.3106-.5709 2.6048-.8955 3.8887-1.021-.5021-2.1061-1.024-3.248-.917l-.1416.0185c-.3277.0566-.629.207-.8467.5039-.1932.2663-.2832.6074-.25.9483.0292.2956.1606.5656.3779.7402.575.4617 1.8533.1069 2.5079-.0137.0273.983-.1818 2.0225-.3526 2.9844-.7114-.1878-1.5131-.4815-2.2471-.3174l-.1093.0293c-.2527.0783-.4823.2321-.6241.4883l-.0625.1328c-.1311.3268-.1563.7619-.0761 1.0899.0662.2689.2146.4817.4326.6191.6172.3894 1.7386.158 2.5117-.0693l.3076-.0957c.4535-.1887.9193-.3511 1.378-.5245.0055.0958.0074.192.0048.2881-.0247.9271-.1569 1.8676-.2412 2.791l-.082 1.1114c-.0274.3724-.062.7434-.1221 1.1025-.0214.1296-.0305.2492-.1181.3408l-.1348.0274c-.6878.1211-1.5769-.016-2.2559-.0508l-3.7949-.2002c-1.2892-.0681-3.1407-.0214-4.3613-.2871 2.3136-3.594 3.1652-7.8878 3.623-12.207l.0869-.8643c.0817-.8579.0582-2.8217.2667-3.5215m-16.5489-6.8213c1.0181-.0602 2.9545.4974 3.9737.8301 1.6697.5449 3.3368 1.1723 4.8369 2.1738.2336.1565.5857.3467.7207.6221.0057.4833-.3755 1.1609-.543 1.6104l-.333.9042c-.9484 2.6161-2.938 8.4157-2.3711 9.8077.0802.1968.2149.3563.3984.4306 1.6443.6639 5.2219-1.4626 6.7276-2.2656-.2932 1.7224-.6787 3.4332-1.0166 5.1465-.132.7302-.2303 1.5287-.4639 2.2275-.6069.3311-1.2862.5587-1.9267.794l-.6719.2363c-3.3971 1.1468-7.3629 1.743-10.8369 1.1397.2915-.8492.578-1.6975.8291-2.5606l.2382-.8691c.9149-3.5599 1.2369-7.3244 1.2217-11.0176-.0042-1.0498.0032-2.107-.0693-3.1553l-.0361-.4482c-.1098-1.1808-.232-2.3718-.3858-3.5459-.0595-.4539-.2744-1.3457-.2959-1.8643zm-9.2402.4912c1.7245-.135 3.2413.4137 4.5469 1.6748 2.0563 1.9862 2.9375 5.1095 3.1172 8.0596.2186 3.592-.4751 7.7085-2.6563 10.4863l-.2383.2901c-1.2155 1.4214-2.7853 2.3451-4.5713 2.4736-1.4456.1408-2.9884-.2539-4.1679-1.2207-1.8809-1.5412-2.8777-3.9468-3.2852-6.4521l-.0742-.502c-.4943-3.7672.2376-8.1148 2.2285-11.2695l.1963-.3008c1.1899-1.7661 2.6283-2.7769 4.5195-3.169zm32.4004 18.5244a19 19 0 0 0-.668.2618l-.0185.0078-.0186.0058c-.3853.1254-.9492.2891-1.5186.3614-.5433.0689-1.2146.0724-1.7236-.2491-.3364-.2122-.556-.539-.6504-.9228l-.001-.001c-.1167-.4777-.0666-1.1238.1875-1.583.2487-.4496.6671-.6747 1.0616-.7627l.1738-.0322c.4055-.0599.8052-.0156 1.166.0566.2062.0413.4187.096.6201.1514.105-.5909.2005-1.1762.2354-1.7441-.2276.0436-.4791.0877-.7217.1113-.2576.025-.5351.0325-.7998-.0049-.2631-.0372-.5481-.1232-.7861-.3145-.2956-.2374-.4732-.5747-.5401-.9287l-.0224-.1523c-.0447-.4574.0755-.9216.3437-1.291l.001-.002c.355-.4843.8622-.6796 1.3447-.7246l.2442-.0146c.9806-.0269 1.9027.3321 2.7138.7129.2303-.9039.4588-1.7982.6358-2.6983-2.1045-.0868-3.6652-.128-5.9024-.9424a9.8 9.8 0 0 1-1.3164-.5947v-.001c-.0808-.0433-.1786-.1027-.2695-.1572-.0274.2781-.0472.615-.0635.9814-.0294.6622-.0455 1.3993-.0879 1.8448-.4147 4.3695-1.165 8.8389-3.3906 12.6445.4164.0476.8783.0791 1.3574.0977.3723.0144.7654.0235 1.1455.0332l1.0684.0371 3.7949.2002.5957.0439c.2039.017.4067.0334.6074.044.2932.0153.5598.0147.7901-.0108.113-.6894.1244-1.3826.1953-2.1543.0729-.7988.1712-1.5546.2168-2.3096m12.3183-13.7353c.2703-.0136.6004-.0157.8555.0908.1931.081.3447.2257.419.4434.3097.9053-.3313 3.8687-.7002 4.8379-.136-.1164-.2607-.2493-.3975-.3643l-.1416-.1074c-.4647-.3142-1.2135-.336-1.7236-.1758-.3449.1086-.7352.3247-.9024.7002-.1005.2257-.1006.4853-.04.7246.2595 1.0238 1.4944 1.4671 2.2607 1.9014.3796.215.7528.4487 1.084.75.5357.4875.901 1.1092 1.1279 1.8349.5541 1.7686.5205 3.9626-.2207 5.6621l-.1347.2745c-.3356.6091-.8165.9914-1.4493 1.2255-2.5744.9532-5.4257-.1612-7.789-1.4345l-.4668-.2559c-.662-.4029-1.3416-.7919-1.8643-1.4111.2536-.594.5692-1.1534.8516-1.7305.3215-.6562.6156-1.3386.9844-1.9638.1131.1089.2277.2154.3437.3203.8603.7783 1.961 1.3325 3.0889 1.2714l.2256-.0205c.3557-.0455.7781-.189 1.0488-.4775l.1064-.1328c.1319-.1965.1677-.4329.1348-.6719-.1901-1.3711-1.7039-1.8316-2.8057-2.2041l-.4414-.1562c-.5304-.204-1.0643-.4468-1.5175-.8233-.363-.3011-.6444-.6814-.752-1.165l-.0351-.2139c-.0843-.7741.1297-1.5286.5585-2.1367.2717-.3851.6195-.7257.9844-1.0176l.3692-.2754c.6855-.4792 1.4342-.8619 2.1796-1.2334l.7422-.3711c.94-.4772 1.8882-.9978 2.8633-1.3789.3741-.1461.7589-.2663 1.1533-.3154m-34.9482-4.7647c.0166.1188.039.2535.0654.4014.0328.1831.0719.3845.1074.5742l.085.5039v.001c.1549 1.183.2777 2.3813.3877 3.5645.1134 1.2221.1027 2.458.1074 3.6474.0153 3.7218-.3087 7.5315-1.2373 11.1446-.2543.9893-.5656 1.9505-.8867 2.8994 3.4562.4593 7.3717-.2296 10.6709-1.4405.5935-.218 1.1627-.4112 1.6816-.6709.1771-.605.2645-1.2717.3907-1.9697l.0009-.0078c.2738-1.3882.5701-2.7475.8282-4.1152-.6989.3785-1.5646.8363-2.4366 1.208-.6592.2809-1.3431.5243-1.9804.6523-.6257.1257-1.2731.1546-1.8184-.0654h-.001c-.3414-.1382-.5577-.421-.6738-.7061-.1218-.299-.1474-.6743-.1338-1.0507.0141-.3897.0731-.8404.1612-1.3233.1763-.9665.4791-2.1095.8183-3.2451.6793-2.2738 1.5219-4.5665 1.8526-5.4551.0478-.1284.1085-.269.1669-.4013.0606-.1373.1206-.2712.1749-.4053.0817-.2021.1324-.366.1552-.4912a1.1 1.1 0 0 0-.1103-.0957c-.1206-.0913-.2235-.1492-.3741-.25v-.001c-1.4405-.9615-3.0539-1.5706-4.7138-2.1123-.5012-.1636-1.2257-.3824-1.9463-.5518-.4927-.1158-.9588-.2012-1.3418-.2383m-5.5713 2.0098c-1.2017-1.1608-2.5735-1.6558-4.1435-1.5371-1.9233.3109-3.3512 1.2497-4.545 3.0215-2.0579 3.0552-2.8413 7.4332-2.3437 11.2256.3331 2.538 1.2524 4.9467 3.0078 6.4863l.1728.1465.2032.1572c1.0384.7603 2.3534 1.0733 3.5986.9522l.0127-.001c1.7345-.1249 3.2733-1.0735 4.4521-2.5742 2.0752-2.6429 2.7657-6.6165 2.5508-10.1465-.1763-2.8956-1.0396-5.8701-2.9658-7.7305m40.5674 3.2539c-.3321.0431-.6688.1456-1.0186.2822-.9453.3694-1.8592.872-2.8193 1.3594-1.0079.5119-1.9859.9548-2.8623 1.5674-.4655.3256-.9139.7217-1.2315 1.1719-.362.5135-.5401 1.1468-.4697 1.7939.0465.4268.2671.7649.6094 1.0489l.001.0009c.3887.3228.8601.5416 1.3769.7403.264.1013.5567.1912.9199.3183.3457.121.7246.2666 1.0821.4551.668.3522 1.3321.897 1.5283 1.7998l.0332.1856v.0009c.0454.3303-.0003.6976-.2158 1.0186h-.001c-.3731.5539-1.0417.7677-1.5059.8271-1.3462.1724-2.624-.4386-3.5888-1.2685-.2254.441-.431.9021-.668 1.3857l-.001-.001c-.2495.51-.4899.9485-.707 1.4141.4249.4189.9453.7224 1.5283 1.0772 1.2082.6765 2.5383 1.3272 3.8887 1.6884 1.3524.3618 2.6918.4247 3.9365-.0361h.001c.6003-.2222 1.019-.5896 1.2988-1.2314l.1211-.3008c.5685-1.5317.5711-3.4474.0811-5.0117v-.001c-.2051-.6557-.5279-1.1961-.9873-1.6143v.001c-.2895-.2634-.6245-.4751-.9942-.6846-.1815-.1028-.3833-.2022-.625-.3281-.2318-.1208-.4856-.2596-.7275-.4219-.4779-.3204-.9722-.776-1.1465-1.4638-.08-.3161-.0906-.6959.0674-1.0508.2542-.5715.8142-.8503 1.209-.9746.3215-.101.702-.1407 1.0693-.1114.3638.0292.7578.1302 1.083.3497.0028.0018.0061.0039.0088.0058a18.6 18.6 0 0 0 .3643-1.6465c.0818-.476.1411-.9408.1621-1.3349.0219-.4134-.003-.6849-.0469-.8135v-.001c-.0178-.0522-.0457-.0896-.0898-.1182l-.0499-.0253c-.1336-.0558-.3469-.0652-.6142-.0528m-44.3858.8819c.8897.0576 1.5421.7585 1.9327 1.6025.3997.8641.593 2.0011.5146 3.21s-.4159 2.3108-.9238 3.1162c-.4962.7868-1.2341 1.3984-2.124 1.3408-.8897-.0578-1.5421-.7594-1.9327-1.6035-.3997-.8641-.5929-2.0003-.5146-3.209.0784-1.2088.4169-2.3109.9248-3.1162.4963-.7868 1.2332-1.3983 2.123-1.3408m-.0322.499c-1.2417-.0802-2.3685 1.7061-2.5166 3.9902l-.0156.4229c-.0201 2.0931.8319 3.7827 1.9961 3.8584 1.1642.0754 2.2272-1.4902 2.4775-3.5684l.0391-.4219c.1434-2.2129-.6843-4.0809-1.8652-4.2685zM13.206 68.7753c.0961-.0029.286-.0073.4708.0517h.0009c.2728.0872.5153.293.6436.5694.1116.2405.1367.5039.1308.7246a2.6 2.6 0 0 1-.0976.6298c-.24.8427-.7735 1.5288-1.3692 2.0752-.5963.5471-1.2808.9775-1.8652 1.3057l-.0088.0049a3.6 3.6 0 0 1-.3222.1533l-.004.001c-.079.0321-.2031.0797-.3505.0869-.1637.0079-.311-.0345-.4444-.1045l-.1357-.0713-.0723-.1357c-.073-.1371-.0984-.2997-.1113-.4102-.015-.1293-.0219-.2784-.0235-.4336-.003-.3116.0141-.6863.04-1.0566.0517-.7359.1419-1.5057.1964-1.7979l.0342-.1806.1416-.1153c.8718-.7096 2.0579-1.1539 3.0947-1.2929l.0264-.003zm.0147.5c-.9617.1289-2.0573.5428-2.8457 1.1845-.0987.529-.3552 2.9903-.1524 3.3711.1051.0552.1852.0574.2774.0313l.0967-.0342a3 3 0 0 0 .1406-.0625l.1377-.0693c1.0689-.6004 2.4067-1.5128 2.9092-2.8164l.0888-.2657c.0743-.2606.1175-.6144.0371-.8926l-.0429-.1142a.583.583 0 0 0-.2373-.2578l-.1045-.0459c-.0946-.0305-.2066-.0312-.3047-.0283"/><path fill="#c4c4c4" fill-rule="evenodd" d="M14.5189 31.842c-4.7064.6193-9.2477-4.5825-10.0734-11.6009-.867-7.0596 2.2294-13.2935 6.9358-13.9128s9.2064 4.5826 10.0734 11.6422c.867 7.0183-2.2294 13.2523-6.9358 13.8715M20.34 18.1356c-.7431-6.1926-4.6238-10.7752-8.7523-10.1972-4.0871.5367-6.7706 5.9862-6.0275 12.1789.7431 6.1926 4.6651 10.7339 8.7523 10.1972 4.0872-.578 6.8119-6.0275 6.0275-12.1789" clip-rule="evenodd"/><path fill="#fff" fill-rule="evenodd" d="M14.3124 30.3145c-4.0872.5367-8.0092-4.0046-8.7523-10.1972s1.9404-11.6422 6.0275-12.179c4.0872-.5366 8.0092 4.0047 8.7523 10.1973.7844 6.1514-1.9403 11.601-6.0275 12.1789" clip-rule="evenodd"/><path fill="#000101" fill-rule="evenodd" d="M18.0693 26.0622c-1.9816.0826-3.7156-1.9816-3.8807-4.6651-.1238-2.6835 1.3624-4.9129 3.3853-5.0367 1.9817-.1239 3.7156 1.9816 3.8808 4.6651.1238 2.6835-1.3624 4.9129-3.3854 5.0367" clip-rule="evenodd"/><path fill="#c4c4c4" fill-rule="evenodd" d="M31.0739 29.6127c-4.5.578-8.7936-4.3349-9.6193-11.0642-.8257-6.7294 2.1468-12.633 6.6468-13.2523 4.5-.578 8.7936 4.3348 9.6192 11.0642.8257 6.7294-2.1467 12.633-6.6467 13.2523m5.5733-13.0872c-.7018-5.9036-4.4174-10.2385-8.3394-9.7018-3.8807.5367-6.4817 5.7385-5.7385 11.6009.7018 5.9037 4.4174 10.2386 8.3394 9.7019 3.8807-.4955 6.4817-5.6973 5.7385-11.601" clip-rule="evenodd"/><path fill="#fff" fill-rule="evenodd" d="M30.9087 28.1264c-3.922.5367-7.6376-3.7981-8.3395-9.7018-.7431-5.8624 1.8578-11.0642 5.7386-11.601 3.922-.5366 7.6376 3.7983 8.3394 9.7019.7431 5.9037-1.8578 11.1055-5.7385 11.6009" clip-rule="evenodd"/><path fill="#000101" fill-rule="evenodd" d="M34.5005 25.0301c-1.9817.0826-3.7156-1.9816-3.8807-4.6651-.1239-2.6835 1.3623-4.9129 3.3853-5.0367 1.9816-.1239 3.7156 1.9816 3.8807 4.6651.1239 2.6835-1.3624 4.9129-3.3853 5.0367" clip-rule="evenodd"/></svg>