<svg xmlns="http://www.w3.org/2000/svg" width="82" height="91" fill="none"><g clip-path="url(#a)"><path fill="#fefefe" stroke="#fff" stroke-width="2" d="M65.83 1.4c.49-.09.96.03 1.26.13l.57.22c1.48-.23 2.72-.07 3.98-.05.88.02 1.74-.02 2.74-.03.96 0 1.97.02 2.95.21.83.16 1.46.77 1.84 1.37.39.62.65 1.4.6 2.17q-.11 1.87-.25 3.75c-.04.57-.03 1.14-.03 1.8 0 .65-.01 1.35-.15 2.06a3.4 3.4 0 0 1-.77 1.5c0 .73-.05 1.63-.08 2.34l.23.22.09.11c.44.54.6 1.2.66 1.72q.05.41.06.83v.67q.05 1.7.03 3.4.13.2.25.43c.13.26.3.63.31 1.04.07 1.35-.08 2.91-.11 4.1-.03.89-.04 1.86-.12 2.79-.02.18-.08.35-.1.43a5 5 0 0 1-.49.97 3.3 3.3 0 0 1-1.56 1.14q.14 1.85.43 3.72.05.32.16.8.11.46.21 1a7 7 0 0 1 .15 1.4q.64.37 1.06.87c.43.53.63 1.11.69 1.7.06.56-.01 1.14-.1 1.67l-.15.8-.16.82a97 97 0 0 0-.66 4.22v.01l-1-.14 1 .14a269 269 0 0 0-1.14 8.8c-.09.85-.08 1.9-.64 2.9a4.8 4.8 0 0 1 1.36 2.88c.15 1.16-.01 2.4-.2 3.46-.17.93-.34 2.05-.81 3.09.71.92 1.2 1.83 1.55 3.12.64 2.25.68 5.44-.36 7.68a7.2 7.2 0 0 1-4.15 3.82c-1 .34-1.91.37-2.78.37-2.47 0-4.82-.73-6.97-1.82q-.22.6-.69 1.18a3.6 3.6 0 0 1-2.5 1.24c-.79.08-1.67-.02-2.23-.05l-3.08-.15-4-.23c-.72-.04-1.73-.05-2.64-.22l-.38-.08a3 3 0 0 1-1.26-.72c-3 .97-6.4 1.42-9.52 1.32l-.66-.03c-.78-.05-1.75-.1-2.63-.41a4 4 0 0 1-1.68-1.2c-1.1.62-2.43 1.08-3.56 1.21a9.5 9.5 0 0 1-6.92-1.65 6 6 0 0 1-1.23 1.68 5 5 0 0 1-2.7 1.3 8.6 8.6 0 0 1-5.37-1.2q-.63.58-1.53.82l-.19.04c-1.12.24-2.6.03-3.88-.34-1.3-.37-2.64-.95-3.51-1.63-1.86-1.43-2.83-3.6-3.2-5.86a25 25 0 0 1-.02-6.63c.24-1.99.7-4.01 1.45-5.57q-.65-.71-.92-1.56a9 9 0 0 1-.3-1.17l-.2-1.14c-.7-3.9-.75-7.9-.7-11.76.02-.93.04-1.86.29-2.86a3 3 0 0 1-.26-1.19c0-.84.08-1.72.13-2.48q.15-1.94.26-3.87l.48-7.7c.08-1.27.16-3.14.32-4.45.1-.82.48-1.58 1.09-2.12l.12-.1q.57-.46 1.18-.6a20.5 20.5 0 0 1-2.3-10.23c.13-4.2 1.52-8.41 4.44-11.23a9.3 9.3 0 0 1 7.4-2.72c2.97.22 5.28 1.79 7.14 3.88 1.76-2.91 4.3-5.12 7.86-5.45 4.37-.4 7.99 2.3 10.25 5.9q.3-.68.67-1.32a7 7 0 0 1 2.73-2.79 4 4 0 0 1 3.43-.02c.6-.22 1.34-.37 2.03-.46.7-.09 1.45-.13 2.09-.08q.7-.41 1.37-.58l.8-.18.71-.16c.95-.22 2-.43 3.18-.05.58-.18 1.1-.22 1.6-.22q.44.01.83.04.4.04.78.04c.61 0 1.35-.04 2-.1 1.35-.1 2.5-.45 4.03-.72Z"/><path fill="#08393c" d="M66.21 3.19c.4.05.8.27 1.17.45.68-.1 1.17-.17 1.85-.21s1.18.1 1.8.1l3.55-.02c.74 0 1.53-.02 2.26.13.54.1 1.15.85 1.11 1.49q-.23 3.7-.35 7.41c-.01.52-.83 1.13-.84 1.48-.02 1.12-.1 2.58-.11 3.66 1.09.89 1.05 1.1 1.07 2.61l.01.78q0 1.67.04 3.35c.17.22.46.58.5.88l.01.05c.14 1.16-.04 2.65-.09 3.85-.03.85.01 1.76-.1 2.6-.24 1.7-1.75 1.02-2.17 1.5-.28.31.43 5.32.59 6.18.1.58.3 1.18.37 1.76.06.53-.27 1.02-.22 1.5.13.24.9.34 1.24.56 1.3.8.54 2.6.32 3.95a279 279 0 0 0-1.79 13.01c-.06.59-.12 1.34-.23 1.9-.14.72-1.19 1.11-1.43 1.57.03.18 1.14.63 1.46.92 1.77 1.63.66 5.15.18 7.2-.22.95-1.14.75-.16 1.82q.4.43.7.93c1.48 2.47 1.68 6.97-.04 9.27-2.71 3.63-7.98 2.03-11.26.34-.48-.25-1.13-.8-1.62-.83-.34-.02-.27 1.32-.37 1.56-.48 2.08-2.17 1.74-3.72 1.66l-2.75-.15q-2.35-.1-4.7-.26c-.64-.03-1.6 0-2.2-.17-.47-.14-.74-.56-1.1-.88-.16-.13-.27-.15-.45-.13-.56.07-1.16.36-1.72.52q-1.44.4-2.9.62c-1.73.29-7.03.78-8.45-.3-.64-.48-.52-1.31-.98-1.7-.26-.04-.9.48-1.16.65a7.95 7.95 0 0 1-9.38-.3c-.4-.31-.81-.8-1.22-1.13-.16-.12-.18-.1-.33-.07-.2.17-.31.9-.4 1.21-.96 3.62-4.51 3.45-7.01 2-.37-.22-.92-.64-1.3-.83-.45.27-.65.9-1.14 1.18-1.08.62-3.1.08-4.22-.22A6.3 6.3 0 0 1 4.5 83.4c-1.75-3.88-1.06-8.85.04-12.84.24-.85.97-1.61 1.1-2.19-.14-.34-1.08-.55-1.38-1.29-.27-.67-.39-1.39-.52-2.1-.6-3.2-.76-6.38-.75-9.64 0-1.23 0-2.5.1-3.73.04-.44.18-.92.3-1.35-.11-.4-.35-.76-.35-1.17q.02-1.07.11-2.1l.25-3.45.56-9.17c.05-.86.11-3.12.33-3.8.56-1.81 2.73-.55 3.55-.97.04-.05.13-.19.09-.25-.57-.92-1.25-1.76-1.74-2.75a19 19 0 0 1-1.87-8.23c-.04-5.76 2.65-12.05 8.31-12.86 3.71-.52 6.77 1.87 8.88 5.05.07.1.21.12.32.12.22-.1.76-1.39.93-1.7 1.25-2.32 3.13-4.2 5.53-4.86 4.16-1.14 8.03 1.68 10.16 5.5.24.44 1.17 2.65 1.37 2.77q.07.02.15-.01c.33-.16.48-1.29.58-1.66.45-1.78 1.53-4.16 3.04-5.07 1.1-.67 1.74-.19 2.8.15.33-.08.64-.23.97-.32.68-.2 1.42-.3 2.12-.35.48-.04 1.01.1 1.48.02.27-.05.47-.24.7-.38a14 14 0 0 1 3.92-.8c.36.04.68.23 1.01.34.63-.22.97-.4 1.66-.35 1.25.1 2.48.05 3.73-.03 1.45-.1 2.82-.5 4.24-.74"/><path fill="#bdfd9e" d="m55.06 5.64.25-.01c.22.23-.02.95-.07 1.28q-.2 1.08-.34 2.18a77 77 0 0 0-.63 15.89c.05.7.15 1.4.18 2.12-.61.11-1.83 0-2.47-.08-.22-.63-.38-2.31-.53-3.08q-.32-1.6-.7-3.2c-.09-.36-.28-1.57-.6-1.65-.16.15-.1.57-.13.83-.14 1.62-.01 3.3.08 4.92.06.95.28 2.03.22 2.98-.85.1-2.46-.02-3.34-.1l.4-1.46c1.1-4.96 1.04-9.96.73-15.02q-.07-1.14-.22-2.26c-.06-.46-.22-1.42-.2-1.85l.09-.09a8 8 0 0 1 2.46-.27c.14.07.17.35.2.5.12.76.18 1.53.28 2.28q.3 2.43.76 4.82c.09.46.46 2.74.75 2.9l.07-.03a1 1 0 0 0 .1-.4c.1-3.53-.09-7.1.02-10.62.42-.15 2.17-.51 2.64-.58"/><path fill="#bdfd9e" fill-rule="evenodd" d="M44.6 7c1.17-.02 1.67 1.2 1.96 2.27q.34 1.19.5 2.43.28 2.34.3 4.7c0 2.8-.4 11.64-3.59 12.13-3.52-.4-2.86-9.96-2.5-12.66.28-2.18 1.15-8.23 3.33-8.87m-.13 5.9c-1.43 1.01-1.88 9.42-.46 9.86 1.41-.67 1.7-9.19.46-9.86" clip-rule="evenodd"/><path fill="#000" d="M44.6 7c1.17-.02 1.67 1.2 1.96 2.27q.34 1.18.5 2.43.28 2.34.3 4.7c0 2.8-.4 11.64-3.59 12.13l-.16-.03c-3.12-.63-2.76-8.82-2.41-12.05l.07-.58c.28-2.18 1.15-8.23 3.33-8.87m.08.5c-.34.13-.7.47-1.04 1.1a11 11 0 0 0-.94 2.4 37 37 0 0 0-1.14 12.03c.12 1.36.35 2.61.75 3.53q.58 1.34 1.45 1.46.81-.15 1.48-1.43c.45-.88.8-2.06 1.04-3.35.49-2.58.58-5.45.58-6.83l-.01-.59a42 42 0 0 0-.28-4.06l-.1-.6q-.15-.89-.39-1.76A5 5 0 0 0 45.5 8q-.32-.49-.82-.51m10.63-1.87c.22.23-.02.95-.07 1.27q-.2 1.1-.34 2.19a77 77 0 0 0-.63 15.89c.05.7.15 1.4.18 2.12l-.25.03a13 13 0 0 1-2.22-.11c-.2-.55-.34-1.9-.47-2.75l-.06-.33c-.2-1.07-.46-2.14-.7-3.2-.09-.36-.28-1.57-.6-1.65-.16.15-.1.57-.13.83-.14 1.62-.01 3.3.08 4.92.06.95.28 2.04.22 2.98l-.35.03a27 27 0 0 1-3-.13l.4-1.46c1.12-4.96 1.05-9.96.74-15.02q-.07-1.14-.22-2.26c-.06-.46-.22-1.42-.2-1.85l.09-.09a9 9 0 0 1 2.46-.27c.14.07.17.35.2.5.12.76.18 1.53.28 2.28q.3 2.43.76 4.82c.08.44.44 2.6.73 2.89l.02.02.07-.04a1 1 0 0 0 .1-.4c.1-3.1-.04-6.2 0-9.3l.02-1.32a25 25 0 0 1 2.64-.58zm-.43.55a34 34 0 0 0-1.96.42q-.06 2.45-.01 4.92.05 2.66-.02 5.33 0 .3-.13.6l-.07.16-.16.08-.07.03-.24.13-.24-.14a1 1 0 0 1-.2-.2l-.11-.17-.14-.37q-.13-.42-.24-.93c-.14-.66-.26-1.36-.3-1.57l-.22-1.21q-.31-1.8-.55-3.64l-.13-1.15-.07-.55-.08-.56-.02-.11h-.1a11 11 0 0 0-1.52.17l-.1.02a10 10 0 0 0 .13 1.04l.06.43.18 1.72.04.58c.3 5.07.38 10.13-.75 15.16v.02l-.24.88c.7.06 1.57.1 2.2.09q0-.47-.06-.97l-.13-1.15-.02-.37c-.1-1.6-.23-3.33-.08-5v-.43q.01-.14.05-.32c.03-.1.08-.26.2-.38l.21-.22.29.08c.17.05.29.16.36.24q.1.13.17.27.13.27.2.57c.11.37.2.8.22.95q.38 1.58.71 3.21l.06.34.18 1.28q.1.66.2 1.1a17 17 0 0 0 1.54.08l-.05-.55-.1-1.08c-.4-5.42-.07-10.64.63-15.99l.34-2.2.08-.33zM44.7 12.46c.33.18.52.54.63.86q.19.52.29 1.24c.13.94.16 2.12.12 3.29a19 19 0 0 1-.4 3.3q-.16.71-.4 1.24c-.15.32-.37.66-.71.82l-.18.09-.2-.06c-.38-.12-.6-.48-.74-.79a5 5 0 0 1-.32-1.2 19 19 0 0 1 .32-6.56q.17-.74.41-1.3c.16-.35.37-.7.66-.9l.25-.18zm-.24.44c-1.4 1-1.85 9.15-.51 9.84l.06.02c1.41-.67 1.7-9.19.45-9.86m5.64-5.65"/><path fill="#3dd7c2" d="M76.8 44.69h.03c.1.14.04.38.01.54q-.1.64-.23 1.27-.31 1.83-.59 3.68-.87 5.53-1.46 11.1c-.68.4-2.43 1.27-3.12 1.5-.22-.7-.91-4.17-1.24-4.52h-.07c-.42.52-1.27 4.61-1.55 5.5l-.02.07c-1.31.39-1.91.58-3.26.74-.25-4.48.21-9.18-.73-13.6-.07-.33-.38-1.92-.37-2.1.1-.16.68-.25.86-.27 1.13-.17 2.17-.69 3.24-1 0 .77-.1 1.55-.13 2.32-.04.94-.13 5.77.28 6.4.05.08.02.06.11.08.17-.25.33-.82.43-1.13q.36-1.12.67-2.26c.1-.4.56-2.52.72-2.71.22.18 1.03 4.98 1.49 5.08.26-.2.44-2.5.51-2.95.32-1.94.21-3.93.24-5.89 0-.29 1.35-.55 1.6-.63q1.36-.43 2.58-1.22m-34.76 3.65c.68.04 1.38.2 2.06.28.96.13 1.95.2 2.9.4.75 1.86 1.45 3.65 2.45 5.38.14.24.43.86.69.92.31-.24.12-4.16.1-4.72-.03-.42-.2-1.19-.03-1.57.35-.16 4.58-.26 5.23-.2-.17.82-.39 1.64-.56 2.46a49 49 0 0 0-1.2 9.02c0 .67.1 1.81-.04 2.41-.29.13-1.38-.38-1.7-.52-.46-.2-2.66-1.16-2.9-1.45-.28-.33-.4-1.2-.57-1.63a17 17 0 0 0-1.9-3.74c-.1-.14-.24-.4-.4-.45-.06-.02-.04-.01-.1.03-.27.73.44 3.6.4 4.6 0 .07.02.04-.04.1-.55-.09-1.08-.35-1.6-.51a23 23 0 0 0-2.7-.63c-.14-.02-.25-.05-.34-.2.04-.44.23-.93.31-1.38a20 20 0 0 0 .22-6.63c-.05-.38-.37-1.7-.28-1.97m20.92.19.1.08c0 .7-.06 1.41-.09 2.11-.04 1.06-.07 2.1-.18 3.16-.44-.15-.86-.35-1.3-.44-.52-.1-1.29-.17-1.73.2-.29.24-.43.65-.48 1.03-.06.43.04.72.26 1.05.58.31 1.06.19 1.63-.07.13-.06.24-.13.39-.12.07.05.1.07.13.17a9 9 0 0 1-.06 2.51q-.05.17-.23.18c-.13.02-.3-.05-.44-.08a2 2 0 0 0-1.35.1l-.05.02c-.13.2-.25.37-.3.62-.1.4-.1.88.1 1.24.52.94 2.15.23 2.83-.11.18-.1.36-.25.54-.33a.3.3 0 0 1 .23-.01c.15.31.17 4.28.19 4.99l-.03.07c-.13.12-.38.1-.55.11-2.1.08-4.1-.2-6.14-.83-.33-.1-.84-.2-1.1-.47a1 1 0 0 1-.01-.34c.07-.6.23-1.21.34-1.8q.25-1.39.42-2.8.45-3.71.58-7.47c.02-.64-.07-1.27-.03-1.93.82-.09 1.65-.05 2.47-.1 1.31-.1 2.59-.38 3.86-.74"/><path fill="#000" d="M63.06 48.6c0 .71-.06 1.42-.09 2.12-.04 1.06-.07 2.1-.18 3.16-.38-.13-.75-.3-1.14-.4l-.17-.04c-.5-.1-1.28-.17-1.72.2l-.1.1c-.22.24-.33.6-.38.93-.06.43.04.72.26 1.05.5.27.94.21 1.42.02l.2-.09c.14-.06.25-.13.4-.12.07.05.1.07.13.17a9 9 0 0 1-.06 2.51q-.05.17-.23.18l-.22-.02-.22-.06a2 2 0 0 0-1.35.1l-.05.02c-.13.2-.25.37-.3.62l-.04.15c-.05.37-.03.78.14 1.09.52.94 2.16.23 2.83-.11.18-.1.36-.25.54-.33a.3.3 0 0 1 .23-.01c.15.3.17 4.28.19 4.99l-.03.07-.05.04c-.14.08-.35.07-.5.07l-.39.01a18 18 0 0 1-4.99-.62l-.76-.22c-.3-.09-.72-.18-1-.37l-.1-.1a1 1 0 0 1-.01-.34l.16-.9.18-.9q.25-1.38.42-2.8.45-3.71.58-7.47c.02-.56-.05-1.12-.04-1.69l.01-.24q.92-.07 1.85-.07l.62-.03c1.31-.1 2.59-.38 3.86-.74zm13.77-3.9c.1.13.04.37.01.53q-.1.64-.23 1.27-.31 1.83-.59 3.68a211 211 0 0 0-1.46 11.1l-.3.18a27 27 0 0 1-2.82 1.32c-.22-.7-.91-4.17-1.24-4.52h-.07c-.42.52-1.27 4.61-1.55 5.5l-.02.07c-1.31.38-1.91.58-3.26.74-.25-4.48.21-9.18-.73-13.6-.06-.29-.3-1.54-.36-1.98v-.13c.07-.11.41-.19.65-.23l.2-.03c1.13-.17 2.17-.69 3.24-1 0 .77-.1 1.55-.13 2.32-.04.94-.13 5.77.28 6.4.05.08.02.06.11.07q.14-.2.24-.53l.19-.59q.36-1.12.67-2.26c.1-.4.56-2.52.72-2.71.22.18 1.03 4.98 1.49 5.08.19-.15.34-1.48.44-2.33l.07-.62c.32-1.94.21-3.93.24-5.89 0-.29 1.35-.55 1.6-.63q1.36-.43 2.58-1.22zm-14.28 4.46q-1.43.4-2.9.56l-.52.05-1.26.04-.75.02.02.49q.02.47.02 1a91 91 0 0 1-.58 7.51q-.17 1.42-.43 2.83c-.11.65-.26 1.19-.34 1.77v.02l.2.09c.2.07.35.1.57.16 1.98.61 3.93.9 5.97.81h.09l-.04-2.31-.05-1.52v-.13l-.14.07c-.34.18-.97.47-1.6.59-.6.1-1.46.1-1.89-.68a2.3 2.3 0 0 1-.15-1.6l.03-.12q.15-.42.35-.67l.09-.12.13-.06h.02l.03-.02.2-.07q.72-.23 1.46-.05l.12.03.02-.16a12 12 0 0 0 .03-1.5v-.03q-.4.18-.84.24a2 2 0 0 1-1.1-.23l-.11-.06-.07-.1q-.2-.29-.3-.65a2 2 0 0 1-.05-.76l.03-.16a2 2 0 0 1 .63-1.19c.34-.28.77-.37 1.13-.39q.57-.02 1.01.09l.2.04q.28.08.54.18h.03q.08-1.2.12-2.47zm13.72-3.58q-.92.5-1.9.81l-.38.1-.87.27c-.02 1.85.07 3.83-.24 5.75l-.08.6-.27 1.9a3 3 0 0 1-.18.55 1 1 0 0 1-.19.22l-.18.13-.22-.04a.7.7 0 0 1-.38-.26l-.15-.26q-.12-.27-.23-.63a28 28 0 0 1-.63-2.53l-.23.95q-.31 1.16-.67 2.28l-.2.6a3 3 0 0 1-.3.66l-.17.26-.32-.05-.07-.01-.15-.05-.2-.19-.02-.03-.01-.01c-.11-.17-.17-.4-.2-.6l-.1-.77a36 36 0 0 1-.1-1.98c-.02-1.42.02-2.87.04-3.35q.02-.6.08-1.18l.03-.42-.91.33a9 9 0 0 1-2.13.53l.11.61.21 1.1c.48 2.26.6 4.58.64 6.87.03 2.13-.01 4.21.08 6.26.87-.13 1.42-.3 2.37-.57.15-.54.4-1.6.67-2.68a37 37 0 0 1 .67-2.32q.09-.27.25-.49l.14-.17h.22l.08-.01.23-.01.16.17q.1.11.15.21l.09.21.17.53c.12.4.25.9.37 1.4l.43 1.84c.7-.3 1.72-.8 2.31-1.13q.59-5.46 1.44-10.88.28-1.84.59-3.69zm-34.23 2.76c.68.04 1.38.2 2.06.28.96.13 1.95.2 2.9.4.75 1.86 1.45 3.65 2.45 5.38.13.22.4.78.64.9l.05.02c.24-.18.19-2.43.13-3.78l-.04-.94c-.01-.4-.17-1.1-.05-1.5l.03-.07c.35-.16 4.58-.26 5.23-.2-.17.82-.39 1.64-.56 2.46l-.23 1.11c-.52 2.6-.92 5.27-.96 7.91-.01.67.1 1.81-.05 2.41l-.06.02c-.26.03-.86-.2-1.28-.38l-.37-.16a25 25 0 0 1-2.83-1.39l-.06-.06c-.28-.33-.4-1.2-.57-1.63a19 19 0 0 0-1.6-3.3l-.3-.44c-.1-.15-.24-.4-.4-.45-.06-.02-.04-.01-.1.03-.27.73.44 3.6.4 4.6 0 .07.02.04-.04.1l-.2-.04c-.48-.11-.94-.33-1.4-.47q-1.34-.4-2.7-.63c-.14-.02-.25-.05-.34-.2.04-.44.23-.93.31-1.38a20 20 0 0 0 .3-5.9l-.08-.73c-.05-.38-.37-1.7-.28-1.97m.53.56.05.3.2 1.05.08.75q.1 1.12.1 2.25a21 21 0 0 1-.4 3.78 6 6 0 0 1-.2.73l-.06.3q.97.16 1.95.42l.68.19q.44.14.82.3l.15.04-.05-.42-.2-1.36q-.11-.72-.16-1.35-.03-.3-.02-.57t.09-.52l.05-.14.12-.1.13-.08a.5.5 0 0 1 .31-.05l.12.03c.23.08.39.27.46.36l.2.28a18 18 0 0 1 1.94 3.85c.1.24.19.63.26.9a4 4 0 0 0 .22.58l.07.05.29.16q.36.2.85.43c.63.3 1.29.58 1.51.68l.37.16.7.27q.02-.28.02-.62c-.01-.41-.04-.9-.03-1.24.05-3.07.58-6.18 1.2-9.12l.28-1.25.15-.63a66 66 0 0 0-4.18.15l.01.3.04.41.04.41a54 54 0 0 1 .06 4.01 5 5 0 0 1-.13.82 1 1 0 0 1-.22.3l-.19.15-.23-.05a1 1 0 0 1-.44-.29q-.15-.16-.25-.33l-.31-.54c-.98-1.68-1.67-3.42-2.38-5.2-.84-.15-1.7-.21-2.6-.33-.54-.07-1-.16-1.47-.22"/><path fill="#bdfd9e" d="M69.13 5.07c.29-.03.5-.03.8-.02.05.97-.14 2.33-.21 3.34l-.33 5.43q-.13 2.23-.23 4.45c-.14 2.75-.1 5.5-.17 8.26-.6.2-2.11.46-2.73.47q.14-.65.25-1.31c.1-.57.59-4.35.36-4.65q-.13-.14-.32-.14c-.36-.06-1.25-.04-1.52.26-.42.46-.12 5.05-.08 5.97-.28.07-.62.1-.91.15-.57.07-1 .14-1.57.14.17-3.53.43-6.95.5-10.5q.01-1.6-.05-3.2c-.02-.62-.06-1.4-.03-2 .69 0 2.07.11 2.74.2-.17.82-.76 3.94-.56 4.64q.13.16.31.18c.3.04 1.52.04 1.7-.21.13-.18.18-1.2.2-1.45q.1-2.01.11-4.02c-.03-1.89-.15-3.77-.19-5.67.39-.14 1.47-.26 1.93-.32m3.07.09h.56c1.2 0 2.4-.03 3.6.04q0 .4-.05.8c-.22 2.05-.2 4.1-.31 6.17-1.52-.75-2.83-1.02-2.99 1.46-.03.43.03.96.3 1.3.56.23 1.25-.22 1.8-.46 0 1-.04 2.42-.18 3.4-.82-.22-1.72-.15-2 .93-.12.46-.13 1.24.09 1.66.64 1.22 2.32-.48 2.97-.9l.04-.03q.05.34.05.7c.03 1.28.09 2.8.03 4.08q-.29.2-.61.35-1.82.75-3.67 1.37c-.24.09-1.55.63-1.7.5-.07-.38.13-2.32.18-2.87.33-4.14.47-8.28.63-12.43l.12-3.59c.03-.8.04-1.65.13-2.44q.5-.04 1-.04"/><path fill="#bdfd9e" d="M65.9 4.93h.2l.07.09q.06.24.05.5a42 42 0 0 0-.2 4.25c0 .2-.01.5-.07.68q-.13.09-.3.04c-.25-.05-.5-.18-.73-.28a7 7 0 0 0-1.75-.54c-.41-.04-.86 0-1.18.3-1.23 1.18-.91 11.22-.84 13.27.05 1.24.25 2.53.16 3.77q-.69.06-1.39.1c-.63.07-1.25.18-1.88.2 0-.58.18-1.48.28-2.07q1.04-6.25 1.17-12.61c0-.41.07-1.66-.12-1.88-.37-.42-1.79 1.23-1.96 1.46-.07-1.6.03-3.24.07-4.84q.02-.88.14-1.77c1.6 0 3.36.02 4.95-.09 1-.07 2.32-.37 3.32-.58"/><path fill="#000" d="M69.93 5.05c.05.97-.14 2.33-.2 3.35q-.2 2.7-.34 5.42-.13 2.22-.23 4.45l-.04 1.03c-.1 2.4-.07 4.82-.12 7.23l-.27.07c-.71.18-1.93.39-2.47.4q.08-.32.13-.65l.12-.66c.1-.57.59-4.36.36-4.66q-.1-.1-.23-.12l-.09-.01c-.36-.06-1.25-.04-1.52.26-.42.46-.12 5.05-.08 5.97l-.22.05-.7.1-.78.1-.78.04c.17-3.53.43-6.95.5-10.5q.01-1.6-.05-3.2c-.02-.62-.06-1.4-.03-2 .69 0 2.07.11 2.74.2-.17.82-.76 3.94-.55 4.64q.11.16.3.18c.29.04 1.37.04 1.66-.17l.04-.04c.1-.14.15-.74.17-1.14l.02-.31q.12-2.01.12-4.02c-.02-1.41-.1-2.83-.15-4.25L67.2 5.4c.4-.14 1.47-.26 1.93-.32.29-.03.5-.03.8-.02m-3.83-.12.07.09q.06.24.05.5l-.09 1.06a37 37 0 0 0-.11 3.19c0 .2-.01.5-.07.68l-.08.04-.14.02-.08-.02c-.25-.05-.5-.18-.73-.28-.5-.2-1-.4-1.53-.5l-.22-.04c-.41-.04-.86 0-1.18.3-1.23 1.18-.91 11.22-.84 13.27.05 1.24.25 2.53.16 3.77l-.34.03q-.53.03-1.05.08l-.94.11q-.47.06-.94.07c0-.57.18-1.47.28-2.06q1.04-6.25 1.17-12.61c0-.41.07-1.66-.12-1.88-.37-.42-1.8 1.23-1.96 1.46a35 35 0 0 1 0-2.42l.07-2.42q.02-.89.14-1.77c1.6 0 3.36.02 4.95-.09 1-.07 2.32-.37 3.32-.58zm3.09.63-.98.14q-.29.03-.5.08a141 141 0 0 0 .14 3.85l.04 1.43q0 2.04-.12 4.04l-.05.78a6 6 0 0 1-.11.69l-.13.25a1 1 0 0 1-.3.24q-.16.07-.28.1-.29.06-.59.08a6 6 0 0 1-.99 0 1 1 0 0 1-.64-.38l-.06-.07-.03-.09a2 2 0 0 1-.06-.5l.02-.58a45 45 0 0 1 .49-3.26 27 27 0 0 0-1.66-.13c0 .48.02 1 .04 1.46l.03.81q.02 1.21.02 2.43c-.07 3.38-.3 6.64-.47 9.96l.2-.01.78-.1.45-.06a54 54 0 0 1-.09-4.59 6 6 0 0 1 .15-1q.03-.13.17-.3c.15-.17.35-.26.51-.32q.27-.1.53-.11a4 4 0 0 1 .92 0c.08.01.43.04.65.33.09.12.12.25.13.3l.02.24q.02.23 0 .56c-.01.42-.06.95-.11 1.48a50 50 0 0 1-.43 3.13 17 17 0 0 0 1.62-.3c.05-2.6.03-5.27.16-7.9q.1-2.21.23-4.45l.33-5.43c.07-.9.2-1.95.21-2.81zm-3.47-.08c-.95.2-2.16.46-3.11.53-1.47.1-3.07.1-4.55.1q-.05.61-.08 1.27c-.03 1.2-.1 2.4-.1 3.58l.1-.09q.33-.32.71-.54.19-.1.45-.14.27-.04.53.16l.07.07.06.08q.09.14.1.23l.06.28q.04.29.04.6l-.01 1.02q-.13 6.4-1.17 12.7l-.24 1.44 1.29-.15.72-.05.24-.02q0-.67-.05-1.39l-.13-1.9c-.04-1.03-.13-4.06-.07-7 .03-1.45.1-2.9.25-4.07q.11-.88.28-1.52c.11-.4.27-.8.53-1.06l.1-.08c.47-.39 1.05-.4 1.48-.35a7 7 0 0 1 1.89.57l.4.17v-.15c-.01-1.44.09-2.87.21-4.3m7.04-.32c1.2.01 2.4-.03 3.6.04q0 .4-.05.8c-.22 2.05-.2 4.1-.31 6.17-1.52-.75-2.83-1.02-2.99 1.46v.17c0 .39.07.83.3 1.12.56.24 1.25-.21 1.8-.45 0 1-.04 2.42-.18 3.4-.82-.22-1.72-.15-2 .93-.12.46-.13 1.24.09 1.66.64 1.22 2.32-.48 2.97-.9l.04-.03q.05.35.05.7c.03 1.28.1 2.8.03 4.08l-.15.1q-.23.15-.46.25-1.82.75-3.67 1.37c-.24.09-1.55.63-1.7.5-.04-.2 0-.77.04-1.37l.14-1.5c.33-4.14.47-8.28.63-12.43l.12-3.59q.02-.91.08-1.84l.05-.6c.32-.03.68-.03 1-.04zm-.53.5h-.02l-.56.02q-.07.98-.09 1.98l-.12 3.59c-.16 4.15-.3 8.3-.63 12.45l-.06.63-.13 1.6q.07 0 .16-.04l.52-.2.37-.13.91-.32q1.38-.48 2.72-1.04l.13-.06.19-.1c.04-1.12 0-2.4-.03-3.55q-.38.3-.84.57c-.32.18-.7.34-1.1.33q-.31 0-.61-.18-.3-.2-.46-.52c-.17-.3-.22-.7-.23-1.03s.02-.7.1-.98c.18-.69.58-1.12 1.11-1.3q.46-.15.94-.1c.06-.63.1-1.36.1-2.03l-.22.1c-.34.12-.8.23-1.26.03l-.12-.04-.08-.1c-.39-.48-.44-1.18-.4-1.64.08-1.28.48-2.15 1.34-2.4.4-.1.8-.05 1.19.05q.24.06.49.16c.07-1.78.08-3.65.28-5.47l.02-.27-1.28-.01z"/><path fill="#3dd7c2" d="M5.84 31.16c.86.05 1.86.2 2.73.28.82.08 1.86.15 2.65.3-.27 1.13-.65 2.22-.93 3.35-.23.96-1.3 5.89-.81 6.63q.16.2.39.23c.32.05.7-.07 1-.16 1.7-.48 2.88-1.43 4.28-2.53-.02.8-.16 1.57-.18 2.35-.02.9 0 1.86.04 2.76.01.33.16.68.03.95-.55.13-1.2.18-1.77.28-2.2.38-4.22 1.06-6.24 2.06-.38.19-1.92 1.12-2.22 1.18l-.07-.08c0-.66.07-1.48.12-2.15l.2-3 .53-9.1c.03-.57.14-3 .25-3.35m43.35-1.26.07.01c.04.2-.16.8-.22 1a15 15 0 0 1-3.28 5.9c-.25.28-1.73 1.6-1.75 1.73.28.32.66.55.98.81.35.3.69.7.98 1.06 1.16 1.49 1.55 2.94 2.16 4.71.12.36.45 1.05.4 1.43a.3.3 0 0 1-.15.25c-.25.16-3.3.08-3.77.03a1 1 0 0 1-.4-.1c-.16-.25-.17-1.09-.21-1.45-.19-1.57-.56-3-1.7-4.04-.15-.14-.58-.42-.78-.39-.52.52.22 4.92.07 5.23-.22.12-1.1-.13-1.4-.18l-3.62-.54c.1-.3.31-.83.43-1.15q.33-.88.59-1.78c.55-1.97.75-4.03.7-6.08-.03-.78 0-1.5-.12-2.3-.13-.94-.36-1.83-.52-2.77 1.15-.32 3.74-.81 4.9-.68-.31 1.12-.6 2.28-.75 3.45-.05.4-.28 2.19-.14 2.44q.14.03.26-.05a7.2 7.2 0 0 0 3.03-5.14c.05-.3.06-.64.16-.93.16-.16 3.56-.38 4.08-.47"/><path fill="#3dd7c2" fill-rule="evenodd" d="M53.73 29.49c2.73.1 3.56 3.98 3.74 6.44.02.27 0 .56.02.84.18 3.44-1 10.16-4.94 10.36a2.8 2.8 0 0 1-1.99-.81c-3.8-3.26-1.9-16.26 3.05-16.82zm-.28 5.06c-.7-.06-1.41 1.38-1.6 3.24-.17 1.85.25 3.4.95 3.47s1.41-1.38 1.6-3.23c.17-1.85-.25-3.4-.95-3.48" clip-rule="evenodd"/><path fill="#3dd7c2" d="M68.43 29.02c.1-.01.1 0 .2.04.12.22.21 3.19.19 3.64-.23 4.02-.61 11.62-4.76 13.07-5.09 1.77-5.71-6.34-5.51-10.08.05-2.03.14-3.8.53-5.8 1.02-.07 2.4-.12 3.41-.12-.02.38-.16 1.05-.23 1.44q-.2 1.1-.3 2.2c-.15 1.71-.2 4.31.73 5.77.42.66 1.3.62 1.75 0 1.26-1.67 1.37-4.4 1.49-6.51.04-.92-.26-2.08-.24-2.98v-.06q1.37-.34 2.74-.61"/><path fill="#3dd7c2" fill-rule="evenodd" d="M21.47 31.27a3.5 3.5 0 0 1 2.31.72c3.97 3.08 2.51 12.53-2.78 12.58-3.23.04-4.66-2.52-4.68-5.86-.01-3.48 1.72-7.28 5.15-7.44m-.3 3.85c-1.97.87-1.67 5.17.13 4.85 2.01-.74 1.65-5.16-.13-4.85" clip-rule="evenodd"/><path fill="#3dd7c2" d="M76.57 25.94c.2.02.18.26.17.42-.08 1.38-.2 2.75-.19 4.12 0 .16.06.99-.22.92-.76-.32-1.12-.42-1.94-.2-.2.58-.13 1.3-.13 1.92-.02 2.84.42 5.5.96 8.26-.46.28-1.6.83-2.09 1.06-.5.24-2.4 1.32-2.75 1.39l-.04-.04a44 44 0 0 1 .52-2.38c.56-2.64 1.2-6.29 1.15-9.1 0-.1-.1-.13-.16-.16-.54.08-1.35 1.03-1.76 1.45-.13.12-.19.34-.35.43l-.04-.04a46 46 0 0 1 .1-5.22c.16-.14.58-.23.79-.29a24 24 0 0 0 4.8-1.84c.4-.2.79-.47 1.18-.7"/><path fill="#3dd7c2" fill-rule="evenodd" d="M32.34 31.25c5.58.07 5.83 10.92 1.44 13.1-.73.37-1.13.42-1.86.42a4 4 0 0 1-2.87-1.14c-2.59-2.52-2.23-7.72-.16-10.48a4.5 4.5 0 0 1 3.38-1.89zm.05 3.93c-.8-.07-1.56.97-1.69 2.34s.42 2.53 1.22 2.6c.8.09 1.56-.96 1.69-2.33.13-1.36-.42-2.53-1.22-2.6" clip-rule="evenodd"/><path fill="#000" d="M5.84 31.16c.86.05 1.86.2 2.73.28.82.08 1.86.15 2.65.3-.27 1.13-.65 2.22-.93 3.35l-.12.53c-.35 1.6-1.11 5.45-.7 6.1q.16.2.4.23c.32.05.7-.07 1-.16 1.7-.48 2.88-1.43 4.28-2.53-.02.8-.16 1.57-.18 2.35v.69q0 1.05.04 2.07c.01.33.16.68.03.95-.55.13-1.2.18-1.77.28l-.41.07a22 22 0 0 0-5.83 2c-.38.18-1.92 1.11-2.22 1.17l-.07-.08c0-.66.07-1.48.12-2.15l.2-3 .53-9.1c.03-.57.14-3 .25-3.35m.42.64-.07.98-.1 1.77-.53 9.1-.2 3-.1 1.42.39-.2c.44-.26.95-.56 1.15-.66l.78-.37a23 23 0 0 1 5.6-1.73q.46-.08.91-.13l.49-.08-.03-.2-.04-.3a43 43 0 0 1-.04-2.8q.03-.62.1-1.21v-.05A11 11 0 0 1 11 42.28q-.22.07-.54.13-.31.07-.68.03a1 1 0 0 1-.73-.45 1.5 1.5 0 0 1-.2-.7 6 6 0 0 1 .01-.81c.04-.6.14-1.34.25-2.07.24-1.46.57-2.95.69-3.44q.21-.87.47-1.7l.32-1.12c-.66-.1-1.42-.15-2.07-.21l-2.26-.25zm47.47-2.31c2.73.1 3.56 3.98 3.74 6.44l.02.84c.18 3.44-1 10.16-4.94 10.36l-.3-.01a2.7 2.7 0 0 1-1.45-.6l-.24-.2c-3.8-3.26-1.9-16.26 3.05-16.82zm-4.47.42c.04.2-.16.8-.22 1.01l-.13.41a15 15 0 0 1-3.15 5.48c-.25.28-1.73 1.6-1.75 1.73.28.32.66.55.98.82a7 7 0 0 1 .98 1.05c1.16 1.49 1.55 2.94 2.16 4.71.12.36.45 1.05.4 1.43a.3.3 0 0 1-.15.25l-.08.03c-.54.12-3.25.05-3.69 0q-.15-.01-.3-.07l-.1-.04c-.16-.24-.17-1.08-.21-1.44-.19-1.57-.56-3-1.7-4.04-.15-.14-.58-.42-.78-.39-.52.52.22 4.92.07 5.23l-.05.01c-.27.08-1.07-.14-1.35-.2l-3.62-.53c.1-.3.31-.83.43-1.15q.32-.88.59-1.78.71-2.6.7-5.3v-.78c-.03-.68-.01-1.32-.08-2l-.04-.3q-.16-1.04-.39-2.07l-.13-.7c1.15-.32 3.74-.81 4.9-.68-.31 1.12-.6 2.28-.75 3.45l-.06.5a7 7 0 0 0-.08 1.94q.1.03.2-.02l.06-.03a7 7 0 0 0 2.97-4.75l.07-.4q.03-.34.1-.7l.05-.22c.16-.16 3.56-.38 4.08-.47zm4.46.08h-.02l-.03.01c-1.02.11-1.95.88-2.73 2.17a14 14 0 0 0-1.64 4.8c-.3 1.83-.34 3.72-.07 5.34.27 1.64.84 2.93 1.66 3.63q.44.38.8.53.34.15.86.16c1.63-.1 2.8-1.54 3.55-3.64.74-2.06.98-4.53.9-6.2l-.02-.44-.01-.39c-.09-1.2-.33-2.72-.87-3.93s-1.3-1.98-2.37-2.04m-5.07.47-1.59.15q-.72.06-1.25.13l-.28.04-.08.59c-.3 2.2-1.43 4.34-3.27 5.49a.8.8 0 0 1-.65.11l-.2-.05-.1-.19a1 1 0 0 1-.1-.36l-.01-.32q0-.35.04-.77a24 24 0 0 1 .74-4.2c-.48.02-1.09.08-1.72.18-.71.12-1.41.26-1.95.39l.18.92q.16.69.26 1.42c.11.83.09 1.6.11 2.35.07 2.09-.14 4.2-.71 6.22q-.27.93-.6 1.82l-.22.58 3.01.44h.03l.33.08.4.08.07.01-.02-.32-.07-.78-.08-.88c-.05-.6-.1-1.23-.08-1.75q0-.4.05-.71c.03-.18.1-.45.28-.63l.11-.11.16-.03a1 1 0 0 1 .43.05q.15.05.3.13.29.17.47.33c1.28 1.18 1.67 2.75 1.85 4.36q.03.16.03.36l.08.73.07.01a30 30 0 0 0 3.06.05l.29-.02v-.04l-.1-.33-.14-.37-.13-.34c-.61-1.8-.98-3.16-2.08-4.56-.28-.36-.6-.72-.9-.98-.15-.13-.3-.23-.49-.38q-.28-.2-.54-.49l-.15-.17.02-.23a1 1 0 0 1 .11-.26l.08-.1.2-.21.55-.54c.43-.4.83-.77.94-.89a15 15 0 0 0 3.17-5.7zm19.78-1.44c.1-.01.1 0 .2.04.12.22.21 3.19.19 3.64-.23 4.02-.61 11.62-4.76 13.07l-.24.07c-4.87 1.45-5.47-6.46-5.27-10.15.05-1.78.11-3.36.4-5.06l.13-.73a56 56 0 0 1 3.41-.13c-.02.38-.16 1.05-.23 1.44q-.2 1.1-.3 2.2c-.15 1.71-.2 4.31.73 5.77.42.66 1.3.62 1.75 0 1.1-1.46 1.33-3.74 1.44-5.7l.05-.81c.04-.92-.26-2.08-.24-2.98v-.06q1.37-.34 2.74-.61m-.23.55q-1 .21-2 .45.03.5.12 1.1a9 9 0 0 1 .1 1.57c-.05 1.05-.11 2.3-.32 3.48a8 8 0 0 1-1.26 3.32c-.32.42-.8.67-1.28.67-.5.01-.99-.23-1.3-.7v-.01a7 7 0 0 1-.84-3.02c-.09-1.09-.03-2.2.04-3.07q.1-1.13.3-2.23l.16-.86c-.78.02-1.66.05-2.41.1a34 34 0 0 0-.46 5.34v.01c-.1 1.84 0 4.73.74 6.92a5 5 0 0 0 1.53 2.43c.62.45 1.43.62 2.57.22 1.82-.63 2.9-2.65 3.53-5.21.63-2.53.78-5.39.9-7.41a32 32 0 0 0-.1-2.97zm-35.86 1.68c5.58.07 5.83 10.92 1.44 13.1-.73.37-1.13.42-1.86.42a4 4 0 0 1-2.87-1.14c-2.59-2.52-2.23-7.72-.16-10.48a4.5 4.5 0 0 1 3.38-1.89zm-10.87.02a3.5 3.5 0 0 1 2.31.72c3.97 3.08 2.51 12.53-2.78 12.58-3.13.04-4.57-2.37-4.67-5.55v-.3c-.02-3.38 1.6-7.05 4.82-7.43zm10.86.49h-.02c-1.23.11-2.2.61-3.02 1.7a9 9 0 0 0-1.57 5.03c-.02 1.87.52 3.65 1.68 4.79a3.5 3.5 0 0 0 2.48 1h.03a3 3 0 0 0 1.64-.36 4.8 4.8 0 0 0 2.17-2.7 10 10 0 0 0 .58-4.17 7.6 7.6 0 0 0-1.17-3.74 3.3 3.3 0 0 0-2.77-1.56zm-8.86.63a3 3 0 0 0-1.95-.63h-.02c-1.52.08-2.67.94-3.47 2.25a9 9 0 0 0-1.2 4.7c0 1.6.35 2.97 1.03 3.9A3.6 3.6 0 0 0 21 44.07c2.29-.03 3.87-2.08 4.38-4.75s-.12-5.56-1.9-6.93m53.1-6.45c.19.02.18.26.17.42-.08 1.38-.2 2.75-.19 4.12 0 .15.05.89-.17.92h-.05c-.76-.32-1.12-.42-1.94-.2-.2.58-.13 1.3-.13 1.92-.02 2.84.42 5.5.96 8.26-.46.28-1.6.83-2.09 1.06l-.6.31c-.75.4-1.9 1.03-2.15 1.08l-.03-.04c0-.13.11-.63.23-1.15l.28-1.23c.56-2.64 1.2-6.29 1.15-9.1 0-.1-.1-.13-.16-.16-.54.08-1.35 1.03-1.76 1.45-.13.12-.19.34-.35.43l-.04-.04a50 50 0 0 1 .08-5.09l.02-.13q.14-.1.38-.18l.4-.1q2.18-.57 4.24-1.56l.58-.28c.39-.2.78-.48 1.17-.7m-.36.8-.58.35q-2.38 1.21-4.92 1.87l-.38.1-.07.03v.06l-.04.59a62 62 0 0 0-.05 3.06l.4-.42q.27-.23.55-.44c.18-.12.4-.25.65-.28l.14-.02.12.05.21.1a.6.6 0 0 1 .26.42l.01.08c.05 2.89-.6 6.58-1.17 9.23l-.27 1.23-.06.24.45-.23 1.46-.77c.41-.2 1.22-.59 1.74-.87-.5-2.65-.92-5.23-.9-8v-.99q-.02-.54.16-1.1l.09-.24.25-.07a3 3 0 0 1 1.19-.12q.3.05.6.16v-.8q.05-1.63.16-3.21M53.5 34.07l.14.02c.3.07.53.27.69.49q.27.39.41.92c.19.7.25 1.62.16 2.59a8 8 0 0 1-.65 2.5q-.24.5-.58.83c-.2.18-.46.34-.77.35h-.13a1.2 1.2 0 0 1-.83-.52 3 3 0 0 1-.41-.92 8 8 0 0 1-.16-2.58c.1-.97.33-1.86.65-2.51q.24-.49.58-.83c.2-.18.46-.33.77-.35zm-.04.5c-.7-.07-1.41 1.37-1.6 3.23l-.02.34c-.1 1.7.32 3.07.97 3.13.66.06 1.32-1.2 1.55-2.89l.04-.34c.18-1.85-.24-3.4-.94-3.48m-21.01.13.12.01c.58.11 1 .58 1.24 1.1.27.56.38 1.29.3 2.04a4 4 0 0 1-.68 1.96c-.36.5-.9.89-1.55.83s-1.1-.56-1.36-1.11a4 4 0 0 1-.3-2.05c.07-.76.31-1.45.68-1.95.34-.47.83-.85 1.43-.84zm-11.36-.06c.7-.12 1.23.24 1.56.74.32.48.48 1.12.52 1.76a4.5 4.5 0 0 1-.32 1.92c-.26.6-.7 1.14-1.37 1.39l-.04.01-.04.01c-.7.13-1.23-.22-1.56-.71a3.5 3.5 0 0 1-.51-1.73c-.03-.64.07-1.32.32-1.92.26-.6.68-1.15 1.32-1.43l.06-.03zm11.31.55c-.8-.07-1.56.97-1.69 2.34s.42 2.53 1.22 2.6c.8.09 1.56-.96 1.69-2.33.13-1.36-.42-2.53-1.22-2.6m-11.22-.06c-1.97.87-1.67 5.17.13 4.85 2.01-.74 1.65-5.16-.13-4.85"/><path fill="#3dd7c2" d="m15.04 47.2.18.02c.1.21-.08.8-.13 1.05a28 28 0 0 0-.5 4 7.5 7.5 0 0 0-3.68.18c-.58.22-1.05.5-1.32 1.15-.14.32-.2.76-.08 1.1q.08.25.3.36c.8.37 2.53-.7 3.31-1.02.03.99.13 1.98.2 2.97-.88 0-2.03-.06-2.81.46-.36.23-.6.5-.56.93.18 1.57 1.13 2.64 2.01 3.84q-1.17.63-2.33 1.28c-.58.3-3.59 2.26-3.82 2.3l-.08-.1c-.14-.2-.16-.66-.21-.9-.2-.93-.3-1.85-.42-2.8q-.6-5.32-.34-10.68a31 31 0 0 1 7.99-3.54c.76-.22 1.52-.45 2.3-.6"/><path fill="#3dd7c2" fill-rule="evenodd" d="M28.46 46.43c.66-.13 2.75.12 3.5.25 1.45.26 3.36.78 4.26 2.2.3.48.46 1.04.36 1.63-.22 1.27-1.47 1.99-2.47 2.34-.32.1-.78.17-1.05.39v.07c.32.54.9.95 1.43 1.16.97.37 1.7.1 2.57-.39.27.8.29 1.8.07 2.62-.16.64-.5 1.2-1.04 1.5-.65.38-1.33.26-2 .03l-.02-.03-.11-.01c-1.23-.33-2.34-1.75-2.84-2.98-.14-.35-.2-.83-.38-1.14h-.07l-.06.06c-.1.14-.13.42-.15.6-.16 1.2.01 2.31.2 3.49q-1.23.02-2.47.13c-.78.08-1.57.22-2.36.26.12-.75.43-1.47.58-2.22.77-3.78.83-6 .13-9.79.63-.14 1.28-.14 1.92-.17m2.23 2.53c-.36-.02-.36.2-.36.2s-.13 1.53.12 1.85c.31.42 1.34-.01 1.83-.26a1 1 0 0 0 .5-.44.8.8 0 0 0 0-.56c-.11-.28-.4-.45-.66-.54a6 6 0 0 0-1.43-.25M21 46.64c.9-.12 1.96.3 2.66.91 1.12.98 1.6 2.5 1.76 4.02a9.2 9.2 0 0 1-1.45 6.12 5.4 5.4 0 0 1-3.86 2.42c-1.12.06-2.07-.05-2.95-.9-1.16-1.14-1.4-2.77-1.5-4.4-.02-.4.03-.8.06-1.18.16-1.83.68-3.6 1.78-5a4.8 4.8 0 0 1 3.5-2m-.07 3.89c-.77-.1-1.53.93-1.71 2.3s.3 2.57 1.05 2.67c.77.1 1.53-.94 1.71-2.3.18-1.38-.3-2.57-1.05-2.67" clip-rule="evenodd"/><path fill="#000" d="M15.22 47.22c.1.21-.08.8-.13 1.05a28 28 0 0 0-.5 4 7.5 7.5 0 0 0-3.68.18l-.22.09c-.48.2-.86.49-1.1 1.06l-.05.12c-.1.3-.13.68-.03.98q.08.25.3.36c.8.37 2.53-.7 3.31-1.02.03.99.13 1.98.2 2.97-.88 0-2.03-.06-2.81.46-.36.23-.6.5-.56.93.18 1.57 1.13 2.64 2.01 3.84q-1.17.63-2.33 1.28c-.58.3-3.59 2.26-3.82 2.3l-.04-.05-.04-.05q-.1-.16-.14-.44l-.07-.47q-.15-.69-.24-1.38l-.18-1.4q-.52-4.66-.4-9.35l.06-1.34a31 31 0 0 1 7.46-3.39l.53-.15c.76-.22 1.52-.45 2.3-.6zm-.53.57q-.9.21-1.8.5a31 31 0 0 0-7.64 3.34q-.23 5.18.35 10.34c.11.94.21 1.84.4 2.74l.07.4.1-.06 1.16-.71a51 51 0 0 1 2.07-1.26q.9-.52 1.81-1c-.76-1.02-1.59-2.12-1.75-3.63q-.05-.5.2-.87a2 2 0 0 1 .57-.53 3.5 3.5 0 0 1 1.6-.5q.48-.05.95-.04-.08-.84-.12-1.7l-.05.02q-.43.22-.94.44a5 5 0 0 1-1.02.32c-.32.07-.7.08-1.04-.08a1 1 0 0 1-.54-.55l-.04-.1c-.16-.5-.07-1.06.1-1.45.35-.84.96-1.19 1.6-1.42a7 7 0 0 1 3.4-.28q.12-1.78.47-3.54l.06-.25zm6.3-1.15c.9-.12 1.97.3 2.67.91 1.12.98 1.6 2.5 1.76 4.02a9.2 9.2 0 0 1-1.45 6.12l-.2.26a5.4 5.4 0 0 1-3.66 2.16l-.41.01c-.88 0-1.65-.14-2.37-.76l-.17-.16c-1.01-.99-1.33-2.36-1.46-3.78l-.04-.61q-.01-.3.01-.6l.05-.58a9.5 9.5 0 0 1 1.58-4.73l.2-.27a5 5 0 0 1 3.15-1.95l.25-.03zm2.34 1.29a3.2 3.2 0 0 0-2.27-.8l-.07.01h-.03l-.02.01a4.4 4.4 0 0 0-3.04 1.8 8.7 8.7 0 0 0-1.68 4.72c-.03.42-.08.77-.06 1.1.1 1.64.34 3.09 1.35 4.08.73.7 1.5.81 2.55.76 1.44-.2 2.58-.9 3.5-2.2a8.7 8.7 0 0 0 1.36-5.78c-.15-1.48-.61-2.85-1.6-3.7m5.13-1.5c.66-.13 2.75.12 3.5.25 1.45.26 3.36.78 4.26 2.2.3.48.46 1.04.36 1.63-.22 1.27-1.47 1.99-2.47 2.34-.32.1-.78.17-1.05.39v.07c.32.54.9.95 1.43 1.16.97.37 1.7.1 2.57-.39.27.8.29 1.8.07 2.62-.16.64-.5 1.2-1.04 1.5-.65.38-1.33.26-2 .03l-.02-.03-.11-.01c-1.23-.33-2.34-1.75-2.84-2.98-.14-.35-.2-.83-.38-1.14h-.07q-.04.02-.06.06c-.1.14-.13.42-.15.6-.16 1.2.01 2.31.2 3.49q-1.23.02-2.47.13c-.78.08-1.57.22-2.36.26.12-.75.43-1.47.58-2.22.77-3.78.83-6 .13-9.79.63-.14 1.28-.14 1.92-.17m.71.46q-.45 0-.62.03h-.07q-.72.03-1.36.1c.62 3.55.53 5.8-.22 9.47q-.13.61-.31 1.16l-.12.4 1.67-.2q.98-.09 1.94-.11c-.15-.99-.26-2-.12-3.07l.06-.35c.02-.12.07-.31.17-.47l.16-.17h.01v-.01l.17-.13.21.03h.07l.23.04.13.2c.13.22.2.49.26.68q.08.34.15.53c.23.56.6 1.18 1.06 1.68q.7.8 1.45 1h.04l.17.03.06.06c.58.19 1.05.23 1.48-.02.38-.22.67-.65.81-1.2s.17-1.18.08-1.76c-.73.33-1.49.48-2.41.13a3.4 3.4 0 0 1-1.69-1.37l-.06-.1-.01-.13v-.08l-.02-.26.21-.16q.35-.23.67-.31l.52-.15c.47-.17.97-.41 1.38-.74q.62-.5.77-1.21a1.8 1.8 0 0 0-.3-1.29 3.7 3.7 0 0 0-1.7-1.34 10 10 0 0 0-2.23-.63 23 23 0 0 0-2.69-.28m-9.72 3.94c.36-.48.9-.88 1.54-.8s1.06.61 1.28 1.17c.23.57.3 1.3.2 2.06a4 4 0 0 1-.72 1.93c-.36.49-.9.89-1.54.8s-1.06-.6-1.28-1.17c-.23-.57-.3-1.3-.2-2.06.1-.75.35-1.43.72-1.93m1.48-.3c-.77-.1-1.53.93-1.71 2.3l-.03.26c-.1 1.26.37 2.31 1.09 2.4.76.1 1.52-.93 1.7-2.3.17-1.28-.23-2.41-.91-2.63zm9.8-2.07c.42.03 1.1.12 1.56.28.27.1.7.3.91.73l.05.1c.12.3.1.66-.01.93-.16.39-.5.59-.73.69-.26.14-.68.33-1.1.43q-.31.08-.66.06a1 1 0 0 1-.63-.28l-.07-.09a1 1 0 0 1-.16-.34q-.05-.16-.06-.33l-.03-.68c0-.44.03-.84.04-.85l.02-.13a1 1 0 0 1 .15-.26c.17-.2.44-.28.72-.26m-.04.5c-.35-.02-.36.18-.36.2 0 0-.13 1.53.12 1.85.31.42 1.34-.01 1.83-.26a1 1 0 0 0 .5-.44.8.8 0 0 0 0-.56c-.11-.28-.4-.45-.66-.54a6 6 0 0 0-1.43-.25"/><path fill="#fc98d0" fill-rule="evenodd" d="M17.15 63.82c.53 0 1.04.02 1.53.25a3 3 0 0 1 1.41 1.73c1.33 3.7-.88 7.25-3.5 9.33q-.48.39-.99.73c-.19.12-.48.25-.63.4l-.06.1c-.02.3.07.49.25.7.54.66 1.4 1.13 2.2 1.16 1.15.05 1.75-.58 2.56-1.4.55 1.74.77 3.64.5 5.47-.13.8-.33 2.04-.99 2.53-.6.45-1.5.3-2.15.13-1.89-.47-3.48-2.06-4.49-3.85a13 13 0 0 1-.79-1.72c-.1-.27-.21-.85-.4-1.04-.04-.04-.03-.03-.1-.02-.52.57-.33 3.9-.22 4.8.05.47.23 1.09.21 1.54a.4.4 0 0 1-.2.08c-.38.05-.81-.06-1.2-.13-1.11-.2-2.18-.42-3.1-1.23-1.09-.99-1.57-2.74-1.7-4.25-.09-.92-.11-1.92-.06-2.84.1-1.85.54-5.24 1.61-6.67 1.87-2.48 7.35-5.5 10.31-5.8m-2.93 5.46c-.96.12-2.06.54-2.84 1.18-.1.53-.36 2.99-.16 3.37q.19.09.38 0l.28-.13c1.14-.64 2.58-1.64 3-3.09.08-.3.12-.71-.01-1a.6.6 0 0 0-.34-.3 1 1 0 0 0-.3-.03" clip-rule="evenodd"/><path fill="#fc98d0" d="M38.38 60.3c1.02-.06 2.95.5 3.97.83 1.67.55 3.34 1.17 4.84 2.18.23.15.58.34.72.62 0 .48-.38 1.16-.54 1.6-.66 1.78-3.36 9.13-2.7 10.72q.1.31.4.43c1.64.66 5.21-1.46 6.72-2.26-.3 1.72-.68 3.43-1.02 5.14-.13.73-.23 1.53-.46 2.23-.6.33-1.29.56-1.93.8-3.54 1.3-7.8 2.01-11.5 1.37a45 45 0 0 0 1.06-3.43 44 44 0 0 0 1.22-11.02c0-1.2 0-2.4-.1-3.6a95 95 0 0 0-.39-3.55c-.07-.52-.34-1.6-.3-2.06m35.49 5.28c.27-.01.6-.01.85.1q.3.1.42.44c.31.9-.33 3.87-.7 4.83-.18-.15-.34-.34-.54-.47a2.2 2.2 0 0 0-1.72-.17c-.35.1-.74.32-.9.7q-.14.34-.04.72c.26 1.03 1.49 1.47 2.26 1.9q.58.31 1.08.75.8.74 1.13 1.84a8.5 8.5 0 0 1-.22 5.66 2.6 2.6 0 0 1-1.59 1.5c-2.74 1.02-5.8-.32-8.25-1.7-.66-.4-1.34-.78-1.87-1.4q.4-.88.86-1.73c.32-.66.61-1.34.98-1.97l.34.32c.92.83 2.11 1.41 3.32 1.26.4-.06.9-.24 1.15-.62q.19-.3.14-.67c-.22-1.56-2.17-1.94-3.25-2.36a5 5 0 0 1-1.52-.82c-.41-.34-.72-.8-.78-1.38-.09-.77.13-1.53.55-2.14.37-.51.86-.94 1.36-1.29.91-.64 1.94-1.1 2.92-1.6.94-.48 1.89-1 2.86-1.38q.56-.23 1.16-.32m-18.93 1.54c.29.08.61.32.89.46q.6.33 1.25.57c2.35.85 3.9.83 6.32.94-.22 1.3-.57 2.6-.9 3.89-1.01-.5-2.1-1.03-3.24-.92a1.3 1.3 0 0 0-.99.52q-.3.41-.25.95.05.46.38.74c.57.46 1.85.1 2.5-.01.03.98-.17 2.02-.34 2.98-.72-.19-1.52-.48-2.25-.32q-.47.1-.74.52c-.18.33-.23.85-.13 1.22q.1.4.43.62c.7.45 2.07.08 2.82-.16.45-.2.92-.35 1.38-.53v.3c-.02.92-.16 1.86-.24 2.78-.07.73-.08 1.5-.2 2.22-.03.13-.04.24-.12.34-.7.16-1.67.01-2.4-.03l-3.79-.2c-1.29-.07-3.14-.02-4.36-.28 2.47-3.84 3.27-8.47 3.71-13.08.08-.85.06-2.82.27-3.52"/><path fill="#fc98d0" fill-rule="evenodd" d="M29.14 60.8a5.7 5.7 0 0 1 4.54 1.67c2.06 1.98 2.94 5.1 3.12 8.06.22 3.59-.47 7.7-2.65 10.48a6.8 6.8 0 0 1-4.81 2.77 5.7 5.7 0 0 1-4.17-1.22c-2-1.65-3-4.27-3.36-6.96-.51-3.89.28-8.4 2.42-11.57a7 7 0 0 1 4.9-3.24m.35 6.66c-1.25-.08-2.37 1.7-2.52 4-.15 2.28.74 4.2 1.98 4.27 1.24.08 2.37-1.7 2.52-3.99.14-2.28-.74-4.2-1.98-4.28" clip-rule="evenodd"/><path fill="#000" d="M17.15 63.82c.53 0 1.04.02 1.53.25a3 3 0 0 1 1.41 1.73c1.33 3.7-.88 7.25-3.5 9.33l-.49.37q-.24.19-.5.36l-.33.19q-.17.09-.3.21l-.04.05-.02.05c-.02.3.07.49.25.7.54.66 1.4 1.13 2.2 1.16 1.15.05 1.75-.58 2.55-1.4.56 1.74.78 3.64.5 5.47l-.05.32c-.13.78-.36 1.78-.93 2.21l-.11.08c-.52.3-1.21.23-1.79.1l-.25-.05c-1.77-.45-3.28-1.87-4.3-3.52l-.19-.33q-.33-.63-.62-1.27l-.17-.45c-.08-.24-.18-.7-.33-.95l-.07-.09c-.04-.04-.03-.03-.1-.02-.52.57-.33 3.9-.22 4.8.05.47.23 1.09.21 1.54l-.05.03-.15.05-.14.01q-.22 0-.46-.03l-.6-.1a6 6 0 0 1-2.92-1.1L7 83.38c-1.03-.92-1.52-2.52-1.69-3.96l-.03-.29q-.1-1.05-.08-2.13l.03-.7c.1-1.8.52-5.04 1.52-6.54l.1-.14c1.86-2.48 7.34-5.5 10.3-5.8m.03.5c-1.38.15-3.4.93-5.35 2.01-1.95 1.1-3.72 2.43-4.59 3.59a8 8 0 0 0-1.08 2.98 25 25 0 0 0-.43 3.42c-.05.9-.03 1.87.05 2.77.13 1.47.6 3.06 1.55 3.92.8.7 1.73.9 2.85 1.11l.58.1.2.03-.04-.27-.14-.8c-.05-.47-.13-1.55-.13-2.58 0-.52.03-1.04.08-1.48q.04-.34.13-.6.07-.29.27-.53l.12-.13.17-.03h.03l.1-.02q.2 0 .3.1.1.06.11.08.16.18.23.35a3 3 0 0 1 .22.65l.06.22q.31.84.76 1.64c.97 1.73 2.47 3.19 4.17 3.61q.49.13.98.16.5 0 .75-.2.3-.23.52-.9c.13-.42.2-.9.27-1.3l.04-.33c.16-1.37.04-2.78-.3-4.12a3 3 0 0 1-2.33.95 3.7 3.7 0 0 1-2.56-1.34c-.23-.29-.38-.6-.36-1.05v-.08l.04-.07v-.03l.04-.07.13-.17q.2-.2.4-.3l.3-.17q.5-.33.96-.7c2.55-2.03 4.57-5.36 3.34-8.77a2.6 2.6 0 0 0-.97-1.34l-.19-.1a3 3 0 0 0-1.28-.2m37.75 2.8c.29.08.61.32.89.46q.6.33 1.25.57c2.35.85 3.9.83 6.32.94-.22 1.3-.57 2.6-.9 3.89-1.01-.5-2.1-1.03-3.24-.92l-.14.02q-.5.06-.85.5-.3.41-.25.95.05.46.38.74c.57.46 1.85.1 2.5-.01.03.98-.17 2.02-.35 2.98-.7-.19-1.5-.48-2.24-.32l-.11.03q-.39.11-.63.49l-.06.13c-.13.33-.15.77-.07 1.1q.1.4.43.61c.62.4 1.74.16 2.51-.07l.3-.1 1.39-.52v.3c-.02.92-.16 1.86-.24 2.78l-.08 1.11q-.04.57-.12 1.1c-.03.14-.04.25-.12.35l-.14.02c-.69.12-1.57-.01-2.25-.05l-3.8-.2c-1.29-.07-3.14-.02-4.36-.28 2.31-3.6 3.17-7.9 3.62-12.21l.09-.87c.08-.85.06-2.82.27-3.52M38.38 60.3c1.02-.06 2.95.5 3.97.83 1.67.55 3.34 1.17 4.84 2.18.23.15.58.34.72.62 0 .48-.38 1.16-.54 1.6l-.34.91c-.95 2.62-2.93 8.42-2.37 9.81q.12.31.4.43c1.64.66 5.22-1.46 6.73-2.27-.3 1.73-.68 3.44-1.02 5.15-.13.73-.23 1.53-.46 2.23-.6.33-1.29.56-1.93.8l-.67.23c-3.4 1.15-7.36 1.74-10.84 1.14q.45-1.27.83-2.56l.24-.87a44 44 0 0 0 1.22-11.02q.02-1.58-.07-3.15l-.03-.45a95 95 0 0 0-.39-3.55c-.06-.45-.27-1.34-.3-1.86zm-9.24.5a5.7 5.7 0 0 1 4.54 1.67c2.06 1.98 2.94 5.1 3.12 8.06.22 3.59-.47 7.7-2.65 10.48l-.24.3a6.7 6.7 0 0 1-4.57 2.47 5.7 5.7 0 0 1-4.17-1.22c-1.88-1.54-2.88-3.95-3.29-6.46l-.07-.5c-.5-3.76.24-8.11 2.23-11.27l.2-.3a7 7 0 0 1 4.51-3.17zm32.4 18.52-.67.26h-.02l-.02.01c-.38.13-.95.3-1.52.36-.54.07-1.21.08-1.72-.25a1.5 1.5 0 0 1-.65-.92 2.4 2.4 0 0 1 .19-1.58c.25-.45.66-.68 1.06-.76l.17-.04c.4-.06.8-.01 1.17.06l.62.15q.17-.88.23-1.74-.34.06-.72.1-.4.05-.8 0a1.6 1.6 0 0 1-.78-.31c-.3-.24-.48-.58-.54-.93l-.03-.15a2 2 0 0 1 .35-1.3c.35-.48.86-.67 1.34-.72l.25-.01c.98-.03 1.9.33 2.71.7q.36-1.35.64-2.69c-2.1-.09-3.67-.13-5.9-.94q-.69-.25-1.32-.6l-.27-.15q-.04.41-.06.98c-.03.66-.05 1.4-.1 1.84-.4 4.37-1.16 8.84-3.38 12.65l1.35.1 1.15.03 1.07.03 3.8.2.59.05.6.04q.45.03.8 0c.1-.7.12-1.4.2-2.16.06-.8.16-1.56.2-2.31m12.32-13.74c.27-.01.6-.01.85.1q.3.1.42.44c.31.9-.33 3.86-.7 4.83l-.4-.36-.14-.1a2.2 2.2 0 0 0-1.72-.18c-.35.1-.74.32-.9.7q-.14.34-.04.72c.26 1.03 1.49 1.47 2.26 1.9q.58.31 1.08.75.8.74 1.13 1.84a8.5 8.5 0 0 1-.22 5.66l-.14.27q-.5.9-1.45 1.23c-2.57.95-5.42-.16-7.79-1.43l-.46-.26c-.66-.4-1.34-.8-1.87-1.41.26-.6.57-1.16.85-1.73.33-.66.62-1.34.99-1.97l.34.32a4.4 4.4 0 0 0 3.1 1.28l.22-.02c.35-.05.78-.2 1.05-.48l.1-.14q.19-.3.14-.67c-.2-1.37-1.7-1.83-2.8-2.2l-.45-.16a5 5 0 0 1-1.52-.82 2 2 0 0 1-.75-1.17l-.03-.21c-.09-.77.13-1.53.55-2.14q.43-.57.99-1.01l.37-.28c.68-.48 1.43-.86 2.18-1.23l.74-.37c.94-.48 1.89-1 2.86-1.38q.56-.23 1.16-.32M38.9 60.82l.06.4.11.57.09.5q.22 1.8.38 3.57c.12 1.22.1 2.46.11 3.65.02 3.72-.3 7.53-1.24 11.14a41 41 0 0 1-.88 2.9c3.45.46 7.37-.23 10.67-1.44.6-.21 1.16-.4 1.68-.67.18-.6.26-1.27.39-1.97l.83-4.12c-.7.38-1.57.84-2.44 1.2q-1 .45-1.98.66a3 3 0 0 1-1.82-.07 1.3 1.3 0 0 1-.67-.7c-.12-.3-.15-.68-.13-1.05q.02-.6.16-1.33c.17-.96.48-2.1.81-3.24a93 93 0 0 1 2.02-5.86l.18-.4q.12-.3.15-.5l-.1-.09c-.13-.1-.23-.15-.38-.25a19 19 0 0 0-4.71-2.11 25 25 0 0 0-1.95-.55q-.76-.18-1.34-.24m-5.57 2a5.2 5.2 0 0 0-4.15-1.53 6.4 6.4 0 0 0-4.54 3.02c-2.06 3.06-2.84 7.43-2.35 11.23.34 2.53 1.26 4.94 3.01 6.48l.18.15.2.16a5.3 5.3 0 0 0 3.6.95h.01a6.3 6.3 0 0 0 4.45-2.58c2.08-2.64 2.77-6.61 2.55-10.14-.17-2.9-1.04-5.87-2.96-7.73m40.56 3.26q-.49.07-1.01.28c-.95.37-1.86.88-2.82 1.36-1.01.51-1.99.96-2.87 1.57-.46.33-.91.72-1.23 1.17a2.6 2.6 0 0 0-.47 1.8q.09.63.61 1.04c.4.33.86.55 1.38.75l.92.31q.53.18 1.08.46c.67.35 1.33.9 1.53 1.8l.03.18q.09.53-.21 1.02c-.38.56-1.04.77-1.5.83a4.7 4.7 0 0 1-3.6-1.27l-.67 1.39q-.38.73-.7 1.41c.42.42.94.72 1.52 1.08 1.21.68 2.54 1.33 3.9 1.69s2.68.42 3.93-.04c.6-.22 1.02-.59 1.3-1.23l.12-.3a8 8 0 0 0 .08-5.01q-.3-.99-.99-1.62a5 5 0 0 0-.99-.68l-.62-.33a8 8 0 0 1-.73-.42 2.6 2.6 0 0 1-1.15-1.47 1.6 1.6 0 0 1 .07-1.05c.25-.57.81-.85 1.2-.97q.51-.15 1.08-.11c.36.03.75.13 1.08.35a19 19 0 0 0 .54-2.98q.03-.62-.05-.81a.2.2 0 0 0-.1-.12l-.04-.03a2 2 0 0 0-.62-.05m-44.38.88c.89.06 1.54.76 1.93 1.6.4.87.6 2 .52 3.22a7 7 0 0 1-.93 3.11c-.5.79-1.23 1.4-2.12 1.34s-1.54-.76-1.93-1.6c-.4-.87-.6-2-.52-3.21.08-1.2.42-2.31.93-3.12.5-.78 1.23-1.4 2.12-1.34m-.03.5c-1.25-.08-2.37 1.7-2.52 4l-.02.41c-.02 2.1.84 3.79 2 3.86 1.16.08 2.23-1.49 2.48-3.57l.04-.42c.14-2.21-.69-4.08-1.87-4.27zM14.2 68.78q.17-.02.47.05.42.14.64.57.15.38.13.72 0 .35-.1.63A4.6 4.6 0 0 1 14 72.83c-.6.54-1.29.97-1.87 1.3l-.33.16q-.12.06-.36.09a1 1 0 0 1-.44-.1l-.14-.08-.07-.13q-.1-.23-.1-.41l-.03-.44a21 21 0 0 1 .24-2.85l.03-.18.14-.12a6.5 6.5 0 0 1 3.1-1.3h.05m.01.5c-.96.12-2.06.54-2.85 1.18-.1.53-.35 2.99-.15 3.37q.15.08.28.03l.1-.03.14-.06.13-.07c1.07-.6 2.41-1.52 2.91-2.82l.1-.27c.07-.26.11-.61.03-.89l-.04-.11a.6.6 0 0 0-.24-.26l-.1-.05a1 1 0 0 0-.3-.02"/><path fill="#c4c4c4" fill-rule="evenodd" d="M15.52 31.84c-4.7.62-9.25-4.58-10.07-11.6-.87-7.06 2.22-13.3 6.93-13.91 4.7-.62 9.2 4.58 10.07 11.64.87 7.02-2.22 13.25-6.93 13.87m5.82-13.7c-.74-6.2-4.62-10.78-8.75-10.2-4.09.54-6.77 5.98-6.03 12.18s4.67 10.73 8.75 10.2c4.09-.58 6.81-6.03 6.03-12.18" clip-rule="evenodd"/><path fill="#fff" fill-rule="evenodd" d="M15.31 30.31c-4.08.54-8-4-8.75-10.2-.74-6.19 1.94-11.63 6.03-12.17s8 4 8.75 10.2c.78 6.15-1.94 11.6-6.03 12.17" clip-rule="evenodd"/><path fill="#c4c4c4" fill-rule="evenodd" d="M32.07 29.61c-4.5.58-8.79-4.33-9.62-11.06-.82-6.73 2.15-12.63 6.65-13.25 4.5-.58 8.8 4.33 9.62 11.06.83 6.73-2.15 12.63-6.65 13.25m5.58-13.08c-.7-5.9-4.42-10.24-8.34-9.7-3.88.53-6.48 5.73-5.74 11.6.7 5.9 4.42 10.23 8.34 9.7 3.88-.5 6.48-5.7 5.74-11.6" clip-rule="evenodd"/><path fill="#fff" fill-rule="evenodd" d="M31.9 28.13c-3.91.53-7.63-3.8-8.33-9.7-.74-5.87 1.86-11.07 5.74-11.6 3.92-.54 7.64 3.8 8.34 9.7.74 5.9-1.86 11.1-5.74 11.6" clip-rule="evenodd"/><path fill="#000101" d="M35 15.33q.66-.04 1.26.22-.2.21-.35.47c-.67 1.1-.56 2.29.23 2.72.68.34 1.62 0 2.3-.74q.37.91.45 2c.12 2.68-1.37 4.9-3.39 5.03-1.98.08-3.71-1.98-3.88-4.67-.12-2.68 1.36-4.9 3.39-5.03m-16.29 1.04q.66-.01 1.25.26-.2.22-.37.46c-.7 1.07-.63 2.27.15 2.72.66.37 1.62.06 2.31-.66q.35.92.38 2c.04 2.7-1.51 4.88-3.53 4.94-1.98.02-3.65-2.1-3.73-4.8-.04-2.68 1.52-4.86 3.54-4.92"/></g><defs><clipPath id="a"><path fill="#fff" d="M0 0h82v91H0z"/></clipPath></defs></svg>