<svg xmlns="http://www.w3.org/2000/svg" width="174" height="36" fill="none"><g clip-path="url(#a)"><path fill="#1F1915" fill-opacity=".66" d="M39.585 9.312 36.61.72h1.116l2.076 6.24.276.876h.048l.288-.876 2.16-6.24h1.116l-3.06 8.592zm5.021 0V3h1.008v6.312zm.504-7.848a.7.7 0 0 1-.516-.216.7.7 0 0 1-.216-.516.68.68 0 0 1 .216-.516A.7.7 0 0 1 45.11 0a.68.68 0 0 1 .516.216.68.68 0 0 1 .216.516q0 .3-.216.516a.68.68 0 0 1-.516.216m5.239 8.04q-.468 0-.864-.156a2.3 2.3 0 0 1-.684-.384 2.1 2.1 0 0 1-.456-.516h-.048v.864h-.96V0h1.008v3l-.048.864h.048q.168-.276.456-.516t.684-.384q.408-.156.876-.156.852 0 1.476.432.636.42.984 1.176.348.744.348 1.74 0 .984-.348 1.74t-.984 1.188q-.636.42-1.488.42m-.108-.924q.564 0 .996-.276.432-.288.672-.828.252-.54.252-1.32t-.252-1.32q-.24-.54-.672-.816a1.75 1.75 0 0 0-.996-.288q-.564 0-1.008.288-.432.276-.684.816t-.252 1.32.252 1.32.684.828a1.87 1.87 0 0 0 1.008.276m6.811.924q-.888 0-1.548-.432a2.97 2.97 0 0 1-1.008-1.2q-.348-.756-.348-1.704 0-.972.36-1.728a2.95 2.95 0 0 1 1.02-1.2q.66-.432 1.512-.432.912 0 1.536.36.636.36.972 1.032.336.66.336 1.584 0 .156-.012.312 0 .144-.012.252h-5.1v-.84h4.068a2.3 2.3 0 0 0-.132-.732 1.4 1.4 0 0 0-.336-.564 1.3 1.3 0 0 0-.552-.36 2 2 0 0 0-.768-.132q-.564 0-.996.288-.42.276-.66.816-.228.54-.228 1.344 0 .768.24 1.308t.672.828q.444.276 1.02.276.756 0 1.14-.312a1.85 1.85 0 0 0 .576-.828l.888.24a2.37 2.37 0 0 1-.852 1.296q-.648.528-1.788.528m10.818 0q-.864 0-1.573-.3a3.5 3.5 0 0 1-1.224-.9 4.1 4.1 0 0 1-.792-1.416q-.276-.828-.276-1.872t.288-1.872a4.1 4.1 0 0 1 .804-1.416A3.5 3.5 0 0 1 66.333.84 3.8 3.8 0 0 1 67.87.528q.924 0 1.68.324a2.95 2.95 0 0 1 1.224.948q.48.624.54 1.524l-.948.144a2.25 2.25 0 0 0-.372-.96 2.17 2.17 0 0 0-.828-.732Q68.65 1.5 67.87 1.5q-.816 0-1.464.396-.636.396-1.008 1.176-.36.78-.36 1.944 0 1.152.372 1.932t1.008 1.188a2.73 2.73 0 0 0 1.452.396q1.104 0 1.74-.576t.792-1.44l.912.108q-.12.924-.588 1.572t-1.2.984q-.732.324-1.656.324m7.314 0q-.924 0-1.608-.42a2.9 2.9 0 0 1-1.044-1.188q-.372-.756-.372-1.74 0-.996.372-1.74a2.8 2.8 0 0 1 1.044-1.176q.684-.432 1.608-.432t1.596.432q.672.42 1.032 1.176.372.744.372 1.74 0 .984-.372 1.74-.36.756-1.032 1.188-.672.42-1.596.42m0-.924q.588 0 1.032-.288a1.9 1.9 0 0 0 .708-.828q.252-.54.252-1.308t-.252-1.308a1.9 1.9 0 0 0-.708-.828 1.85 1.85 0 0 0-1.032-.288q-.588 0-1.044.288a2 2 0 0 0-.72.828q-.252.54-.252 1.308t.252 1.308q.264.54.72.828t1.044.288m6.804.924q-.852 0-1.488-.42a2.83 2.83 0 0 1-.984-1.188q-.348-.756-.348-1.74 0-.996.348-1.74.348-.756.972-1.176.636-.432 1.488-.432.48 0 .876.156.396.144.684.384t.444.516h.048L83.98 3V0h1.008v9.312h-.96v-.888h-.048q-.156.276-.444.528t-.684.396a2.3 2.3 0 0 1-.864.156m.108-.924q.576 0 1.008-.276t.672-.816q.252-.552.252-1.332 0-.792-.252-1.332-.24-.54-.672-.816a1.83 1.83 0 0 0-1.008-.276 1.87 1.87 0 0 0-1.008.276q-.432.276-.672.816t-.24 1.332q0 .78.24 1.332.24.54.672.816a1.87 1.87 0 0 0 1.008.276m7.148.924q-.888 0-1.548-.432a2.97 2.97 0 0 1-1.008-1.2q-.348-.756-.348-1.704 0-.972.36-1.728a2.95 2.95 0 0 1 1.02-1.2q.66-.432 1.512-.432.912 0 1.536.36.636.36.972 1.032.336.66.336 1.584 0 .156-.012.312 0 .144-.012.252h-5.1v-.84h4.068a2.3 2.3 0 0 0-.132-.732 1.4 1.4 0 0 0-.336-.564 1.3 1.3 0 0 0-.552-.36 2 2 0 0 0-.768-.132q-.564 0-.996.288-.42.276-.66.816-.228.54-.228 1.344 0 .768.24 1.308t.672.828q.444.276 1.02.276.756 0 1.14-.312a1.85 1.85 0 0 0 .576-.828l.888.24a2.37 2.37 0 0 1-.852 1.296q-.648.528-1.788.528m6.631 0q-.853 0-1.489-.42a2.83 2.83 0 0 1-.983-1.188q-.35-.756-.349-1.74 0-.996.349-1.74.347-.756.971-1.176.637-.432 1.489-.432.48 0 .876.156.396.144.683.384t.445.516h.047L97.868 3V0h1.007v9.312h-.96v-.888h-.047q-.157.276-.445.528t-.683.396a2.3 2.3 0 0 1-.865.156m.108-.924q.575 0 1.007-.276.433-.276.672-.816.252-.552.252-1.332 0-.792-.252-1.332-.24-.54-.672-.816a1.83 1.83 0 0 0-1.007-.276 1.87 1.87 0 0 0-1.008.276q-.432.276-.672.816t-.24 1.332q0 .78.24 1.332.24.54.672.816a1.87 1.87 0 0 0 1.008.276m9.258.732L103.021.72h1.116l1.476 6.288.132.612h.048l.168-.612L107.773.72h1.044l1.896 6.9h.048l.132-.612L112.369.72h1.104l-2.208 8.592h-1.044l-1.716-6.204-.192-.72h-.048l-.192.72-1.788 6.204zm9.314 0V3h1.008v6.312zm.504-7.848a.7.7 0 0 1-.516-.216.7.7 0 0 1-.216-.516.68.68 0 0 1 .216-.516.7.7 0 0 1 .516-.216.68.68 0 0 1 .516.216.68.68 0 0 1 .216.516q0 .3-.216.516a.68.68 0 0 1-.516.216m1.711 2.46V3h1.068v.924zm2.664 5.484q-.744 0-1.2-.444-.456-.456-.456-1.26V1.272h1.008V7.5q0 .456.204.708t.612.252q.204 0 .348-.048.156-.048.288-.132v.984a2 2 0 0 1-.336.096q-.18.048-.468.048m-.708-5.484V3h1.5v.924zm2.861 5.388V0h1.008v3l-.048.864h.048q.24-.432.768-.744a2.36 2.36 0 0 1 1.224-.312q.732 0 1.224.3t.744.828q.264.528.264 1.224v4.152h-1.008V5.244q0-.48-.18-.816a1.23 1.23 0 0 0-.516-.516 1.7 1.7 0 0 0-.804-.18q-.492 0-.888.264-.384.264-.612.696a2.1 2.1 0 0 0-.216.96v3.66z"/><path fill="#202124" d="M168.075 34.143a5 5 0 0 1-.118.254 5 5 0 0 1-.085.186h-1.489q.102-.22.22-.49l.288-.627a46 46 0 0 0 .372-.829q.118-.219.271-.558l.778-1.692-3.57-8.087h1.557l2.707 6.412h.034l2.605-6.412h1.557l-4.467 10.304q-.067.152-.22.473-.135.339-.271.643a5 5 0 0 1-.169.423m-8.802-10.54V22.3h1.523v-2.436h1.438V22.3h2.115v1.303h-2.115v4.703q0 .727.288 1.083.305.338.896.338.271 0 .508-.067.237-.085.457-.22v1.404q-.27.101-.558.152a2.7 2.7 0 0 1-.626.068q-1.083 0-1.743-.643-.66-.66-.66-1.76v-5.058zm-2.569 7.326V22.3h1.438v8.629zm.711-10.22a1 1 0 0 1-.728-.304 1 1 0 0 1-.304-.727q0-.44.304-.728a1 1 0 0 1 .728-.304q.44 0 .727.304a.96.96 0 0 1 .305.728 1 1 0 0 1-.305.727.96.96 0 0 1-.727.305m-6.461 10.219-3.485-8.629h1.539l2.673 6.937h.034l2.707-6.937h1.506l-3.519 8.629zm-8.112.271q-.964 0-1.692-.373a2.96 2.96 0 0 1-1.15-1.015 2.8 2.8 0 0 1-.406-1.489q0-.948.491-1.59a2.9 2.9 0 0 1 1.319-.982 4.8 4.8 0 0 1 1.827-.338q.576 0 1.066.102.49.085.846.22.372.117.558.236v-.524q0-.981-.693-1.557-.694-.575-1.692-.575-.71 0-1.337.322-.609.304-.964.862l-1.083-.812q.339-.507.846-.88.507-.372 1.151-.575a4.7 4.7 0 0 1 1.387-.203q1.76 0 2.758.93.998.931.998 2.505v5.465h-1.371v-1.235h-.067q-.22.372-.626.727a3.5 3.5 0 0 1-.965.558q-.541.22-1.201.22m.136-1.27q.744 0 1.353-.372.626-.372.998-.998t.372-1.37a3.3 3.3 0 0 0-.981-.44 4.5 4.5 0 0 0-1.269-.17q-1.235 0-1.81.508a1.6 1.6 0 0 0-.575 1.252q0 .71.541 1.15.542.44 1.371.44m-8.603 1V22.3h1.37v1.387h.068q.17-.49.558-.845.407-.373.914-.576.525-.22 1.032-.22.39 0 .609.051.22.034.406.119v1.556a2.9 2.9 0 0 0-1.218-.27q-.626 0-1.151.355a2.65 2.65 0 0 0-.845.947 2.8 2.8 0 0 0-.305 1.303v4.822zm-5.933 3.925q-1.1 0-1.895-.373a3.7 3.7 0 0 1-1.269-.913 3.7 3.7 0 0 1-.677-1.134l1.32-.558q.27.71.914 1.184.659.49 1.607.49 1.353 0 2.081-.794.727-.78.727-2.183v-.964h-.067q-.406.625-1.168 1.066-.76.423-1.776.423a3.8 3.8 0 0 1-2.047-.575 4.14 4.14 0 0 1-1.455-1.59q-.542-1.034-.542-2.37 0-1.335.542-2.351.542-1.032 1.455-1.607a3.8 3.8 0 0 1 2.047-.576q1.016 0 1.776.44.762.423 1.168 1.066h.067V22.3h1.371v8.29q0 1.438-.559 2.386a3.37 3.37 0 0 1-1.488 1.404q-.931.474-2.132.474m0-5.059q.76 0 1.404-.372a2.7 2.7 0 0 0 1.015-1.117q.39-.728.389-1.742 0-1.05-.389-1.76-.372-.728-1.015-1.1a2.76 2.76 0 0 0-1.404-.372q-.762 0-1.404.39-.644.371-1.032 1.099-.39.71-.39 1.742t.39 1.76q.388.71 1.032 1.1a2.75 2.75 0 0 0 1.404.372m-6.988 1.134V22.3h1.438v8.629zm.711-10.22a1 1 0 0 1-.728-.304 1 1 0 0 1-.304-.727q0-.44.304-.728a1 1 0 0 1 .728-.304q.44 0 .727.304a.96.96 0 0 1 .305.728 1 1 0 0 1-.305.727.96.96 0 0 1-.727.305M115 23.603V22.3h1.523v-2.436h1.438V22.3h2.115v1.303h-2.115v4.703q0 .727.287 1.083.305.338.897.338.27 0 .508-.067.237-.085.457-.22v1.404a3 3 0 0 1-.559.152q-.288.068-.626.068-1.083 0-1.743-.643-.659-.66-.659-1.76v-5.058zm-8.234 7.326V22.3h1.37v1.269h.068q.338-.625 1.099-1.083a3.3 3.3 0 0 1 1.692-.457q1.591 0 2.386.93.812.915.812 2.437v5.532h-1.438v-5.312q0-1.252-.609-1.76-.592-.524-1.54-.524a2.03 2.03 0 0 0-1.252.406q-.541.39-.846 1.015a3 3 0 0 0-.304 1.32v4.855zm-11.789 0 4.601-12.114h1.625l4.602 12.114h-1.574l-1.235-3.333h-5.21l-1.236 3.333zm7.528-4.687-1.607-4.365-.474-1.302h-.067l-.474 1.302-1.607 4.365zM43.553 31.2c-3.773 0-6.944-3.074-6.944-6.848s3.17-6.848 6.944-6.848c2.088 0 3.572.818 4.69 1.887l-1.319 1.318c-.802-.752-1.886-1.337-3.37-1.337-2.754 0-4.907 2.222-4.907 4.979 0 2.756 2.154 4.976 4.906 4.976 1.786 0 2.805-.718 3.456-1.37.533-.535.884-1.302 1.019-2.356h-4.523v-1.87h6.341c.067.334.1.735.1 1.17 0 1.402-.385 3.14-1.619 4.376-1.2 1.252-2.736 1.92-4.774 1.92zm15.891-4.409c0 2.54-1.984 4.41-4.417 4.41s-4.418-1.87-4.418-4.41 1.985-4.41 4.418-4.41 4.417 1.854 4.417 4.41m-1.935 0c0-1.587-1.15-2.672-2.484-2.672-1.333 0-2.485 1.085-2.485 2.672s1.152 2.672 2.485 2.672 2.484-1.102 2.484-2.672m11.544 0c0 2.54-1.984 4.41-4.417 4.41s-4.417-1.87-4.417-4.41 1.984-4.41 4.417-4.41 4.417 1.854 4.417 4.41m-1.934 0c0-1.587-1.151-2.672-2.485-2.672s-2.484 1.085-2.484 2.672 1.151 2.672 2.484 2.672c1.334 0 2.485-1.102 2.485-2.672m11.138-4.143v7.917c0 3.256-1.92 4.593-4.19 4.593-2.136 0-3.421-1.436-3.905-2.605l1.686-.701c.3.719 1.036 1.57 2.22 1.57 1.453 0 2.354-.9 2.354-2.589V30.2h-.066c-.434.535-1.27 1.002-2.321 1.002-2.203 0-4.222-1.92-4.222-4.393 0-2.474 2.019-4.427 4.222-4.427 1.052 0 1.887.467 2.32.986h.067v-.72zm-1.703 4.16c0-1.554-1.035-2.69-2.354-2.69-1.318 0-2.453 1.137-2.453 2.69s1.118 2.655 2.453 2.655 2.354-1.12 2.354-2.655m5.031-8.837v12.961h-1.937v-12.96zm7.505 10.273 1.502 1.002c-.483.72-1.653 1.955-3.672 1.955-2.503 0-4.373-1.938-4.373-4.41 0-2.622 1.887-4.41 4.156-4.41 2.27 0 3.404 1.82 3.772 2.806l.2.5-5.892 2.44c.45.884 1.151 1.336 2.137 1.336s1.67-.484 2.17-1.22m-4.623-1.587 3.939-1.637c-.217-.552-.868-.936-1.635-.936-.984 0-2.354.868-2.302 2.573z"/><mask id="b" width="31" height="28" x="0" y="4" maskUnits="userSpaceOnUse" style="mask-type:alpha"><path fill="#000" d="M27.547 31.364c1.697 1.272 4.242.424 1.91-1.91C22.456 22.668 23.94 4 15.243 4S8.032 22.667 1.032 29.455c-2.546 2.545.212 3.181 1.909 1.909C9.517 26.909 9.092 19.06 15.244 19.06c6.151 0 5.727 7.848 12.303 12.303"/></mask><g mask="url(#b)"><g filter="url(#c)"><path fill="#FFE432" d="M-1.285-2.322C-1.8 2.226 2.118 6.404 7.468 7.011c5.35.608 10.105-2.586 10.62-7.134.517-4.547-3.402-8.725-8.751-9.332C3.987-10.063-.77-6.87-1.285-2.322"/></g><g filter="url(#d)"><path fill="#FC413D" d="M19.327 12.545c1.34 5.771 7.208 9.339 13.106 7.97s9.592-7.16 8.252-12.93c-1.34-5.772-7.208-9.34-13.106-7.97s-9.593 7.159-8.252 12.93"/></g><g filter="url(#e)"><path fill="#00B95C" d="M-15.741 16.416c1.694 5.956 9.321 9.006 17.037 6.812S13.893 14.427 12.2 8.47C10.506 2.515 2.878-.535-4.838 1.66c-7.715 2.194-12.597 8.8-10.903 14.756"/></g><g filter="url(#f)"><path fill="#00B95C" d="M-15.741 16.416c1.694 5.956 9.321 9.006 17.037 6.812S13.893 14.427 12.2 8.47C10.506 2.515 2.878-.535-4.838 1.66c-7.715 2.194-12.597 8.8-10.903 14.756"/></g><g filter="url(#g)"><path fill="#00B95C" d="M-9.625 21.353c4.246 4.337 11.558 4.063 16.332-.611 4.775-4.675 5.203-11.98.957-16.316C3.42.089-3.894.363-8.668 5.037c-4.774 4.675-5.203 11.98-.957 16.316"/></g><g filter="url(#h)"><path fill="#3186FF" d="M12.592 37.709c1.318 5.676 6.818 9.249 12.285 7.979 5.466-1.27 8.829-6.9 7.51-12.577-1.318-5.677-6.818-9.25-12.285-7.98-5.466 1.27-8.828 6.9-7.51 12.578"/></g><g filter="url(#i)"><path fill="#FBBC04" d="M3.261-7.632c-2.76 6.15.26 13.496 6.746 16.408s13.984.287 16.744-5.863c2.761-6.15-.26-13.496-6.746-16.408S6.022-13.782 3.26-7.632"/></g><g filter="url(#j)"><path fill="#3186FF" d="M-4.129 51.727C-10.812 49.104.61 27.517 3.45 20.282s10.56-10.973 17.244-8.35c6.684 2.625 14.605 17.076 11.765 24.31-2.84 7.236-29.904 18.109-36.588 15.485"/></g><g filter="url(#k)"><path fill="#749BFF" d="M36.367 24.86c-1.79 2.088-6.46 1.023-10.43-2.38s-5.739-7.852-3.95-9.94c1.79-2.09 6.459-1.024 10.43 2.378s5.739 7.853 3.95 9.941"/></g><g filter="url(#l)"><path fill="#FC413D" d="M23.002 14.23c7.359 4.978 15.834 5.305 18.928.73s-.362-12.32-7.722-17.297c-7.36-4.979-15.834-5.306-18.928-.73-3.095 4.574.362 12.318 7.722 17.296"/></g><g filter="url(#m)"><path fill="#FFEE48" d="M-1.158 6.132c-1.823 4.398-1.227 8.823 1.33 9.884s6.11-1.646 7.933-6.044C9.928 5.573 9.333 1.149 6.775.088S.665 1.734-1.158 6.132"/></g></g></g><defs><filter id="c" width="22.353" height="19.507" x="-2.774" y="-10.976" color-interpolation-filters="sRGB" filterUnits="userSpaceOnUse"><feFlood flood-opacity="0" result="BackgroundImageFix"/><feBlend in="SourceGraphic" in2="BackgroundImageFix" result="shape"/><feGaussianBlur result="effect1_foregroundBlur_487_31" stdDeviation=".723"/></filter><filter id="d" width="35.887" height="35.465" x="12.064" y="-7.668" color-interpolation-filters="sRGB" filterUnits="userSpaceOnUse"><feFlood flood-opacity="0" result="BackgroundImageFix"/><feBlend in="SourceGraphic" in2="BackgroundImageFix" result="shape"/><feGaussianBlur result="effect1_foregroundBlur_487_31" stdDeviation="3.495"/></filter><filter id="e" width="40.502" height="34.876" x="-22.02" y="-4.994" color-interpolation-filters="sRGB" filterUnits="userSpaceOnUse"><feFlood flood-opacity="0" result="BackgroundImageFix"/><feBlend in="SourceGraphic" in2="BackgroundImageFix" result="shape"/><feGaussianBlur result="effect1_foregroundBlur_487_31" stdDeviation="2.971"/></filter><filter id="f" width="40.502" height="34.876" x="-22.02" y="-4.994" color-interpolation-filters="sRGB" filterUnits="userSpaceOnUse"><feFlood flood-opacity="0" result="BackgroundImageFix"/><feBlend in="SourceGraphic" in2="BackgroundImageFix" result="shape"/><feGaussianBlur result="effect1_foregroundBlur_487_31" stdDeviation="2.971"/></filter><filter id="g" width="35.018" height="34.975" x="-18.489" y="-4.598" color-interpolation-filters="sRGB" filterUnits="userSpaceOnUse"><feFlood flood-opacity="0" result="BackgroundImageFix"/><feBlend in="SourceGraphic" in2="BackgroundImageFix" result="shape"/><feGaussianBlur result="effect1_foregroundBlur_487_31" stdDeviation="2.971"/></filter><filter id="h" width="31.661" height="32.363" x="6.658" y="19.228" color-interpolation-filters="sRGB" filterUnits="userSpaceOnUse"><feFlood flood-opacity="0" result="BackgroundImageFix"/><feBlend in="SourceGraphic" in2="BackgroundImageFix" result="shape"/><feGaussianBlur result="effect1_foregroundBlur_487_31" stdDeviation="2.824"/></filter><filter id="i" width="35.775" height="34.882" x="-2.883" y="-19.8" color-interpolation-filters="sRGB" filterUnits="userSpaceOnUse"><feFlood flood-opacity="0" result="BackgroundImageFix"/><feBlend in="SourceGraphic" in2="BackgroundImageFix" result="shape"/><feGaussianBlur result="effect1_foregroundBlur_487_31" stdDeviation="2.559"/></filter><filter id="j" width="48.391" height="50.174" x="-10.766" y="6.524" color-interpolation-filters="sRGB" filterUnits="userSpaceOnUse"><feFlood flood-opacity="0" result="BackgroundImageFix"/><feBlend in="SourceGraphic" in2="BackgroundImageFix" result="shape"/><feGaussianBlur result="effect1_foregroundBlur_487_31" stdDeviation="2.285"/></filter><filter id="k" width="23.953" height="22.637" x="17.199" y="7.381" color-interpolation-filters="sRGB" filterUnits="userSpaceOnUse"><feFlood flood-opacity="0" result="BackgroundImageFix"/><feBlend in="SourceGraphic" in2="BackgroundImageFix" result="shape"/><feGaussianBlur result="effect1_foregroundBlur_487_31" stdDeviation="2.045"/></filter><filter id="l" width="35.822" height="31.393" x="10.694" y="-9.75" color-interpolation-filters="sRGB" filterUnits="userSpaceOnUse"><feFlood flood-opacity="0" result="BackgroundImageFix"/><feBlend in="SourceGraphic" in2="BackgroundImageFix" result="shape"/><feGaussianBlur result="effect1_foregroundBlur_487_31" stdDeviation="1.727"/></filter><filter id="m" width="19.925" height="24.938" x="-6.486" y="-4.417" color-interpolation-filters="sRGB" filterUnits="userSpaceOnUse"><feFlood flood-opacity="0" result="BackgroundImageFix"/><feBlend in="SourceGraphic" in2="BackgroundImageFix" result="shape"/><feGaussianBlur result="effect1_foregroundBlur_487_31" stdDeviation="2.138"/></filter><clipPath id="a"><path fill="#fff" d="M0 0h174v36H0z"/></clipPath></defs></svg>