<svg xmlns="http://www.w3.org/2000/svg" width="32" height="32" fill="none" viewBox="0 0 32 32">
  <g clip-path="url(#a)">
    <path fill="#0F0E0D" fill-rule="evenodd" d="M18.97 13.183a4.88 4.88 0 0 0 1.85.48c2.097.23 4.207.302 6.314.213a10.27 10.27 0 0 0 2.863-.52 1.466 1.466 0 0 0 .986-.933c.132-.825.199-1.655.2-2.49.08-2.317 0-5.448 0-5.448a.534.534 0 0 0 0-.24 6.397 6.397 0 0 0-1.931-2.664 10.267 10.267 0 0 0-2.665-1.57.4.4 0 0 0-.173 0h-3.063c-.695.004-1.387.053-2.078.146a.427.427 0 0 0-.347.48.413.413 0 0 0 .4.386 14.208 14.208 0 0 1 1.945 0h1.453a18.58 18.58 0 0 0-.16 2.224c0 .355.022.71.066 1.066.043.347.142.683.294.998a.854.854 0 0 0 .585.453c.404.034.808.034 1.212 0a11.028 11.028 0 0 0 1.705-.213.467.467 0 0 0 .267-.83.493.493 0 0 0-.347-.116c-.427 0-.88 0-1.333-.12-.454-.12-.532-.08-.759-.133-.067-.347-.12-.827-.213-1.332-.147-.76-.32-1.532-.413-1.957h.52a8.71 8.71 0 0 1 2.265 1.465 5.333 5.333 0 0 1 1.332 2.05c0 .587-.134 3.25-.24 5.329 0 .812-.08 1.517-.133 1.904-.094 0-.254.146-.387.186-1.388.25-2.798.362-4.208.334-1.445.02-2.89-.038-4.33-.174h-.546c0-.173-.187-.52-.24-.893a50.67 50.67 0 0 1-.307-5.327 14.666 14.666 0 0 1 .267-4.222.48.48 0 0 0-.187-.654.467.467 0 0 0-.639.174 26.004 26.004 0 0 0-.586 6.953c-.019 1.39.061 2.778.24 4.156.068.333.254.63.521.839Zm-.6 15.21c.021.688.084 1.371.187 2.051.041.313.187.604.413.827.579.28 1.208.442 1.85.478 2.097.232 4.207.303 6.314.214.972-.02 1.936-.177 2.863-.467a1.468 1.468 0 0 0 .986-.932 15.8 15.8 0 0 0 .2-2.49c.08-2.318 0-5.449 0-5.449a.534.534 0 0 0 0-.24 6.385 6.385 0 0 0-1.931-2.662 10.269 10.269 0 0 0-2.665-1.572.402.402 0 0 0-.173 0h-3.063c-.695.004-1.388.053-2.078.146a.426.426 0 0 0-.29.634.413.413 0 0 0 .423.192 14.821 14.821 0 0 1 1.946 0h1.451a17.655 17.655 0 0 0-.213 2.224c0 .352.022.703.067 1.053.043.35.142.692.293 1.012a.8.8 0 0 0 .585.44c.404.04.808.04 1.212 0a12.78 12.78 0 0 0 1.706-.213.467.467 0 0 0 .267-.83.493.493 0 0 0-.347-.117c-.427 0-.88-.067-1.334-.12-.453-.053-.532-.08-.758-.133-.067-.347-.12-.826-.213-1.33-.147-.774-.32-1.534-.414-1.96h.52c.827.368 1.59.863 2.265 1.466a5.334 5.334 0 0 1 1.332 2.05c0 .587-.133 3.251-.24 5.328 0 .814-.08 1.52-.133 1.904-.093 0-.253.147-.386.187-1.389.25-2.798.362-4.209.333-1.445.02-2.89-.037-4.329-.173h-.547c0-.173-.186-.52-.24-.892a51.998 51.998 0 0 1-.305-5.328 14.665 14.665 0 0 1 .267-4.221.48.48 0 0 0-.707-.619.533.533 0 0 0-.12.139 25.998 25.998 0 0 0-.587 6.952v1.12l.135.998Z" clip-rule="evenodd"/>
    <path fill="#C9541A" fill-rule="evenodd" d="M1.763 6.23a.48.48 0 0 0 .48-.48.4.4 0 0 0 0-.16v-.253c0-.373.12-.972.146-1.61a5.46 5.46 0 0 0 0-.8c0-.32-.106-.587-.146-.787-.04-.2-.16-.89-.187-1.077a.533.533 0 0 1 0-.174c-.173-.28-.36-.346-.493-.306a.413.413 0 0 0-.387.4.133.133 0 0 0 0 .066c-.187 0-.24.827-.293 1.092A5.824 5.824 0 0 0 .777 3.26c.012.368.056.732.134 1.093.086.45.197.893.333 1.331.107.453.453.547.52.547m.332 8.07a.48.48 0 0 0 .48-.466.4.4 0 0 0 0-.214v-.186c-.04-.346.107-.878.107-1.411.013-.235.013-.47 0-.707 0-.293-.134-.518-.16-.692-.027-.173-.174-.72-.214-.96v-.08a.133.133 0 0 0 0-.105c0-.107-.706-.453-.853.16-.067.253-.2.813-.24.987a5.337 5.337 0 0 0-.093 1.037c.026.339.084.672.173 1 .098.413.227.817.387 1.21.053.36.333.44.413.427ZM1.629 21.6a.48.48 0 1 0 .947 0c.136-.517.208-1.05.213-1.585 0-.334-.08-.652-.106-.959-.027-.307-.134-1.079-.36-1.052a.4.4 0 0 0 0-.187c0-.493-.534-.306-.64-.28a.774.774 0 0 0-.24.44c-.08.24-.2 1.014-.24 1.174a8.89 8.89 0 0 0 0 .997c.146.56.32.999.426 1.452Zm4.09 5.528-1.479-.147c-.36 0-.707-.106-1.025-.173a1.868 1.868 0 0 1-.534-.133s.147.12.08.146c-.386.134-.146-1.252-.226-1.545-.08-.293 0-.892-.214-.919a.426.426 0 0 0-.069-.342.4.4 0 0 0-.463-.138.534.534 0 0 0-.32.467v1.093c0 .172-.213 1.011-.2 1.491.009.298.117.584.307.813.425.371.968.579 1.533.586a16.346 16.346 0 0 0 2.663-.294.48.48 0 0 0 0-.946l-.053.041Zm6.38.12c-.28 0-.867-.267-1.546-.373a5.327 5.327 0 0 0-.626 0H9.5c-.465.08-.824.173-1.01.213h-.08a.4.4 0 0 0-.187 0s-.4.653.186.867c.187 0 .547.198 1.012.332.139.046.282.078.427.093.208.02.417.02.627 0a10.91 10.91 0 0 0 1.624-.253.48.48 0 0 0 .466-.48.48.48 0 0 0-.466-.4M8.316 8.24a.325.325 0 0 0 .16 0 .48.48 0 0 0 .48-.48c0-.08-.107-.413-.6-.546a9.333 9.333 0 0 0-1.679-.279 6.266 6.266 0 0 0-1.118 0 6.15 6.15 0 0 0-1.918.573.44.44 0 0 0 0 .6.453.453 0 0 0 .374.159h.08c.28 0 .812.187 1.477.24.364.034.729.034 1.093 0 .706-.067 1.331-.24 1.598-.253l.053-.014Zm8.07-.732a.48.48 0 0 0-.48-.466 17.34 17.34 0 0 0-1.717-.28 6.669 6.669 0 0 0-1.145 0c-.747 0-1.332.266-1.665.28h-.16a.413.413 0 0 0-.427.4c0 .093.093.373.547.52a8.057 8.057 0 0 0 1.773.398c.38.034.762.034 1.144 0a15.934 15.934 0 0 0 1.652-.333.48.48 0 0 0 .48-.52m-.093 19.553c-.2-.02-.4-.02-.6 0a2.01 2.01 0 0 0-.4 0c-.412.016-.82.088-1.212.214-.254 0-.574.573.146.865.32.141.65.261.987.36.129.046.262.077.399.093.2.02.4.02.6 0 1.917-.293 1.904-1.292.08-1.532Z" clip-rule="evenodd"/>
  </g>
  <defs>
    <clipPath id="a">
      <path fill="#fff" d="M0 0h32v32H0z"/>
    </clipPath>
  </defs>
</svg>
