<svg xmlns="http://www.w3.org/2000/svg" width="24" height="24" fill="none" viewBox="0 0 24 24">
  <path fill="#0F0E0D" fill-rule="evenodd" d="M21.167 6.25a2.3 2.3 0 0 0-1.347.856.302.302 0 1 0 .39.46c.518-.36.588-.42 1.067-.43.479-.01 1.616.75 1.636 1.277a2.22 2.22 0 0 1-.459 1.557c-.668-.519-2.315-1.686-2.744-1.996a.34.34 0 0 0-.479 0c-.389.44.38.67 2.654 2.615-.299.51-.419.588-3.741 4.46a3.8 3.8 0 0 0-2.265-1.896c2.853-3.99 3.362-4.1 2.993-4.42-.37-.32-.499.15-.848.548-2.475 2.884-3.842 4.46-3.872 4.99-.11 2.185-.21 3.244.12 3.552.649.62 2.994-.27 3.532-.619a68.005 68.005 0 0 0 5.838-7.513c.941-1.486-.078-3.434-1.836-3.507a2.3 2.3 0 0 0-.639.065Zm-4.061 9.976a6.103 6.103 0 0 1-1.996.639c-.14-3.063-.08-2.494.33-3.093a13.698 13.698 0 0 0 2.185 1.855c-.28.34-.47.56-.52.598" clip-rule="evenodd"/>
  <path fill="#0F0E0D" fill-rule="evenodd" d="M17.136 19.34c-.25 1.078-.55 1.437-1.866 1.647-3.62.321-7.263.248-10.866-.22-.68-.12-1.318-.15-1.996-.25-.678-.098-.55-.13-1.267-.29-.13-.607.608-2.104.768-2.812 0 0 2.175-10.348 2.335-11.286.21-1.165.34-2.34.389-3.522 1.227 0 3.113.24 4.25.37 3.563.398 7.415-.62 9.84.768.146.518.194 1.06.14 1.596a.301.301 0 0 0 .299.324.3.3 0 0 0 .299-.324c.08-.67.19-1.776-.28-2.265-1.077-1.098-4.21-1.267-5.847-1.267-1.457.06-2.914.24-4.35.16-.64 0-3.992-.14-4.63-.1-.47 0-.29.668-.31.758-.34 2.993-.11 1.507-3.223 14.489-.22.957-1.137 2.484-.708 3.652.23.598.918.618 1.247.718.943.196 1.894.332 2.854.41 2.98.357 5.992.39 8.98.099 1.148-.08 2.735-.09 3.722-.768a2.62 2.62 0 0 0 .888-1.707.346.346 0 0 0-.668-.18Z" clip-rule="evenodd"/>
  <path fill="#C9541A" fill-rule="evenodd" d="M15.6 6.797c-1.108 0-2.695-.15-4.202-.21-2.674-.11-1.926.21-4.3-.08-.22 0-1.068-.319-1.228.16-.16.48.53.3 1.098.55.568.248 1.477.578 5.12.508 1.306 0 2.603-.14 3.551-.24a.345.345 0 1 0-.04-.688m-2.624 4.171c-5.648-.32-6.566-.41-7.444-.868a.302.302 0 0 0-.414.095.3.3 0 0 0 .094.414 6.741 6.741 0 0 0 3.074 1.177c1.564.126 3.137.08 4.69-.14a.34.34 0 1 0 0-.678Zm-3.163 4.68c-2.215-.12-4.31-.26-5.438-1.168-.31-.25-.868.26-.21.818a7.7 7.7 0 0 0 1.557.848c2.285.81 4.24.56 6.765.28a.34.34 0 1 0 0-.679c-.888.03-1.776-.05-2.674-.1" clip-rule="evenodd"/>
</svg>
