<svg xmlns="http://www.w3.org/2000/svg" width="40" height="40" fill="none" viewBox="0 0 40 40">
  <g clip-path="url(#a)">
    <path fill="#0E0E0E" fill-rule="evenodd" d="M26.175 9.35a6.666 6.666 0 0 1-1.1-.083c.1-.367.25-.8.4-1.267.716-2.367 1.066-4.85-.834-6.45a.45.45 0 0 0-.616.65c1.966 2.133-.45 5.083-.7 7.317-.25 2.233 5.117 1.5 6.966.65l2.817-1.184a.583.583 0 0 0-.283-1.1c-3.534 1.284-3.684 1.534-6.65 1.467Z" clip-rule="evenodd"/>
    <path fill="#0E0E0E" d="M12.565 19.8a4.57 4.57 0 0 1-1.045-.12 6.118 6.118 0 0 1-.954-.309c-.134.515-.25 1.078-.348 1.689a2.575 2.575 0 0 1-.11.471.749.749 0 0 1-.229.335c-.104.085-.257.128-.458.128-.19 0-.315-.068-.376-.205a1.241 1.241 0 0 1-.092-.506c0-.063.025-.226.073-.489.05-.263.11-.58.184-.951.073-.377.15-.766.229-1.166-.25-.234-.376-.448-.376-.643 0-.097.03-.188.092-.274.067-.091.195-.137.385-.137.024 0 .058.008.1.026.062-.32.114-.606.156-.858.05-.257.077-.442.083-.557.012-.217.049-.377.11-.48a.45.45 0 0 1 .23-.214.77.77 0 0 1 .293-.06c.128 0 .226.026.293.077.067.052.1.166.1.343 0 .171-.002.329-.008.471.299-.48.61-.817.934-1.011.324-.2.679-.3 1.064-.3a1.7 1.7 0 0 1 .99.291c.28.195.498.475.65.84.16.36.239.795.239 1.303 0 .777-.192 1.357-.577 1.74-.38.377-.923.566-1.632.566Zm-1.687-1.44c.226.114.468.214.724.3.257.08.52.12.789.12.434 0 .751-.106.953-.317.208-.212.312-.56.312-1.046 0-.863-.278-1.294-.835-1.294-.354 0-.7.186-1.035.557-.33.371-.633.931-.908 1.68Zm5.212 4.14a.616.616 0 0 1-.423-.137c-.097-.086-.146-.209-.146-.369a.57.57 0 0 1 .128-.377c.086-.108.25-.211.495-.308l.055-.018a.415.415 0 0 1-.32-.24 1.169 1.169 0 0 1-.083-.454c0-.097.018-.254.055-.471a33.691 33.691 0 0 1 .312-1.577c.06-.28.113-.526.155-.738.116-.485.266-.914.45-1.285.183-.372.43-.66.742-.866.312-.211.712-.317 1.2-.317.373 0 .74.074 1.1.223.367.143.7.345 1 .608.3.263.538.572.715.926.183.354.275.743.275 1.166 0 .48-.202.963-.605 1.448-.403.486-.969.952-1.696 1.397-.721.44-1.564.838-2.53 1.192a5.445 5.445 0 0 1-.43.137c-.123.04-.273.06-.45.06Zm.787-1.457c.887-.332 1.602-.649 2.145-.952.544-.302.939-.622 1.183-.96.25-.337.376-.72.376-1.148 0-.24-.086-.469-.257-.686a1.87 1.87 0 0 0-.66-.523 1.85 1.85 0 0 0-.852-.205.946.946 0 0 0-.78.368c-.195.24-.351.652-.467 1.234-.055.235-.113.489-.174.763-.055.269-.11.529-.165.78-.05.246-.092.452-.129.617-.03.166-.049.263-.055.292a.998.998 0 0 1-.165.42Zm6.772 1.003a.366.366 0 0 1-.348-.215c-.074-.142-.11-.397-.11-.762 0-.515.033-1.058.1-1.629.074-.577.168-1.2.285-1.869.104-.531.351-.94.742-1.225.397-.286.929-.52 1.595-.703.416-.114.846-.22 1.293-.317a18.49 18.49 0 0 1 1.255-.232 6.51 6.51 0 0 1 .981-.094c.196 0 .349.029.459.086a.5.5 0 0 1 .229.214.43.43 0 0 1 .073.223.528.528 0 0 1-.082.291c-.055.086-.174.152-.358.197-.08.023-.247.063-.504.12l-.926.189c-.36.074-.742.154-1.146.24-.403.08-.794.163-1.173.249-.373.102-.648.228-.825.377-.171.143-.284.351-.34.625a2.757 2.757 0 0 0-.036.24c.25-.074.52-.134.807-.18.287-.045.553-.08.797-.102.245-.023.425-.035.541-.035.122 0 .25.02.385.06a.96.96 0 0 1 .358.163c.104.069.155.157.155.266a.393.393 0 0 1-.128.283c-.085.08-.26.157-.522.231a3.21 3.21 0 0 1-.376.069c-.19.028-.416.065-.679.111-.256.04-.519.086-.788.137a8.742 8.742 0 0 0-.697.163 70.395 70.395 0 0 0-.21 1.732 5.875 5.875 0 0 1-.055.42.81.81 0 0 1-.266.497.726.726 0 0 1-.486.18Z"/>
    <path fill="#0E0E0E" fill-rule="evenodd" d="M26.46.1C24.16 0 25.21 0 9.99 0a.542.542 0 1 0 0 1.083c14.185.117 14.602 0 16.368.267 1.767.267 6.25 4.417 7.385 6.167.239.29.384.645.417 1.016-.167 2.567-1.233 10.004-1.667 11.804-.433 1.8-.75 3-1.05 4.516-.116.6-.866 7.667-2.75 8.584-2.65 1.285-5.616.433-8.335.666a76.655 76.655 0 0 1-7.633.352c-9.003-.317-8.587-.183-11.02-1.35 2.217-3.017 3.7-10.002 4.483-14.085.884-4.5.584-9.085.934-13.62 0-.783.783-5-.5-4.367-.517.234-.35 1-.35 1.35 0 2.25-.55 10.985-.684 12.435a61.167 61.167 0 0 1-4.133 15.854c-.267.5-.583.983-.883 1.45-.24.283-.432.604-.567.95a1.267 1.267 0 0 0 .717 1.266 11.832 11.832 0 0 0 3.333 1.267c5.452.538 10.94.61 16.403.217 2.817-.25 5.95.65 9.017-.85 2.8-1.367 3.433-8.75 3.633-9.8.284-1.519.685-3.002.985-4.502.3-1.5 1.317-9.168 1.467-12.068C35.694 6.085 28.776.283 26.459.1Z" clip-rule="evenodd"/>
    <path fill="#C9541A" fill-rule="evenodd" d="M38.478 9.683c-.166 2.569-1.566 12.854-1.933 14.587-.367 1.733-.75 3-1.05 4.517-.117.6-.867 7.668-2.75 8.585-2.65 1.266-5.617.433-8.333.666-1.669.15-5.402.417-7.637.35-8.583-.316-8.567 0-10.667-.95-1.216-.483-1.516.684-.766 1.2.86.508 1.822.815 2.816.9a94.992 94.992 0 0 0 16.385.2c2.817-.233 5.95.667 9.017-.833 2.802-1.367 3.452-8.75 3.635-9.8.283-1.517.683-3 .983-4.5.3-1.5 1.684-11.805 1.817-14.605.083-1.567-1.333-1.8-1.517-.317Z" clip-rule="evenodd"/>
  </g>
  <defs>
    <clipPath id="a">
      <path fill="#fff" d="M0 0h40v40H0z"/>
    </clipPath>
  </defs>
</svg>
