<svg xmlns="http://www.w3.org/2000/svg" width="24" height="24" fill="none" viewBox="0 0 24 24">
  <g clip-path="url(#a)">
    <path fill="#0F0E0D" fill-rule="evenodd" d="M1.363 1.141a.3.3 0 0 0-.58-.14C.015 4.22.105 14.563.764 17.291c.43 1.7 5.437 1.75 7.246 1.76a.34.34 0 0 0 0-.67c-1.449-.07-4.697-.29-5.996-1-.38-.21-.44.19-.67-5.826-.09-2.349-.17-4.068-.19-6.176.05-.19.08-3.518.21-4.238Z" clip-rule="evenodd"/>
    <path fill="#C9541A" fill-rule="evenodd" d="M19.294 4.47c-4.767 0-7.246-.54-17.21 0a.29.29 0 0 0-.25.24v.11a.28.28 0 0 0 .29.23c3.248-.06 4.068.56 17.18 0a.33.33 0 1 0-.01-.58Z" clip-rule="evenodd"/>
    <path fill="#0F0E0D" fill-rule="evenodd" d="M2.423.941c2.818-.15 17.12.22 17.68.69.36.3.54 3.168.64 3.998.18 1.54.32 2.868.4 4.427a.3.3 0 0 0 .59 0c0-1.42-.09-3.088-.19-4.487s0-3.998-.75-4.678c-1.43-1.349-16.16-.82-18.42-.62a.34.34 0 0 0 .05.67m1.07 2.24a.76.76 0 0 0 1.09 0 .7.7 0 0 0-.18-.91c-.68-.39-1.52.3-.91.91Z" clip-rule="evenodd"/>
    <path fill="#0F0E0D" fill-rule="evenodd" d="M5.83 2.94a.76.76 0 0 0 1.1 0A.71.71 0 0 0 6.75 2c-.69-.37-1.53.32-.92.94Zm2.56 0a.76.76 0 0 0 1.1 0A.7.7 0 0 0 9.31 2c-.69-.37-1.53.32-.92.94Zm15.23 18.95a28.49 28.49 0 0 0-2.618-3.899c3.148-4.997-3.458-10.144-8.415-6.336a5.187 5.187 0 0 0-1.47 6.726c1.5 2.43 4.438 2.998 4.388 2.17a.29.29 0 0 0-.31-.27c-1.399.07-2.788-1.22-3.388-2.3a4.3 4.3 0 0 1 1.44-5.446c2.878-2.12 6.775-.83 7.515 1.998.65 2.47-1.449 4.878-3.588 5.627a.33.33 0 0 0-.145.533.33.33 0 0 0 .355.097 5.97 5.97 0 0 0 1.22-.55c.37.52 1.32 1.82 1.41 2 2.057 2.947 4.346 1.75 3.606-.35Zm-.999.998c-.74.38-2.858-2.2-3.528-2.949a6.7 6.7 0 0 0 1.43-1.329c.31.44 2.618 3.978 2.118 4.238l-.02.04ZM12.117 8.308c.92-.13 2 .66 3.278.28a5.2 5.2 0 0 1 2.12-.23c-.08 0 .91 0 .86-.33-.05-.33-1.08-.29-1.48-.39a2.891 2.891 0 0 0-.72 0c-1.129 0-1 .37-2.299-.07-2.478-.83-2.398.07-3.228.23-.83.16-2.109-.91-3.048-.4-.52.28-.92 1-.42 1.12.5.12.21-.31.7-.51s1.998 1.27 3.328.75a3.59 3.59 0 0 1 .91-.45m-2.05 3.027c-2.059.28-3.058-.55-4.797-.34.18 0-2.109-.06-2.429.62a.3.3 0 0 0 .22.45c.24 0-.19-.17 4.368.18h.6a4.9 4.9 0 0 0 1.998-.27.34.34 0 0 0 .04-.64ZM7.01 15.463a.33.33 0 0 0 0-.66c-1.26-.065-2.524.06-3.748.37-.2.19-.18.34 0 .44.18.1.07.09.16.09 1.2.162 2.42.08 3.588-.24Z" clip-rule="evenodd"/>
  </g>
  <defs>
    <clipPath id="a">
      <path fill="#fff" d="M0 0h24v24H0z"/>
    </clipPath>
  </defs>
</svg>
