<svg xmlns="http://www.w3.org/2000/svg" width="24" height="24" fill="none" viewBox="0 0 24 24">
  <g clip-path="url(#a)">
    <path fill="#0F0E0D" fill-rule="evenodd" d="M22.793 11.798a3 3 0 0 0-1.835-.688c-.258.012-.511.07-.749.17a3.62 3.62 0 0 0-.877.588.35.35 0 0 0-.07.479.36.36 0 0 0 .489.07 4.8 4.8 0 0 1 .618-.42c.198-.089.411-.14.628-.15.498.03.97.232 1.337.57a1.57 1.57 0 0 1 .618 1.167 2.4 2.4 0 0 1-.309.997c-.19.329-.423.625-.698.888-.818.798-2.075 2.124-3.262 3.421-1.187 1.297-2.294 2.534-2.853 3.092a7.4 7.4 0 0 1-2.683.838c0-3.56.2-3.092.499-3.491.997-1.337 3.491-4.23 4.628-5.546l.579-.678a.4.4 0 0 0 .05-.15.3.3 0 0 0-.539-.22l-.598.649c-1.197 1.277-3.83 4.08-4.908 5.376a2.8 2.8 0 0 0-.569.918c0 .3-.279 2.404-.299 3.272-.023.262.04.525.18.748a1.421 1.421 0 0 0 1.127.28c.924-.16 1.832-.386 2.723-.679.357-.221.677-.497.948-.818 1.316-1.426 4.189-4.808 5.635-6.314.33-.35.606-.746.818-1.177.223-.433.349-.91.37-1.397a2.4 2.4 0 0 0-.998-1.795ZM9.885 20.706c-1.596 0-3.5 0-5.107-.07a24.683 24.683 0 0 1-2.663-.18c-.17 0-.33-.13-.39-.1a1.5 1.5 0 0 1-.089-.459v-.847c-.06-.728-.13-3.81-.25-6.863-.189-3.262-.378-6.504-.378-6.823v-.349c.293-.211.637-.339.997-.37.32 0 .659 0 .998-.059-.06.173-.11.35-.15.529a1.5 1.5 0 0 0 0 .439c0 .289.08.668.08.668a.57.57 0 0 0 .519.499h4.907c1.327 0 2.584 0 3.292-.08a.3.3 0 0 0 .33-.26.3.3 0 0 0-.32-.279c-.559 0-1.437 0-2.424-.07-1.975-.09-4.24-.259-5.237-.339v-.299c.037-.162.083-.322.14-.479.043-.127.103-.247.18-.359.154-.215.364-.385.608-.489a6.4 6.4 0 0 1 1.426-.429l.29-.07a.6.6 0 0 0 .349-.249.63.63 0 0 0 .08-.449l-.13-.668a.86.86 0 0 1 .319-.658c.26-.218.568-.372.898-.45a.86.86 0 0 1 .498 0c.177.054.338.15.47.28.172.18.29.404.338.649a3.7 3.7 0 0 1 .06.897.45.45 0 0 0 .39.45c.337.028.67.088.997.179a3.8 3.8 0 0 1 .897.399c.209.143.36.355.43.598.082.297.125.6.13.908a.35.35 0 0 0 .687 0 3.6 3.6 0 0 0-.19-1.337 1.73 1.73 0 0 0-.618-.818 4.402 4.402 0 0 0-1.077-.538 4.601 4.601 0 0 0-.748-.2 3.1 3.1 0 0 0-.09-.997 2.5 2.5 0 0 0-.479-.798 2.3 2.3 0 0 0-.867-.599A1.9 1.9 0 0 0 7.89.027c-.61.126-1.17.431-1.606.878a1.93 1.93 0 0 0-.508 1.297v.35a7 7 0 0 0-1.417.468c-.4.206-.742.508-.997.878v.08a10.501 10.501 0 0 0-1.766.04c-.358.06-.699.2-.997.408a.73.73 0 0 0-.24.31 2.5 2.5 0 0 0-.11.528c0 .32-.09 3.631 0 6.983.06 3.072.21 6.174.27 6.912.022.445.085.884.19 1.317.06.264.187.508.369.708.166.135.366.221.578.25.48.073.962.113 1.446.12 1.776 0 4.619-.07 6.843-.13a.35.35 0 0 0 0-.699l-.06-.019Zm4.09-16.429c.21.05.406.133.589.25.13.09.247.195.349.318l.06.17c0 .499 0 1.526.09 2.743 0 .439.05.908.09 1.377.099 1.117.239 2.254.278 3.202a.31.31 0 0 0 .619 0c.1-.998.2-2.125.21-3.262V7.678c-.08-.928-.21-1.849-.39-2.763a1.402 1.402 0 0 0-.18-.518 2.4 2.4 0 0 0-.717-.549 2.4 2.4 0 0 0-.848-.25.34.34 0 0 0-.4.28.34.34 0 0 0 .25.399Z" clip-rule="evenodd"/>
    <path fill="#C9541A" fill-rule="evenodd" d="M12.49 15.41a.6.6 0 0 0 .348-.34.35.35 0 0 0-.15-.459c0-.16-.13-.38-.17-.509a.54.54 0 0 0-.608-.469 1 1 0 0 0-.359.2c-.16.13-.319.32-.419.4a3.5 3.5 0 0 1-.997.697.82.82 0 0 1-.858-.07v-.08a1.4 1.4 0 0 1 0-.349c.127-.555.3-1.1.52-1.626a.56.56 0 0 0-.999-.339 9.799 9.799 0 0 1-2.135 2.614c-.538.43-1.077.698-1.556.39-.319-.19-.369-.63-.379-1.089.026-.81.167-1.613.42-2.384a2.02 2.02 0 0 1 .14-.329c.07-.11.146-.216.23-.319.145-.196.324-.364.527-.499a.649.649 0 0 1 .56-.09.31.31 0 0 0 .398-.17.31.31 0 0 0-.18-.398 1.17 1.17 0 0 0-.898 0c-.387.148-.73.391-.997.708-.13.15-.22.25-.3.36a2.704 2.704 0 0 0-.239.458 8.3 8.3 0 0 0-.688 3.142 2 2 0 0 0 .758 1.536 2.1 2.1 0 0 0 2.284 0A5.7 5.7 0 0 0 8.29 15.06a1 1 0 0 0 .42.618 1.68 1.68 0 0 0 1.436.2 4.2 4.2 0 0 0 1.516-.998l.11-.13c.07.171.15.338.24.5a.39.39 0 0 0 .477.16Z" clip-rule="evenodd"/>
  </g>
  <defs>
    <clipPath id="a">
      <path fill="#fff" d="M0 0h24v24H0z"/>
    </clipPath>
  </defs>
</svg>
