<svg xmlns="http://www.w3.org/2000/svg" width="32" height="32" fill="none" viewBox="0 0 32 32">
  <g clip-path="url(#a)">
    <path fill="#0F0E0D" fill-rule="evenodd" d="M5.6 15.347a.413.413 0 1 0 .387-.68 6.466 6.466 0 0 1-1.986-2.12c-1.334-1.827-1.854-3.494-.534-5.334A5.173 5.173 0 0 1 7.334 5.24c2.547-.293 4.36.2 11.748 1.24a.773.773 0 0 0 .853-.76c0-.88.28-3.561 1.053-4.001.427-.24.587.293 1.334.906.747.614 1.787 1.68 2.8 2.707 2.668 2.667 2.375 2.427 2.255 2.587a23.999 23.999 0 0 1-6.04 5.52 2.51 2.51 0 0 1-.6.24c0-.134-.094-.334-.094-.48a3.866 3.866 0 0 0-.44-2.174c-.24-.48-1.066-.533-1.986-.72a29.332 29.332 0 0 0-5.895-.506c-1.52-.1-3.045-.073-4.56.08-1.92.32-2.333 1.773-1.573 3.453a.472.472 0 0 0 .866-.373c-1.08-2.52 1.107-2.294 5.2-2.04 1.914.015 3.82.22 5.693.613.107 0 .947.507 1.227.387.28.76-.067 2.026.334 2.666 1.453 2.202 6.746-3.026 8.547-5.04.627-.72 1.334-1.333 1.067-2.04-.387-.986-4.907-5.266-5.853-6.093-.707-.627-1.52-2.013-3.12-1.12-1.333.72-1.653 3.013-1.76 4.507l-3.722-.427c-4.226-.587-9.786-1.44-12.16 2.187-1.507 2.293-.987 4.373.706 6.533A7.067 7.067 0 0 0 5.6 15.345" clip-rule="evenodd"/>
    <path fill="#C9541A" fill-rule="evenodd" d="M30.323 23.093a9.334 9.334 0 0 0-3.92-5.333.426.426 0 0 0-.386.747 6.467 6.467 0 0 1 2.053 2.066c1.333 1.854 1.84 3.507.533 5.334a5.162 5.162 0 0 1-3.867 1.973c-2.546.295-4.426-.2-11.734-1.24a.775.775 0 0 0-.867.76c-.08 1.201-.093 2.535-.826 3.015A14.48 14.48 0 0 1 4.642 26c-.4-.6-.413-.8 0-1.546a26.798 26.798 0 0 1 6.16-5.667c.28-.187.653-.293.827-.4 0 1.333-.32 2.667.186 3.693.254.48 1.04.52 1.987.72 1.942.368 3.917.537 5.893.507 1.52.1 3.046.072 4.56-.08 1.893-.32 2.334-1.747 1.56-3.507a.474.474 0 0 0-.779-.151.473.473 0 0 0-.088.525c1.08 2.573-1.106 2.32-5.2 2.093a28.009 28.009 0 0 1-5.68-.613c-.106 0-.88-.454-1.2-.4-.226-1.614.987-4.495-1.333-4.322-1.187.08-8.71 5.814-8.722 8.48-.014 2.667 7.493 7.482 9.186 6.548 1.333-.746 1.52-2.066 1.627-3.586l3.681.44c4.294.586 9.827 1.44 12.202-2.187.715-1 1.007-2.24.813-3.453" clip-rule="evenodd"/>
  </g>
  <defs>
    <clipPath id="a">
      <path fill="#fff" d="M0 0h32v32H0z"/>
    </clipPath>
  </defs>
</svg>
