<svg xmlns="http://www.w3.org/2000/svg" width="45" height="45" fill="none"><g clip-path="url(#a)"><path fill="url(#b)" d="M.953 22.23a21.4 21.4 0 0 0 2.865 10.727L.773 44.075l11.378-2.983a21.45 21.45 0 0 0 10.256 2.61h.01c11.828 0 21.456-9.624 21.461-21.454a21.32 21.32 0 0 0-6.28-15.18C33.545 3.014 28.156.78 22.415.777 10.586.776.958 10.401.953 22.231"/><path fill="url(#c)" d="M.187 22.224a22.2 22.2 0 0 0 2.967 11.11L0 44.852l11.786-3.09a22.2 22.2 0 0 0 10.624 2.706h.01c12.252 0 22.226-9.972 22.231-22.225a22.1 22.1 0 0 0-6.506-15.724A22.1 22.1 0 0 0 22.42 0C10.164 0 .192 9.97.187 22.224m7.018 10.53-.44-.698a18.4 18.4 0 0 1-2.825-9.83C3.944 12.04 12.233 3.752 22.426 3.752A18.36 18.36 0 0 1 35.49 9.171a18.36 18.36 0 0 1 5.407 13.07c-.004 10.184-8.293 18.472-18.478 18.472h-.007a18.46 18.46 0 0 1-9.405-2.575l-.675-.4-6.994 1.833z"/><path fill="#fff" d="M16.865 12.933c-.416-.925-.854-.944-1.25-.96-.324-.014-.694-.013-1.064-.013s-.973.14-1.482.695c-.509.556-1.944 1.9-1.944 4.633s1.99 5.374 2.268 5.745c.278.37 3.843 6.158 9.49 8.385 4.692 1.85 5.647 1.482 6.665 1.39 1.019-.093 3.287-1.344 3.75-2.641s.463-2.409.324-2.641-.51-.37-1.065-.648-3.287-1.622-3.796-1.808-.88-.277-1.25.279c-.37.555-1.434 1.806-1.758 2.177s-.648.417-1.204.14c-.556-.28-2.345-.865-4.467-2.757-1.652-1.473-2.766-3.291-3.09-3.847-.325-.556-.035-.857.243-1.134.25-.248.556-.648.834-.972.277-.325.37-.556.555-.927.185-.37.092-.695-.046-.973-.14-.278-1.219-3.025-1.713-4.123"/></g><defs><linearGradient id="b" x1="22.326" x2="22.326" y1="44.075" y2=".776" gradientUnits="userSpaceOnUse"><stop stop-color="#1FAF38"/><stop offset="1" stop-color="#60D669"/></linearGradient><linearGradient id="c" x1="22.326" x2="22.326" y1="44.851" y2="0" gradientUnits="userSpaceOnUse"><stop stop-color="#F9F9F9"/><stop offset="1" stop-color="#fff"/></linearGradient><clipPath id="a"><path fill="#fff" d="M0 0h44.653v45H0z"/></clipPath></defs></svg>