<svg xmlns="http://www.w3.org/2000/svg" width="24" height="24" fill="none" viewBox="0 0 24 24">
  <g clip-path="url(#a)">
    <path fill="#0F0E0D" fill-rule="evenodd" d="M13.559 10.575a2.2 2.2 0 0 0-.81-.51 8.397 8.397 0 0 0-1.75-.35c-.21 0-.43-.05-.64-.06h-.17a3.73 3.73 0 0 0 1.28-3.37 4 4 0 0 0-4.47-3.36 3.87 3.87 0 0 0-3.85 3.55 3.12 3.12 0 0 0 .9 2.32A13.5 13.5 0 0 0 2 13.525a4.14 4.14 0 0 0 .46 3.46h-.15a1.94 1.94 0 0 1-.85-.28v-.14a2.1 2.1 0 0 1-.12-.58c-.05-.42-.05-.85-.07-1.05L1 11.775c-.06-.79-.17-1.52-.24-2.28a13 13 0 0 1-.07-1.51.29.29 0 0 0-.58 0A14 14 0 0 0 0 9.524v2.31c0 .77 0 1.28.05 1.92.015.438.055.875.12 1.31.04.515.12 1.025.24 1.53.073.317.249.602.5.81.208.12.435.204.67.25l-.42 1.45c-.08.27-.14.54-.2.82-.06.28-.1.56-.14.84-.09.66-.16 1.32-.23 2a.33.33 0 1 0 .64.13c.2-.64.42-1.26.61-1.9.08-.28.15-.55.21-.83.065-.28.115-.564.15-.85.06-.52.07-1 .08-1.56h1.4c.4 0 .68.16 1 .23a2.8 2.8 0 0 1 1.42.54c.161.14.305.296.43.47.14.19.25.39.37.59.26.52.55 2.39 1.14 3.15a1.23 1.23 0 0 0 .8.51 1.351 1.351 0 0 0 1.2-.49 5.3 5.3 0 0 0 1-3.36 5.54 5.54 0 0 0-.83-3.31 2.499 2.499 0 0 0-.74-.62c-.5-.28-1.07-.38-1.58-.66a16.998 16.998 0 0 1 0-1.84.33.33 0 0 0-.456-.408.34.34 0 0 0-.174.187c0 .1-.08 1.52-.08 2.09a.74.74 0 0 0 .19.51c.55.36 1.18.49 1.73.82.187.114.35.263.48.44a4.67 4.67 0 0 1 .53 2.77 4.18 4.18 0 0 1-.78 2.61c-.11.11-.19.19-.28.19-.09 0-.05 0-.07-.07a1.402 1.402 0 0 1-.2-.34c-.42-.87-.64-2.26-.86-2.69a5.597 5.597 0 0 0-.46-.73 3.498 3.498 0 0 0-.61-.66 2.9 2.9 0 0 0-.8-.47 7.502 7.502 0 0 0-1.59-.34 2.4 2.4 0 0 1-1.18-.41c-.65-.53-.67-1.61-.48-2.75a12.5 12.5 0 0 1 1.69-4.53 4.6 4.6 0 0 0 2.31.8.28.28 0 0 0 .32-.25.28.28 0 0 0-.25-.32c-2.03-.33-2.87-1.62-2.81-2.88a2.91 2.91 0 0 1 3-2.5 3 3 0 0 1 3.44 2.4 3.08 3.08 0 0 1-2.45 3.55.33.33 0 1 0 .16.64 5.61 5.61 0 0 0 1-.33l.88.11c.245.03.485.08.72.15.532.13 1.049.307 1.55.53a.82.82 0 0 1 .41.29c0 .05 0 .09-.11.17l-.25.22-.54.28a3.802 3.802 0 0 1-1.29.21c-.76 0-1.54-.07-2.2-.08a.33.33 0 0 0-.36.3.33.33 0 0 0 .31.35c.78.1 1.74.32 2.62.35.424 0 .845-.064 1.25-.19.113-.03.223-.07.33-.12.16-.062.313-.139.46-.23l.52-.44c.49-.79.39-1.27.05-1.62" clip-rule="evenodd"/>
    <path fill="#C9541A" fill-rule="evenodd" d="M21.1 5.985a.34.34 0 0 0-.44.15c-.16.31-.31.63-.45.95-.19.47-.36 1-.52 1.44-.16.44-.28.79-.39 1.19-.08.28-.14.563-.18.85l-.05.65h-.87c-.73.08-1.46.16-2.2.28-.74.12-.89.13-1.6.29-.71.16-.45.67-.14.6.58-.06.82 0 1.4 0 .86 0 1.72-.06 2.58 0h1.23a.72.72 0 0 0 .62-.39c.051-.152.081-.31.09-.47v-.77c.014-.25.044-.496.09-.74.07-.39.17-.78.26-1.16.09-.38.23-1 .37-1.45.1-.31.21-.61.33-.91a.319.319 0 0 0-.13-.51Z" clip-rule="evenodd"/>
    <path fill="#0F0E0D" fill-rule="evenodd" d="M23.678 13.654c-1.36-.13-2.71-.24-4.07-.27h-1.75c-.58 0-1.17 0-1.75.1-1.35.13-2.69.36-4 .59a.29.29 0 0 0 .06.57c1.55-.08 3.08-.08 4.61-.11h.68c-.08.73-.18 1.45-.2 2.18v1.54c0 .66.1 1.31.15 2a4.38 4.38 0 0 0-.95.16 7.499 7.499 0 0 0-2.31 1.22.31.31 0 0 0-.1.4.3.3 0 0 0 .4.1 8.3 8.3 0 0 1 2.24-.69c.315-.05.632-.08.95-.09a5.9 5.9 0 0 1 .94 0 5.15 5.15 0 0 1 2.13.79.332.332 0 0 0 .4-.53 5.461 5.461 0 0 0-2.33-1.28 3.5 3.5 0 0 0-.65-.11c.08-.63.14-1.27.18-1.9v-2c-.05-.63-.13-1.25-.2-1.87h.95l2.31-.11h2.3a.328.328 0 0 0 .33-.36.33.33 0 0 0-.32-.33Z" clip-rule="evenodd"/>
    <path fill="#C9541A" fill-rule="evenodd" d="M16.5 3.895a2.2 2.2 0 0 0-.67 0 2 2 0 0 0-.67.16A2.52 2.52 0 0 0 14 5.095a.292.292 0 0 0 .14.463.291.291 0 0 0 .31-.093 2.06 2.06 0 0 1 1.07-.41l.48-.07c.163-.01.326-.01.49 0a2.64 2.64 0 0 1 1.17.14.31.31 0 0 0 .44-.1.33.33 0 0 0-.1-.46 3.07 3.07 0 0 0-1.5-.67Zm-3.73-.7a6.6 6.6 0 0 1 2.44-1.1 7.3 7.3 0 0 1 1.73-.26 3.8 3.8 0 0 1 2.67.8.33.33 0 0 0 .47 0 .34.34 0 0 0 0-.46 4.26 4.26 0 0 0-2.69-1.39 5.8 5.8 0 0 0-1.32 0 6 6 0 0 0-1.25.31 6.26 6.26 0 0 0-2.44 1.68.29.29 0 0 0 0 .41.3.3 0 0 0 .39.01Z" clip-rule="evenodd"/>
  </g>
  <defs>
    <clipPath id="a">
      <path fill="#fff" d="M0 0h24v24H0z"/>
    </clipPath>
  </defs>
</svg>
